<mxfile host="app.diagrams.net" agent="Mozilla/5.0 (Windows NT 10.0; Win64; x64) AppleWebKit/537.36 (KHTML, like Gecko) Chrome/136.0.0.0 Safari/537.36" version="27.0.5">
  <diagram name="Page-1" id="rZa9aX3Jq6c3j-hi1Zc5">
    <mxGraphModel dx="3507" dy="1939" grid="0" gridSize="10" guides="1" tooltips="1" connect="1" arrows="1" fold="1" page="0" pageScale="1" pageWidth="850" pageHeight="1100" background="none" math="0" shadow="0">
      <root>
        <mxCell id="0" />
        <mxCell id="1" parent="0" />
        <mxCell id="SSVQXBcXOp7XfPBqwCCu-2" value="Building" style="swimlane;whiteSpace=wrap;html=1;fillColor=#f8cecc;strokeColor=#b85450;" parent="1" vertex="1">
          <mxGeometry x="97" y="-132" width="120" height="70" as="geometry" />
        </mxCell>
        <mxCell id="SSVQXBcXOp7XfPBqwCCu-4" value="Complaint" style="swimlane;whiteSpace=wrap;html=1;fillColor=#f8cecc;strokeColor=#b85450;startSize=23;" parent="1" vertex="1">
          <mxGeometry x="-396" y="-190" width="156" height="153" as="geometry" />
        </mxCell>
        <mxCell id="fFfavN8Qj9UDiZofzjUI-102" value="# AddCompToList()" style="text;strokeColor=light-dark(#000000,#512D2B);fillColor=default;align=left;verticalAlign=top;spacingLeft=4;spacingRight=4;overflow=hidden;rotatable=0;points=[[0,0.5],[1,0.5]];portConstraint=eastwest;whiteSpace=wrap;html=1;" parent="SSVQXBcXOp7XfPBqwCCu-4" vertex="1">
          <mxGeometry y="22" width="156" height="31" as="geometry" />
        </mxCell>
        <mxCell id="fFfavN8Qj9UDiZofzjUI-103" value="# Complaint_id: int" style="text;strokeColor=light-dark(#000000,#512D2B);fillColor=default;align=left;verticalAlign=top;spacingLeft=4;spacingRight=4;overflow=hidden;rotatable=0;points=[[0,0.5],[1,0.5]];portConstraint=eastwest;whiteSpace=wrap;html=1;" parent="SSVQXBcXOp7XfPBqwCCu-4" vertex="1">
          <mxGeometry y="53" width="156" height="30" as="geometry" />
        </mxCell>
        <mxCell id="fFfavN8Qj9UDiZofzjUI-104" value="# Complaint_desc: string[]" style="text;strokeColor=light-dark(#000000,#512D2B);fillColor=default;align=left;verticalAlign=top;spacingLeft=4;spacingRight=4;overflow=hidden;rotatable=0;points=[[0,0.5],[1,0.5]];portConstraint=eastwest;whiteSpace=wrap;html=1;" parent="SSVQXBcXOp7XfPBqwCCu-4" vertex="1">
          <mxGeometry y="83" width="156" height="30" as="geometry" />
        </mxCell>
        <mxCell id="fFfavN8Qj9UDiZofzjUI-105" value="# Complaint_list:&lt;div&gt;Complaint[]&lt;/div&gt;" style="text;strokeColor=light-dark(#000000,#512D2B);fillColor=default;align=left;verticalAlign=top;spacingLeft=4;spacingRight=4;overflow=hidden;rotatable=0;points=[[0,0.5],[1,0.5]];portConstraint=eastwest;whiteSpace=wrap;html=1;" parent="SSVQXBcXOp7XfPBqwCCu-4" vertex="1">
          <mxGeometry y="113" width="156" height="40" as="geometry" />
        </mxCell>
        <mxCell id="SSVQXBcXOp7XfPBqwCCu-5" value="Poll" style="swimlane;whiteSpace=wrap;html=1;startSize=20;fillColor=#f8cecc;strokeColor=#b85450;" parent="1" vertex="1">
          <mxGeometry x="58" y="182" width="126" height="80" as="geometry" />
        </mxCell>
        <mxCell id="cASRyqBLn2ZBMr_rPm0i-7" value="+ Poll_id: int" style="text;strokeColor=light-dark(#000000,#512D2B);fillColor=default;align=left;verticalAlign=top;spacingLeft=4;spacingRight=4;overflow=hidden;rotatable=0;points=[[0,0.5],[1,0.5]];portConstraint=eastwest;whiteSpace=wrap;html=1;" parent="SSVQXBcXOp7XfPBqwCCu-5" vertex="1">
          <mxGeometry y="20" width="126" height="29" as="geometry" />
        </mxCell>
        <mxCell id="cASRyqBLn2ZBMr_rPm0i-8" value="+ Poll_List: Poll[]" style="text;strokeColor=light-dark(#000000,#512D2B);fillColor=default;align=left;verticalAlign=top;spacingLeft=4;spacingRight=4;overflow=hidden;rotatable=0;points=[[0,0.5],[1,0.5]];portConstraint=eastwest;whiteSpace=wrap;html=1;" parent="SSVQXBcXOp7XfPBqwCCu-5" vertex="1">
          <mxGeometry y="50" width="126" height="30" as="geometry" />
        </mxCell>
        <mxCell id="SSVQXBcXOp7XfPBqwCCu-6" value="Notification" style="swimlane;whiteSpace=wrap;html=1;fillColor=#f8cecc;strokeColor=#b85450;" parent="1" vertex="1">
          <mxGeometry x="-884" y="134" width="160" height="259" as="geometry" />
        </mxCell>
        <mxCell id="cASRyqBLn2ZBMr_rPm0i-5" value="# Notification_id: int" style="text;strokeColor=light-dark(#000000,#512D2B);fillColor=default;align=left;verticalAlign=top;spacingLeft=4;spacingRight=4;overflow=hidden;rotatable=0;points=[[0,0.5],[1,0.5]];portConstraint=eastwest;whiteSpace=wrap;html=1;" parent="SSVQXBcXOp7XfPBqwCCu-6" vertex="1">
          <mxGeometry y="23" width="160" height="30" as="geometry" />
        </mxCell>
        <mxCell id="cASRyqBLn2ZBMr_rPm0i-6" value="# Notification_list:&lt;div&gt;Notification[]&lt;/div&gt;" style="text;strokeColor=light-dark(#000000,#512D2B);fillColor=default;align=left;verticalAlign=top;spacingLeft=4;spacingRight=4;overflow=hidden;rotatable=0;points=[[0,0.5],[1,0.5]];portConstraint=eastwest;whiteSpace=wrap;html=1;" parent="SSVQXBcXOp7XfPBqwCCu-6" vertex="1">
          <mxGeometry y="80" width="160" height="40" as="geometry" />
        </mxCell>
        <mxCell id="cASRyqBLn2ZBMr_rPm0i-9" value="# Notification_desc: string[]" style="text;strokeColor=light-dark(#000000,#512D2B);fillColor=default;align=left;verticalAlign=top;spacingLeft=4;spacingRight=4;overflow=hidden;rotatable=0;points=[[0,0.5],[1,0.5]];portConstraint=eastwest;whiteSpace=wrap;html=1;" parent="SSVQXBcXOp7XfPBqwCCu-6" vertex="1">
          <mxGeometry y="50" width="160" height="30" as="geometry" />
        </mxCell>
        <mxCell id="Xgi3c2Zr5CXY41PrPyP7-88" value="# addNotifToList()" style="text;strokeColor=light-dark(#000000,#512D2B);fillColor=default;align=left;verticalAlign=top;spacingLeft=4;spacingRight=4;overflow=hidden;rotatable=0;points=[[0,0.5],[1,0.5]];portConstraint=eastwest;whiteSpace=wrap;html=1;" parent="SSVQXBcXOp7XfPBqwCCu-6" vertex="1">
          <mxGeometry y="120" width="160" height="42" as="geometry" />
        </mxCell>
        <mxCell id="Xgi3c2Zr5CXY41PrPyP7-89" value="# sendNotifData()" style="text;strokeColor=light-dark(#000000,#512D2B);fillColor=default;align=left;verticalAlign=top;spacingLeft=4;spacingRight=4;overflow=hidden;rotatable=0;points=[[0,0.5],[1,0.5]];portConstraint=eastwest;whiteSpace=wrap;html=1;" parent="SSVQXBcXOp7XfPBqwCCu-6" vertex="1">
          <mxGeometry y="162" width="160" height="39" as="geometry" />
        </mxCell>
        <mxCell id="Xgi3c2Zr5CXY41PrPyP7-91" value="&lt;span style=&quot;text-align: center; text-wrap-mode: nowrap;&quot;&gt;+ displayNotifications()&lt;/span&gt;" style="text;strokeColor=light-dark(#000000,#512D2B);fillColor=default;align=left;verticalAlign=top;spacingLeft=4;spacingRight=4;overflow=hidden;rotatable=0;points=[[0,0.5],[1,0.5]];portConstraint=eastwest;whiteSpace=wrap;html=1;" parent="SSVQXBcXOp7XfPBqwCCu-6" vertex="1">
          <mxGeometry y="192" width="160" height="39" as="geometry" />
        </mxCell>
        <mxCell id="Xgi3c2Zr5CXY41PrPyP7-93" value="&lt;span style=&quot;text-align: center; text-wrap-mode: nowrap;&quot;&gt;+&amp;nbsp;&lt;/span&gt;&lt;span style=&quot;text-align: center; text-wrap-mode: nowrap;&quot;&gt;CancelComCharges()&lt;/span&gt;" style="text;strokeColor=light-dark(#000000,#512D2B);fillColor=default;align=left;verticalAlign=top;spacingLeft=4;spacingRight=4;overflow=hidden;rotatable=0;points=[[0,0.5],[1,0.5]];portConstraint=eastwest;whiteSpace=wrap;html=1;" parent="SSVQXBcXOp7XfPBqwCCu-6" vertex="1">
          <mxGeometry y="229" width="160" height="30" as="geometry" />
        </mxCell>
        <mxCell id="SSVQXBcXOp7XfPBqwCCu-7" value="Tenant" style="swimlane;whiteSpace=wrap;html=1;startSize=23;fillColor=#f8cecc;strokeColor=#b85450;" parent="1" vertex="1">
          <mxGeometry x="-289" y="-22" width="170" height="124" as="geometry">
            <mxRectangle x="200" y="320" width="120" height="30" as="alternateBounds" />
          </mxGeometry>
        </mxCell>
        <mxCell id="cASRyqBLn2ZBMr_rPm0i-3" value="- tenant_id: int" style="text;strokeColor=light-dark(#000000,#512D2B);fillColor=default;align=left;verticalAlign=top;spacingLeft=4;spacingRight=4;overflow=hidden;rotatable=0;points=[[0,0.5],[1,0.5]];portConstraint=eastwest;whiteSpace=wrap;html=1;" parent="SSVQXBcXOp7XfPBqwCCu-7" vertex="1">
          <mxGeometry y="20" width="170" height="26" as="geometry" />
        </mxCell>
        <mxCell id="Xgi3c2Zr5CXY41PrPyP7-34" value="- tenant_list: Tenant[]" style="text;strokeColor=light-dark(#000000,#512D2B);fillColor=default;align=left;verticalAlign=top;spacingLeft=4;spacingRight=4;overflow=hidden;rotatable=0;points=[[0,0.5],[1,0.5]];portConstraint=eastwest;whiteSpace=wrap;html=1;" parent="SSVQXBcXOp7XfPBqwCCu-7" vertex="1">
          <mxGeometry y="46" width="170" height="26" as="geometry" />
        </mxCell>
        <mxCell id="Xgi3c2Zr5CXY41PrPyP7-35" value="- tenant_name: string" style="text;strokeColor=light-dark(#000000,#512D2B);fillColor=default;align=left;verticalAlign=top;spacingLeft=4;spacingRight=4;overflow=hidden;rotatable=0;points=[[0,0.5],[1,0.5]];portConstraint=eastwest;whiteSpace=wrap;html=1;" parent="SSVQXBcXOp7XfPBqwCCu-7" vertex="1">
          <mxGeometry y="72" width="170" height="26" as="geometry" />
        </mxCell>
        <mxCell id="Xgi3c2Zr5CXY41PrPyP7-39" value="+ AddToList()&amp;nbsp;" style="text;strokeColor=light-dark(#000000,#512D2B);fillColor=default;align=left;verticalAlign=top;spacingLeft=4;spacingRight=4;overflow=hidden;rotatable=0;points=[[0,0.5],[1,0.5]];portConstraint=eastwest;whiteSpace=wrap;html=1;" parent="SSVQXBcXOp7XfPBqwCCu-7" vertex="1">
          <mxGeometry y="98" width="170" height="26" as="geometry" />
        </mxCell>
        <mxCell id="SSVQXBcXOp7XfPBqwCCu-8" value="Manager" style="swimlane;whiteSpace=wrap;html=1;fillColor=#f8cecc;strokeColor=#b85450;startSize=23;" parent="1" vertex="1">
          <mxGeometry x="-170" y="168" width="150" height="50" as="geometry" />
        </mxCell>
        <mxCell id="cASRyqBLn2ZBMr_rPm0i-4" value="- manager_id: int" style="text;strokeColor=light-dark(#000000,#512D2B);fillColor=default;align=left;verticalAlign=top;spacingLeft=4;spacingRight=4;overflow=hidden;rotatable=0;points=[[0,0.5],[1,0.5]];portConstraint=eastwest;whiteSpace=wrap;html=1;" parent="SSVQXBcXOp7XfPBqwCCu-8" vertex="1">
          <mxGeometry y="20" width="150" height="30" as="geometry" />
        </mxCell>
        <mxCell id="SSVQXBcXOp7XfPBqwCCu-11" value="Receipt" style="swimlane;whiteSpace=wrap;html=1;startSize=20;fillColor=#f8cecc;strokeColor=#b85450;" parent="1" vertex="1">
          <mxGeometry x="-704" y="11.5" width="179" height="52" as="geometry" />
        </mxCell>
        <mxCell id="Xgi3c2Zr5CXY41PrPyP7-61" value="+ ReceiptList: Receipt[]" style="text;strokeColor=light-dark(#000000,#512D2B);fillColor=default;align=left;verticalAlign=top;spacingLeft=4;spacingRight=4;overflow=hidden;rotatable=0;points=[[0,0.5],[1,0.5]];portConstraint=eastwest;whiteSpace=wrap;html=1;" parent="SSVQXBcXOp7XfPBqwCCu-11" vertex="1">
          <mxGeometry y="19" width="179" height="33" as="geometry" />
        </mxCell>
        <mxCell id="SSVQXBcXOp7XfPBqwCCu-17" value="Apartment" style="swimlane;whiteSpace=wrap;html=1;startSize=23;fillColor=#f8cecc;strokeColor=#b85450;" parent="1" vertex="1">
          <mxGeometry x="-48" y="-231" width="155" height="76" as="geometry" />
        </mxCell>
        <mxCell id="Xgi3c2Zr5CXY41PrPyP7-38" value="# apartment_id: int&amp;nbsp; &amp;nbsp;????" style="text;strokeColor=light-dark(#000000,#512D2B);fillColor=default;align=left;verticalAlign=top;spacingLeft=4;spacingRight=4;overflow=hidden;rotatable=0;points=[[0,0.5],[1,0.5]];portConstraint=eastwest;whiteSpace=wrap;html=1;" parent="SSVQXBcXOp7XfPBqwCCu-17" vertex="1">
          <mxGeometry y="24" width="155" height="26" as="geometry" />
        </mxCell>
        <mxCell id="Xgi3c2Zr5CXY41PrPyP7-62" value="# owner : string" style="text;strokeColor=light-dark(#000000,#512D2B);fillColor=default;align=left;verticalAlign=top;spacingLeft=4;spacingRight=4;overflow=hidden;rotatable=0;points=[[0,0.5],[1,0.5]];portConstraint=eastwest;whiteSpace=wrap;html=1;" parent="SSVQXBcXOp7XfPBqwCCu-17" vertex="1">
          <mxGeometry y="50" width="155" height="26" as="geometry" />
        </mxCell>
        <mxCell id="F3hGp55dTPlV1KN0r0mo-15" value="" style="endArrow=block;endSize=16;endFill=0;html=1;rounded=0;entryX=0.5;entryY=1;entryDx=0;entryDy=0;exitX=0.5;exitY=0;exitDx=0;exitDy=0;" parent="1" source="SSVQXBcXOp7XfPBqwCCu-8" target="SSVQXBcXOp7XfPBqwCCu-7" edge="1">
          <mxGeometry width="160" relative="1" as="geometry">
            <mxPoint x="260" y="290" as="sourcePoint" />
            <mxPoint x="420" y="290" as="targetPoint" />
          </mxGeometry>
        </mxCell>
        <mxCell id="F3hGp55dTPlV1KN0r0mo-22" value="" style="endArrow=diamondThin;endFill=1;endSize=24;html=1;rounded=0;entryX=0;entryY=0.5;entryDx=0;entryDy=0;exitX=0.818;exitY=1.03;exitDx=0;exitDy=0;exitPerimeter=0;" parent="1" source="Xgi3c2Zr5CXY41PrPyP7-62" target="SSVQXBcXOp7XfPBqwCCu-2" edge="1">
          <mxGeometry width="160" relative="1" as="geometry">
            <mxPoint x="320" as="sourcePoint" />
            <mxPoint x="480" as="targetPoint" />
          </mxGeometry>
        </mxCell>
        <mxCell id="F3hGp55dTPlV1KN0r0mo-23" value="&lt;br&gt;&lt;div&gt;&lt;br&gt;&lt;/div&gt;" style="edgeLabel;html=1;align=center;verticalAlign=middle;resizable=0;points=[];" parent="F3hGp55dTPlV1KN0r0mo-22" vertex="1" connectable="0">
          <mxGeometry x="-0.0265" y="-2" relative="1" as="geometry">
            <mxPoint as="offset" />
          </mxGeometry>
        </mxCell>
        <mxCell id="WuOTlpxF1cgyQsxotzUC-4" value="" style="endArrow=none;html=1;rounded=0;entryX=0.5;entryY=1;entryDx=0;entryDy=0;exitX=0.5;exitY=0;exitDx=0;exitDy=0;" parent="1" source="SSVQXBcXOp7XfPBqwCCu-7" target="SSVQXBcXOp7XfPBqwCCu-4" edge="1">
          <mxGeometry width="50" height="50" relative="1" as="geometry">
            <mxPoint x="190" y="-110" as="sourcePoint" />
            <mxPoint x="240" y="-160" as="targetPoint" />
          </mxGeometry>
        </mxCell>
        <mxCell id="WuOTlpxF1cgyQsxotzUC-6" value="" style="endArrow=diamondThin;endFill=0;endSize=24;html=1;rounded=0;exitX=1;exitY=0;exitDx=0;exitDy=0;" parent="1" source="SSVQXBcXOp7XfPBqwCCu-7" edge="1">
          <mxGeometry width="160" relative="1" as="geometry">
            <mxPoint x="140" y="170" as="sourcePoint" />
            <mxPoint x="4" y="-154" as="targetPoint" />
          </mxGeometry>
        </mxCell>
        <mxCell id="WuOTlpxF1cgyQsxotzUC-7" value="" style="endArrow=none;html=1;rounded=0;exitX=1;exitY=0.5;exitDx=0;exitDy=0;entryX=0;entryY=1;entryDx=0;entryDy=0;" parent="1" source="fFfavN8Qj9UDiZofzjUI-205" target="SSVQXBcXOp7XfPBqwCCu-8" edge="1">
          <mxGeometry width="50" height="50" relative="1" as="geometry">
            <mxPoint x="200" y="200" as="sourcePoint" />
            <mxPoint x="-170" y="300" as="targetPoint" />
          </mxGeometry>
        </mxCell>
        <mxCell id="WuOTlpxF1cgyQsxotzUC-8" value="" style="endArrow=none;html=1;rounded=0;entryX=0;entryY=0.5;entryDx=0;entryDy=0;exitX=1;exitY=0.5;exitDx=0;exitDy=0;" parent="1" source="cASRyqBLn2ZBMr_rPm0i-9" target="Xgi3c2Zr5CXY41PrPyP7-35" edge="1">
          <mxGeometry width="50" height="50" relative="1" as="geometry">
            <mxPoint x="200" y="200" as="sourcePoint" />
            <mxPoint x="250" y="150" as="targetPoint" />
          </mxGeometry>
        </mxCell>
        <mxCell id="WuOTlpxF1cgyQsxotzUC-9" value="" style="endArrow=none;html=1;rounded=0;entryX=1;entryY=0.5;entryDx=0;entryDy=0;exitX=0;exitY=0;exitDx=0;exitDy=0;" parent="1" source="SSVQXBcXOp7XfPBqwCCu-7" target="SSVQXBcXOp7XfPBqwCCu-11" edge="1">
          <mxGeometry width="50" height="50" relative="1" as="geometry">
            <mxPoint x="200" y="200" as="sourcePoint" />
            <mxPoint x="250" y="150" as="targetPoint" />
          </mxGeometry>
        </mxCell>
        <mxCell id="WuOTlpxF1cgyQsxotzUC-10" value="" style="endArrow=none;html=1;rounded=0;exitX=0;exitY=0;exitDx=0;exitDy=0;entryX=0.5;entryY=1;entryDx=0;entryDy=0;" parent="1" source="SSVQXBcXOp7XfPBqwCCu-8" target="SSVQXBcXOp7XfPBqwCCu-11" edge="1">
          <mxGeometry width="50" height="50" relative="1" as="geometry">
            <mxPoint x="200" y="200" as="sourcePoint" />
            <mxPoint x="-612" y="81" as="targetPoint" />
          </mxGeometry>
        </mxCell>
        <mxCell id="WuOTlpxF1cgyQsxotzUC-11" value="" style="endArrow=diamondThin;endFill=1;endSize=24;html=1;rounded=0;exitX=1;exitY=0;exitDx=0;exitDy=0;entryX=0.5;entryY=1;entryDx=0;entryDy=0;" parent="1" source="SSVQXBcXOp7XfPBqwCCu-8" target="SSVQXBcXOp7XfPBqwCCu-2" edge="1">
          <mxGeometry width="160" relative="1" as="geometry">
            <mxPoint x="140" y="170" as="sourcePoint" />
            <mxPoint x="270" y="-212" as="targetPoint" />
          </mxGeometry>
        </mxCell>
        <mxCell id="WuOTlpxF1cgyQsxotzUC-12" value="" style="endArrow=none;html=1;rounded=0;entryX=1;entryY=1;entryDx=0;entryDy=0;exitX=0;exitY=0;exitDx=0;exitDy=0;" parent="1" source="SSVQXBcXOp7XfPBqwCCu-5" target="SSVQXBcXOp7XfPBqwCCu-7" edge="1">
          <mxGeometry width="50" height="50" relative="1" as="geometry">
            <mxPoint x="200" y="200" as="sourcePoint" />
            <mxPoint x="250" y="150" as="targetPoint" />
          </mxGeometry>
        </mxCell>
        <mxCell id="WuOTlpxF1cgyQsxotzUC-13" value="" style="endArrow=none;html=1;rounded=0;entryX=1;entryY=0.75;entryDx=0;entryDy=0;exitX=0;exitY=0.5;exitDx=0;exitDy=0;" parent="1" source="SSVQXBcXOp7XfPBqwCCu-5" target="SSVQXBcXOp7XfPBqwCCu-8" edge="1">
          <mxGeometry width="50" height="50" relative="1" as="geometry">
            <mxPoint x="200" y="200" as="sourcePoint" />
            <mxPoint x="250" y="150" as="targetPoint" />
          </mxGeometry>
        </mxCell>
        <mxCell id="5aScD9VIwKOivwd3Amo--19" value="&lt;span style=&quot;font-weight: 700;&quot;&gt;Com_Charges_Scr&lt;/span&gt;" style="swimlane;fontStyle=0;childLayout=stackLayout;horizontal=1;startSize=26;fillColor=light-dark(#F8CECC,#512D2B);horizontalStack=0;resizeParent=1;resizeParentMax=0;resizeLast=0;collapsible=1;marginBottom=0;whiteSpace=wrap;html=1;strokeColor=light-dark(#000000,#512D2B);" parent="1" vertex="1">
          <mxGeometry x="-1763" y="-715" width="240" height="78" as="geometry" />
        </mxCell>
        <mxCell id="Xgi3c2Zr5CXY41PrPyP7-74" value="+ display(): void" style="text;strokeColor=light-dark(#000000,#512D2B);fillColor=default;align=left;verticalAlign=top;spacingLeft=4;spacingRight=4;overflow=hidden;rotatable=0;points=[[0,0.5],[1,0.5]];portConstraint=eastwest;whiteSpace=wrap;html=1;" parent="5aScD9VIwKOivwd3Amo--19" vertex="1">
          <mxGeometry y="26" width="240" height="26" as="geometry" />
        </mxCell>
        <mxCell id="Xgi3c2Zr5CXY41PrPyP7-73" value="+publicCommonChargesButton(): void" style="text;strokeColor=light-dark(#000000,#512D2B);fillColor=default;align=left;verticalAlign=top;spacingLeft=4;spacingRight=4;overflow=hidden;rotatable=0;points=[[0,0.5],[1,0.5]];portConstraint=eastwest;whiteSpace=wrap;html=1;" parent="5aScD9VIwKOivwd3Amo--19" vertex="1">
          <mxGeometry y="52" width="240" height="26" as="geometry" />
        </mxCell>
        <mxCell id="5aScD9VIwKOivwd3Amo--27" value="&lt;b&gt;Mngr_Notif_Scr&lt;/b&gt;" style="swimlane;fontStyle=0;childLayout=stackLayout;horizontal=1;startSize=26;fillColor=#f8cecc;horizontalStack=0;resizeParent=1;resizeParentMax=0;resizeLast=0;collapsible=1;marginBottom=0;whiteSpace=wrap;html=1;strokeColor=#b85450;" parent="1" vertex="1">
          <mxGeometry x="-1178" y="225" width="174" height="54" as="geometry" />
        </mxCell>
        <mxCell id="fFfavN8Qj9UDiZofzjUI-60" value="&lt;span style=&quot;font-size: 11px; text-align: center; text-wrap-mode: nowrap; background-color: rgb(255, 255, 255);&quot;&gt;+ display(): void&lt;/span&gt;" style="text;strokeColor=light-dark(#000000,#512D2B);fillColor=default;align=left;verticalAlign=top;spacingLeft=4;spacingRight=4;overflow=hidden;rotatable=0;points=[[0,0.5],[1,0.5]];portConstraint=eastwest;whiteSpace=wrap;html=1;" parent="5aScD9VIwKOivwd3Amo--27" vertex="1">
          <mxGeometry y="26" width="174" height="28" as="geometry" />
        </mxCell>
        <mxCell id="5aScD9VIwKOivwd3Amo--31" value="&lt;span style=&quot;font-weight: 700;&quot;&gt;QuickPrevScr&lt;/span&gt;" style="swimlane;fontStyle=0;childLayout=stackLayout;horizontal=1;startSize=26;fillColor=#f8cecc;horizontalStack=0;resizeParent=1;resizeParentMax=0;resizeLast=0;collapsible=1;marginBottom=0;whiteSpace=wrap;html=1;strokeColor=#b85450;" parent="1" vertex="1">
          <mxGeometry x="-1731" y="-440" width="240" height="130" as="geometry" />
        </mxCell>
        <mxCell id="Xgi3c2Zr5CXY41PrPyP7-86" value="&lt;span style=&quot;text-align: center; text-wrap-mode: nowrap;&quot;&gt;+submitButton(): void&lt;/span&gt;" style="text;strokeColor=light-dark(#000000,#512D2B);fillColor=default;align=left;verticalAlign=top;spacingLeft=4;spacingRight=4;overflow=hidden;rotatable=0;points=[[0,0.5],[1,0.5]];portConstraint=eastwest;whiteSpace=wrap;html=1;" parent="5aScD9VIwKOivwd3Amo--31" vertex="1">
          <mxGeometry y="26" width="240" height="26" as="geometry" />
        </mxCell>
        <mxCell id="Xgi3c2Zr5CXY41PrPyP7-87" value="&lt;span style=&quot;text-align: center; text-wrap-mode: nowrap;&quot;&gt;+displayCancelMessage()&lt;/span&gt;" style="text;strokeColor=light-dark(#000000,#512D2B);fillColor=default;align=left;verticalAlign=top;spacingLeft=4;spacingRight=4;overflow=hidden;rotatable=0;points=[[0,0.5],[1,0.5]];portConstraint=eastwest;whiteSpace=wrap;html=1;" parent="5aScD9VIwKOivwd3Amo--31" vertex="1">
          <mxGeometry y="52" width="240" height="26" as="geometry" />
        </mxCell>
        <mxCell id="Xgi3c2Zr5CXY41PrPyP7-85" value="&lt;span style=&quot;text-align: center; text-wrap-mode: nowrap;&quot;&gt;+queryCommonChargesInfo()&lt;/span&gt;" style="text;strokeColor=light-dark(#000000,#512D2B);fillColor=default;align=left;verticalAlign=top;spacingLeft=4;spacingRight=4;overflow=hidden;rotatable=0;points=[[0,0.5],[1,0.5]];portConstraint=eastwest;whiteSpace=wrap;html=1;" parent="5aScD9VIwKOivwd3Amo--31" vertex="1">
          <mxGeometry y="78" width="240" height="26" as="geometry" />
        </mxCell>
        <mxCell id="Xgi3c2Zr5CXY41PrPyP7-92" value="&lt;span style=&quot;text-align: center; text-wrap-mode: nowrap;&quot;&gt;+&lt;/span&gt;&lt;span style=&quot;text-align: center; text-wrap-mode: nowrap;&quot;&gt;displayCancelMessage()&lt;/span&gt;" style="text;strokeColor=light-dark(#000000,#512D2B);fillColor=default;align=left;verticalAlign=top;spacingLeft=4;spacingRight=4;overflow=hidden;rotatable=0;points=[[0,0.5],[1,0.5]];portConstraint=eastwest;whiteSpace=wrap;html=1;" parent="5aScD9VIwKOivwd3Amo--31" vertex="1">
          <mxGeometry y="104" width="240" height="26" as="geometry" />
        </mxCell>
        <mxCell id="5aScD9VIwKOivwd3Amo--35" value="&lt;span style=&quot;font-weight: 700;&quot;&gt;Receipts_Mngr_Scr&lt;/span&gt;" style="swimlane;fontStyle=0;childLayout=stackLayout;horizontal=1;startSize=26;fillColor=#f8cecc;horizontalStack=0;resizeParent=1;resizeParentMax=0;resizeLast=0;collapsible=1;marginBottom=0;whiteSpace=wrap;html=1;strokeColor=#b85450;" parent="1" vertex="1">
          <mxGeometry x="-1737" y="-66.5" width="240" height="130" as="geometry" />
        </mxCell>
        <mxCell id="Xgi3c2Zr5CXY41PrPyP7-55" value="+ sendFormData()" style="text;strokeColor=light-dark(#000000,#512D2B);fillColor=default;align=left;verticalAlign=top;spacingLeft=4;spacingRight=4;overflow=hidden;rotatable=0;points=[[0,0.5],[1,0.5]];portConstraint=eastwest;whiteSpace=wrap;html=1;" parent="5aScD9VIwKOivwd3Amo--35" vertex="1">
          <mxGeometry y="26" width="240" height="26" as="geometry" />
        </mxCell>
        <mxCell id="Xgi3c2Zr5CXY41PrPyP7-54" value="+ uploadButton(): void" style="text;strokeColor=light-dark(#000000,#512D2B);fillColor=default;align=left;verticalAlign=top;spacingLeft=4;spacingRight=4;overflow=hidden;rotatable=0;points=[[0,0.5],[1,0.5]];portConstraint=eastwest;whiteSpace=wrap;html=1;" parent="5aScD9VIwKOivwd3Amo--35" vertex="1">
          <mxGeometry y="52" width="240" height="26" as="geometry" />
        </mxCell>
        <mxCell id="Xgi3c2Zr5CXY41PrPyP7-53" value="+ checkData(): void" style="text;strokeColor=light-dark(#000000,#512D2B);fillColor=default;align=left;verticalAlign=top;spacingLeft=4;spacingRight=4;overflow=hidden;rotatable=0;points=[[0,0.5],[1,0.5]];portConstraint=eastwest;whiteSpace=wrap;html=1;" parent="5aScD9VIwKOivwd3Amo--35" vertex="1">
          <mxGeometry y="78" width="240" height="26" as="geometry" />
        </mxCell>
        <mxCell id="Xgi3c2Zr5CXY41PrPyP7-52" value="+ display(): void" style="text;strokeColor=light-dark(#000000,#512D2B);fillColor=default;align=left;verticalAlign=top;spacingLeft=4;spacingRight=4;overflow=hidden;rotatable=0;points=[[0,0.5],[1,0.5]];portConstraint=eastwest;whiteSpace=wrap;html=1;" parent="5aScD9VIwKOivwd3Amo--35" vertex="1">
          <mxGeometry y="104" width="240" height="26" as="geometry" />
        </mxCell>
        <mxCell id="5aScD9VIwKOivwd3Amo--39" value="&lt;span style=&quot;font-weight: 700;&quot;&gt;Tenant_Poll_Scr&lt;/span&gt;" style="swimlane;fontStyle=0;childLayout=stackLayout;horizontal=1;startSize=26;fillColor=#f8cecc;horizontalStack=0;resizeParent=1;resizeParentMax=0;resizeLast=0;collapsible=1;marginBottom=0;whiteSpace=wrap;html=1;strokeColor=#b85450;" parent="1" vertex="1">
          <mxGeometry x="97" y="348" width="124" height="78" as="geometry" />
        </mxCell>
        <mxCell id="5aScD9VIwKOivwd3Amo--40" value="+ : type" style="text;strokeColor=light-dark(#000000,#512D2B);fillColor=default;align=left;verticalAlign=top;spacingLeft=4;spacingRight=4;overflow=hidden;rotatable=0;points=[[0,0.5],[1,0.5]];portConstraint=eastwest;whiteSpace=wrap;html=1;" parent="5aScD9VIwKOivwd3Amo--39" vertex="1">
          <mxGeometry y="26" width="124" height="26" as="geometry" />
        </mxCell>
        <mxCell id="5aScD9VIwKOivwd3Amo--41" value="+ field: type" style="text;strokeColor=light-dark(#000000,#512D2B);fillColor=default;align=left;verticalAlign=top;spacingLeft=4;spacingRight=4;overflow=hidden;rotatable=0;points=[[0,0.5],[1,0.5]];portConstraint=eastwest;whiteSpace=wrap;html=1;" parent="5aScD9VIwKOivwd3Amo--39" vertex="1">
          <mxGeometry y="52" width="124" height="26" as="geometry" />
        </mxCell>
        <mxCell id="5aScD9VIwKOivwd3Amo--43" value="&lt;span style=&quot;font-weight: 700;&quot;&gt;Tenant_Notif_Scr&lt;/span&gt;" style="swimlane;fontStyle=0;childLayout=stackLayout;horizontal=1;startSize=26;fillColor=#f8cecc;horizontalStack=0;resizeParent=1;resizeParentMax=0;resizeLast=0;collapsible=1;marginBottom=0;whiteSpace=wrap;html=1;strokeColor=#b85450;" parent="1" vertex="1">
          <mxGeometry x="-1444" y="542" width="154" height="78" as="geometry" />
        </mxCell>
        <mxCell id="5aScD9VIwKOivwd3Amo--44" value="+ field: type" style="text;strokeColor=light-dark(#000000,#512D2B);fillColor=default;align=left;verticalAlign=top;spacingLeft=4;spacingRight=4;overflow=hidden;rotatable=0;points=[[0,0.5],[1,0.5]];portConstraint=eastwest;whiteSpace=wrap;html=1;" parent="5aScD9VIwKOivwd3Amo--43" vertex="1">
          <mxGeometry y="26" width="154" height="26" as="geometry" />
        </mxCell>
        <mxCell id="5aScD9VIwKOivwd3Amo--45" value="+ field: type" style="text;strokeColor=light-dark(#000000,#512D2B);fillColor=default;align=left;verticalAlign=top;spacingLeft=4;spacingRight=4;overflow=hidden;rotatable=0;points=[[0,0.5],[1,0.5]];portConstraint=eastwest;whiteSpace=wrap;html=1;" parent="5aScD9VIwKOivwd3Amo--43" vertex="1">
          <mxGeometry y="52" width="154" height="26" as="geometry" />
        </mxCell>
        <mxCell id="5aScD9VIwKOivwd3Amo--48" value="" style="html=1;verticalLabelPosition=bottom;align=center;labelBackgroundColor=#ffffff;verticalAlign=top;strokeWidth=2;strokeColor=#0080F0;shadow=0;dashed=0;shape=mxgraph.ios7.icons.message;" parent="1" vertex="1">
          <mxGeometry x="875" y="-939" width="300" height="770" as="geometry" />
        </mxCell>
        <mxCell id="5aScD9VIwKOivwd3Amo--49" value="Χρησιμοποιώ γενικά private attributes με την λογική του οτι θα υλοποιούμε μεθόδους get-set&lt;div&gt;&lt;br&gt;&lt;/div&gt;&lt;div&gt;&lt;br&gt;&lt;/div&gt;&lt;div&gt;byte [] είναι ενα απο τα primitive attributes της java&lt;/div&gt;&lt;div&gt;για να αποθηκευεις αρχεια&amp;nbsp;&lt;/div&gt;&lt;div&gt;&lt;br&gt;&lt;/div&gt;&lt;div&gt;H QuickRevScr είναι παιδί της Com_Charges γιατί κληρονομεί όλα τα στοιχεία της. επίσης η ComCharges Πρεπει να έχει protected μεταβλητές για να τις κληρονομεί στο παιδι της έχοντάς τες προστατευμένες από αλλαγές.&lt;/div&gt;&lt;div&gt;&lt;br&gt;&lt;/div&gt;&lt;div&gt;Με βαση το mockup οι επι μερους υπολογισμοί των κοινοχρήστων για κάθε διεργασία της πολυκατοικίας γινονται στην κλαση Receipt manager Scr όταν παταει ο Manager εκδοση κοινοχρήστων ( Εδώ πρέπει να συμφωνήσουμε πως θα υπολογίζει τα εξοδα του καθενος ενοικου για να δουμε τι αλλα attributes χρειαζονται πχ θα τα υπολογιζει βασει τετραγωνικων κλπ κλπ και να δουμε πως θα αλλαξει και η δημιουργεία του tenant μετά βάσει αυτού)&lt;/div&gt;&lt;div&gt;&lt;br&gt;&lt;/div&gt;&lt;div&gt;Στα notification screens δεν βλέπω σε εμενα κατι που να μπορει να μπει σαν attibutes. Μόνο diplay methods θα εχουν απο τα στοιχεία που κληρονομουν απο την notification&lt;/div&gt;&lt;div&gt;&lt;br&gt;&lt;/div&gt;&lt;div&gt;Στο Poll αποθηκευονται&amp;nbsp;&lt;span style=&quot;background-color: transparent; color: light-dark(rgb(0, 0, 0), rgb(255, 255, 255));&quot;&gt;μέσα σε μια λίστα&amp;nbsp;&lt;/span&gt;&lt;span style=&quot;background-color: transparent; color: light-dark(rgb(0, 0, 0), rgb(255, 255, 255));&quot;&gt;τα αντικειμενα που εχουν δημιουργηθεί στο manager poll screen όταν ο Manager δημιουργει ενα Poll.&lt;/span&gt;&lt;/div&gt;&lt;div&gt;&lt;br&gt;&lt;/div&gt;&lt;div&gt;To Poll list τοσο στον tenant οσο και στον Manager θα εμφανιζεται με χρηση μεθοδου που θα υπαρχει μεσα στην Poll&amp;nbsp;&lt;/div&gt;&lt;div&gt;&lt;br&gt;&lt;/div&gt;&lt;div&gt;Γενικα τα lists που εχουμε στο project είναι java λιστες μεσα σε κλασεις. Πιστευω θα βγει πολυ πιο ευκολα αυτό.&lt;/div&gt;" style="text;html=1;align=center;verticalAlign=middle;whiteSpace=wrap;rounded=0;" parent="1" vertex="1">
          <mxGeometry x="883" y="-642" width="270" height="60" as="geometry" />
        </mxCell>
        <mxCell id="5aScD9VIwKOivwd3Amo--62" value="" style="endArrow=block;endSize=16;endFill=0;html=1;rounded=0;entryX=0;entryY=0.5;entryDx=0;entryDy=0;exitX=1;exitY=0.5;exitDx=0;exitDy=0;" parent="1" source="5aScD9VIwKOivwd3Amo--27" target="SSVQXBcXOp7XfPBqwCCu-6" edge="1">
          <mxGeometry width="160" relative="1" as="geometry">
            <mxPoint x="-100" y="260" as="sourcePoint" />
            <mxPoint x="-100" y="60" as="targetPoint" />
          </mxGeometry>
        </mxCell>
        <mxCell id="5aScD9VIwKOivwd3Amo--69" value="" style="endArrow=block;endSize=16;endFill=0;html=1;rounded=0;entryX=0.5;entryY=1;entryDx=0;entryDy=0;exitX=0.998;exitY=0.336;exitDx=0;exitDy=0;exitPerimeter=0;" parent="1" source="5aScD9VIwKOivwd3Amo--45" target="SSVQXBcXOp7XfPBqwCCu-6" edge="1">
          <mxGeometry width="160" relative="1" as="geometry">
            <mxPoint x="-690" y="310" as="sourcePoint" />
            <mxPoint x="-450" y="250" as="targetPoint" />
          </mxGeometry>
        </mxCell>
        <mxCell id="5aScD9VIwKOivwd3Amo--75" value="" style="endArrow=none;html=1;rounded=0;entryX=1;entryY=0.5;entryDx=0;entryDy=0;exitX=0;exitY=0.5;exitDx=0;exitDy=0;" parent="1" source="fFfavN8Qj9UDiZofzjUI-1" target="SSVQXBcXOp7XfPBqwCCu-5" edge="1">
          <mxGeometry width="50" height="50" relative="1" as="geometry">
            <mxPoint x="283" y="233" as="sourcePoint" />
            <mxPoint x="180" y="420" as="targetPoint" />
          </mxGeometry>
        </mxCell>
        <mxCell id="5aScD9VIwKOivwd3Amo--76" value="" style="endArrow=none;html=1;rounded=0;entryX=0.5;entryY=1;entryDx=0;entryDy=0;exitX=0.5;exitY=0;exitDx=0;exitDy=0;" parent="1" source="5aScD9VIwKOivwd3Amo--39" target="SSVQXBcXOp7XfPBqwCCu-5" edge="1">
          <mxGeometry width="50" height="50" relative="1" as="geometry">
            <mxPoint x="380" y="388" as="sourcePoint" />
            <mxPoint x="310" y="350" as="targetPoint" />
          </mxGeometry>
        </mxCell>
        <mxCell id="Xgi3c2Zr5CXY41PrPyP7-1" value="Mngr_Home_Scr" style="swimlane;whiteSpace=wrap;html=1;fillColor=#f8cecc;strokeColor=#b85450;startSize=23;" parent="1" vertex="1">
          <mxGeometry x="-503" y="-518" width="182" height="258" as="geometry" />
        </mxCell>
        <mxCell id="Xgi3c2Zr5CXY41PrPyP7-2" value="+ TenApChangeButton(): void" style="text;strokeColor=light-dark(#000000,#512D2B);fillColor=default;align=left;verticalAlign=top;spacingLeft=4;spacingRight=4;overflow=hidden;rotatable=0;points=[[0,0.5],[1,0.5]];portConstraint=eastwest;whiteSpace=wrap;html=1;" parent="Xgi3c2Zr5CXY41PrPyP7-1" vertex="1">
          <mxGeometry y="23" width="182" height="26" as="geometry" />
        </mxCell>
        <mxCell id="Xgi3c2Zr5CXY41PrPyP7-51" value="+ UploadReceiptButton(): void" style="text;strokeColor=light-dark(#000000,#512D2B);fillColor=default;align=left;verticalAlign=top;spacingLeft=4;spacingRight=4;overflow=hidden;rotatable=0;points=[[0,0.5],[1,0.5]];portConstraint=eastwest;whiteSpace=wrap;html=1;" parent="Xgi3c2Zr5CXY41PrPyP7-1" vertex="1">
          <mxGeometry y="49" width="182" height="26" as="geometry" />
        </mxCell>
        <mxCell id="Xgi3c2Zr5CXY41PrPyP7-3" value="+ display(): void" style="text;strokeColor=light-dark(#000000,#512D2B);fillColor=default;align=left;verticalAlign=top;spacingLeft=4;spacingRight=4;overflow=hidden;rotatable=0;points=[[0,0.5],[1,0.5]];portConstraint=eastwest;whiteSpace=wrap;html=1;" parent="Xgi3c2Zr5CXY41PrPyP7-1" vertex="1">
          <mxGeometry y="75" width="182" height="26" as="geometry" />
        </mxCell>
        <mxCell id="fFfavN8Qj9UDiZofzjUI-25" value="+ GetData()" style="text;strokeColor=light-dark(#000000,#512D2B);fillColor=default;align=left;verticalAlign=top;spacingLeft=4;spacingRight=4;overflow=hidden;rotatable=0;points=[[0,0.5],[1,0.5]];portConstraint=eastwest;whiteSpace=wrap;html=1;" parent="Xgi3c2Zr5CXY41PrPyP7-1" vertex="1">
          <mxGeometry y="101" width="182" height="26" as="geometry" />
        </mxCell>
        <mxCell id="fFfavN8Qj9UDiZofzjUI-26" value="&lt;span style=&quot;text-align: center; text-wrap-mode: nowrap;&quot;&gt;+ MarketplaceButton(): void&lt;/span&gt;" style="text;strokeColor=light-dark(#000000,#512D2B);fillColor=default;align=left;verticalAlign=top;spacingLeft=4;spacingRight=4;overflow=hidden;rotatable=0;points=[[0,0.5],[1,0.5]];portConstraint=eastwest;whiteSpace=wrap;html=1;" parent="Xgi3c2Zr5CXY41PrPyP7-1" vertex="1">
          <mxGeometry y="127" width="182" height="26" as="geometry" />
        </mxCell>
        <mxCell id="fFfavN8Qj9UDiZofzjUI-54" value="&lt;span style=&quot;font-size: 11px; text-align: center; text-wrap-mode: nowrap; background-color: rgb(255, 255, 255);&quot;&gt;+ LoadNotifList()&lt;/span&gt;" style="text;strokeColor=light-dark(#000000,#512D2B);fillColor=default;align=left;verticalAlign=top;spacingLeft=4;spacingRight=4;overflow=hidden;rotatable=0;points=[[0,0.5],[1,0.5]];portConstraint=eastwest;whiteSpace=wrap;html=1;" parent="Xgi3c2Zr5CXY41PrPyP7-1" vertex="1">
          <mxGeometry y="153" width="182" height="52" as="geometry" />
        </mxCell>
        <mxCell id="fFfavN8Qj9UDiZofzjUI-110" value="&lt;span style=&quot;text-align: center; text-wrap-mode: nowrap;&quot;&gt;+&amp;nbsp;&lt;/span&gt;&lt;span style=&quot;text-align: center; text-wrap-mode: nowrap;&quot;&gt;NotificationButton()&lt;/span&gt;&lt;span style=&quot;text-align: center; text-wrap-mode: nowrap;&quot;&gt;: void&lt;/span&gt;" style="text;strokeColor=light-dark(#000000,#512D2B);fillColor=default;align=left;verticalAlign=top;spacingLeft=4;spacingRight=4;overflow=hidden;rotatable=0;points=[[0,0.5],[1,0.5]];portConstraint=eastwest;whiteSpace=wrap;html=1;" parent="Xgi3c2Zr5CXY41PrPyP7-1" vertex="1">
          <mxGeometry y="179" width="182" height="26" as="geometry" />
        </mxCell>
        <mxCell id="fFfavN8Qj9UDiZofzjUI-127" value="&lt;span style=&quot;text-align: center; text-wrap-mode: nowrap;&quot;&gt;+ ManMaint&lt;/span&gt;&lt;span style=&quot;text-align: center; text-wrap-mode: nowrap;&quot;&gt;Button()&lt;/span&gt;&lt;span style=&quot;text-align: center; text-wrap-mode: nowrap;&quot;&gt;: void&lt;/span&gt;" style="text;strokeColor=light-dark(#000000,#512D2B);fillColor=default;align=left;verticalAlign=top;spacingLeft=4;spacingRight=4;overflow=hidden;rotatable=0;points=[[0,0.5],[1,0.5]];portConstraint=eastwest;whiteSpace=wrap;html=1;" parent="Xgi3c2Zr5CXY41PrPyP7-1" vertex="1">
          <mxGeometry y="205" width="182" height="26" as="geometry" />
        </mxCell>
        <mxCell id="NC2ROmlTRWlXnc3KLNzw-1" value="&lt;span style=&quot;text-align: center; text-wrap-mode: nowrap;&quot;&gt;+ ManageMaint(): void&lt;/span&gt;" style="text;strokeColor=light-dark(#000000,#512D2B);fillColor=default;align=left;verticalAlign=top;spacingLeft=4;spacingRight=4;overflow=hidden;rotatable=0;points=[[0,0.5],[1,0.5]];portConstraint=eastwest;whiteSpace=wrap;html=1;" vertex="1" parent="Xgi3c2Zr5CXY41PrPyP7-1">
          <mxGeometry y="231" width="182" height="26" as="geometry" />
        </mxCell>
        <mxCell id="Xgi3c2Zr5CXY41PrPyP7-4" value="TenAp_Mngr_Scr" style="swimlane;whiteSpace=wrap;html=1;fillColor=#f8cecc;strokeColor=#b85450;startSize=23;" parent="1" vertex="1">
          <mxGeometry x="-182" y="-531" width="182" height="76" as="geometry" />
        </mxCell>
        <mxCell id="Xgi3c2Zr5CXY41PrPyP7-6" value="+ display(): void" style="text;strokeColor=light-dark(#000000,#512D2B);fillColor=default;align=left;verticalAlign=top;spacingLeft=4;spacingRight=4;overflow=hidden;rotatable=0;points=[[0,0.5],[1,0.5]];portConstraint=eastwest;whiteSpace=wrap;html=1;" parent="Xgi3c2Zr5CXY41PrPyP7-4" vertex="1">
          <mxGeometry y="23" width="181" height="26" as="geometry" />
        </mxCell>
        <mxCell id="Xgi3c2Zr5CXY41PrPyP7-7" value="+ removeButton(): void" style="text;strokeColor=light-dark(#000000,#512D2B);fillColor=default;align=left;verticalAlign=top;spacingLeft=4;spacingRight=4;overflow=hidden;rotatable=0;points=[[0,0.5],[1,0.5]];portConstraint=eastwest;whiteSpace=wrap;html=1;" parent="Xgi3c2Zr5CXY41PrPyP7-4" vertex="1">
          <mxGeometry y="49" width="181" height="26" as="geometry" />
        </mxCell>
        <mxCell id="Xgi3c2Zr5CXY41PrPyP7-9" value="" style="endArrow=none;html=1;rounded=0;entryX=0;entryY=0.5;entryDx=0;entryDy=0;exitX=1;exitY=0.5;exitDx=0;exitDy=0;" parent="1" source="Xgi3c2Zr5CXY41PrPyP7-1" target="Xgi3c2Zr5CXY41PrPyP7-4" edge="1">
          <mxGeometry width="50" height="50" relative="1" as="geometry">
            <mxPoint x="-102" y="-358" as="sourcePoint" />
            <mxPoint x="-52" y="-408" as="targetPoint" />
          </mxGeometry>
        </mxCell>
        <mxCell id="Xgi3c2Zr5CXY41PrPyP7-10" value="" style="endArrow=none;html=1;rounded=0;exitX=0.5;exitY=1;exitDx=0;exitDy=0;entryX=0.5;entryY=0;entryDx=0;entryDy=0;" parent="1" source="Xgi3c2Zr5CXY41PrPyP7-16" target="SSVQXBcXOp7XfPBqwCCu-7" edge="1">
          <mxGeometry width="50" height="50" relative="1" as="geometry">
            <mxPoint x="185" y="-593" as="sourcePoint" />
            <mxPoint x="-15" y="-212" as="targetPoint" />
          </mxGeometry>
        </mxCell>
        <mxCell id="Xgi3c2Zr5CXY41PrPyP7-12" value="Tnt_List_Scr" style="swimlane;whiteSpace=wrap;html=1;fillColor=#f8cecc;strokeColor=#b85450;startSize=23;" parent="1" vertex="1">
          <mxGeometry x="-615" y="-128" width="182" height="74" as="geometry" />
        </mxCell>
        <mxCell id="Xgi3c2Zr5CXY41PrPyP7-13" value="+ display(): void" style="text;strokeColor=light-dark(#000000,#512D2B);fillColor=default;align=left;verticalAlign=top;spacingLeft=4;spacingRight=4;overflow=hidden;rotatable=0;points=[[0,0.5],[1,0.5]];portConstraint=eastwest;whiteSpace=wrap;html=1;" parent="Xgi3c2Zr5CXY41PrPyP7-12" vertex="1">
          <mxGeometry y="23" width="181" height="26" as="geometry" />
        </mxCell>
        <mxCell id="Xgi3c2Zr5CXY41PrPyP7-14" value="+ confirm(): void" style="text;strokeColor=light-dark(#000000,#512D2B);fillColor=default;align=left;verticalAlign=top;spacingLeft=4;spacingRight=4;overflow=hidden;rotatable=0;points=[[0,0.5],[1,0.5]];portConstraint=eastwest;whiteSpace=wrap;html=1;" parent="Xgi3c2Zr5CXY41PrPyP7-12" vertex="1">
          <mxGeometry y="49" width="181" height="26" as="geometry" />
        </mxCell>
        <mxCell id="Xgi3c2Zr5CXY41PrPyP7-16" value="Manage_1" style="swimlane;whiteSpace=wrap;html=1;fillColor=#f8cecc;strokeColor=#b85450;startSize=23;" parent="1" vertex="1">
          <mxGeometry x="-160" y="-399" width="182" height="154" as="geometry" />
        </mxCell>
        <mxCell id="Xgi3c2Zr5CXY41PrPyP7-17" value="+ queryTenant()" style="text;strokeColor=light-dark(#000000,#512D2B);fillColor=default;align=left;verticalAlign=top;spacingLeft=4;spacingRight=4;overflow=hidden;rotatable=0;points=[[0,0.5],[1,0.5]];portConstraint=eastwest;whiteSpace=wrap;html=1;" parent="Xgi3c2Zr5CXY41PrPyP7-16" vertex="1">
          <mxGeometry y="23" width="181" height="26" as="geometry" />
        </mxCell>
        <mxCell id="Xgi3c2Zr5CXY41PrPyP7-18" value="+ showResults()" style="text;strokeColor=light-dark(#000000,#512D2B);fillColor=default;align=left;verticalAlign=top;spacingLeft=4;spacingRight=4;overflow=hidden;rotatable=0;points=[[0,0.5],[1,0.5]];portConstraint=eastwest;whiteSpace=wrap;html=1;" parent="Xgi3c2Zr5CXY41PrPyP7-16" vertex="1">
          <mxGeometry y="49" width="181" height="26" as="geometry" />
        </mxCell>
        <mxCell id="Xgi3c2Zr5CXY41PrPyP7-19" value="+ deleteTenant(): void" style="text;strokeColor=light-dark(#000000,#512D2B);fillColor=default;align=left;verticalAlign=top;spacingLeft=4;spacingRight=4;overflow=hidden;rotatable=0;points=[[0,0.5],[1,0.5]];portConstraint=eastwest;whiteSpace=wrap;html=1;" parent="Xgi3c2Zr5CXY41PrPyP7-16" vertex="1">
          <mxGeometry x="1" y="75" width="181" height="26" as="geometry" />
        </mxCell>
        <mxCell id="Xgi3c2Zr5CXY41PrPyP7-20" value="+ createTenant(): void" style="text;strokeColor=light-dark(#000000,#512D2B);fillColor=default;align=left;verticalAlign=top;spacingLeft=4;spacingRight=4;overflow=hidden;rotatable=0;points=[[0,0.5],[1,0.5]];portConstraint=eastwest;whiteSpace=wrap;html=1;" parent="Xgi3c2Zr5CXY41PrPyP7-16" vertex="1">
          <mxGeometry x="0.5" y="101" width="181" height="26" as="geometry" />
        </mxCell>
        <mxCell id="Xgi3c2Zr5CXY41PrPyP7-22" value="+ getOwner()" style="text;strokeColor=light-dark(#000000,#512D2B);fillColor=default;align=left;verticalAlign=top;spacingLeft=4;spacingRight=4;overflow=hidden;rotatable=0;points=[[0,0.5],[1,0.5]];portConstraint=eastwest;whiteSpace=wrap;html=1;" parent="Xgi3c2Zr5CXY41PrPyP7-16" vertex="1">
          <mxGeometry x="1" y="127" width="181" height="26" as="geometry" />
        </mxCell>
        <mxCell id="Xgi3c2Zr5CXY41PrPyP7-24" value="NewTnt_Add_Scr" style="swimlane;whiteSpace=wrap;html=1;fillColor=#f8cecc;strokeColor=#b85450;startSize=23;" parent="1" vertex="1">
          <mxGeometry x="83" y="-399" width="182" height="133" as="geometry" />
        </mxCell>
        <mxCell id="Xgi3c2Zr5CXY41PrPyP7-25" value="+ display(): void" style="text;strokeColor=light-dark(#000000,#512D2B);fillColor=default;align=left;verticalAlign=top;spacingLeft=4;spacingRight=4;overflow=hidden;rotatable=0;points=[[0,0.5],[1,0.5]];portConstraint=eastwest;whiteSpace=wrap;html=1;" parent="Xgi3c2Zr5CXY41PrPyP7-24" vertex="1">
          <mxGeometry y="23" width="181" height="26" as="geometry" />
        </mxCell>
        <mxCell id="Xgi3c2Zr5CXY41PrPyP7-26" value="+ confirm(): void" style="text;strokeColor=light-dark(#000000,#512D2B);fillColor=default;align=left;verticalAlign=top;spacingLeft=4;spacingRight=4;overflow=hidden;rotatable=0;points=[[0,0.5],[1,0.5]];portConstraint=eastwest;whiteSpace=wrap;html=1;" parent="Xgi3c2Zr5CXY41PrPyP7-24" vertex="1">
          <mxGeometry y="49" width="181" height="26" as="geometry" />
        </mxCell>
        <mxCell id="Xgi3c2Zr5CXY41PrPyP7-27" value="+ checkForm(): void" style="text;strokeColor=light-dark(#000000,#512D2B);fillColor=default;align=left;verticalAlign=top;spacingLeft=4;spacingRight=4;overflow=hidden;rotatable=0;points=[[0,0.5],[1,0.5]];portConstraint=eastwest;whiteSpace=wrap;html=1;" parent="Xgi3c2Zr5CXY41PrPyP7-24" vertex="1">
          <mxGeometry y="75" width="181" height="29" as="geometry" />
        </mxCell>
        <mxCell id="Xgi3c2Zr5CXY41PrPyP7-29" value="+ sendTntInfo(): void" style="text;strokeColor=light-dark(#000000,#512D2B);fillColor=default;align=left;verticalAlign=top;spacingLeft=4;spacingRight=4;overflow=hidden;rotatable=0;points=[[0,0.5],[1,0.5]];portConstraint=eastwest;whiteSpace=wrap;html=1;" parent="Xgi3c2Zr5CXY41PrPyP7-24" vertex="1">
          <mxGeometry x="1" y="104" width="181" height="29" as="geometry" />
        </mxCell>
        <mxCell id="Xgi3c2Zr5CXY41PrPyP7-40" value="" style="endArrow=none;html=1;rounded=0;entryX=0.5;entryY=0;entryDx=0;entryDy=0;exitX=0.5;exitY=1;exitDx=0;exitDy=0;" parent="1" source="Xgi3c2Zr5CXY41PrPyP7-4" target="Xgi3c2Zr5CXY41PrPyP7-16" edge="1">
          <mxGeometry width="50" height="50" relative="1" as="geometry">
            <mxPoint x="195" y="-583" as="sourcePoint" />
            <mxPoint x="330" y="-554" as="targetPoint" />
          </mxGeometry>
        </mxCell>
        <mxCell id="Xgi3c2Zr5CXY41PrPyP7-41" value="" style="endArrow=none;html=1;rounded=0;entryX=0;entryY=0.5;entryDx=0;entryDy=0;exitX=1;exitY=0.5;exitDx=0;exitDy=0;" parent="1" source="Xgi3c2Zr5CXY41PrPyP7-16" target="Xgi3c2Zr5CXY41PrPyP7-24" edge="1">
          <mxGeometry width="50" height="50" relative="1" as="geometry">
            <mxPoint x="205" y="-573" as="sourcePoint" />
            <mxPoint x="340" y="-544" as="targetPoint" />
          </mxGeometry>
        </mxCell>
        <mxCell id="Xgi3c2Zr5CXY41PrPyP7-42" value="" style="endArrow=none;html=1;rounded=0;entryX=0;entryY=0.25;entryDx=0;entryDy=0;exitX=0.75;exitY=0;exitDx=0;exitDy=0;" parent="1" source="Xgi3c2Zr5CXY41PrPyP7-12" target="Xgi3c2Zr5CXY41PrPyP7-16" edge="1">
          <mxGeometry width="50" height="50" relative="1" as="geometry">
            <mxPoint x="-167" y="-493" as="sourcePoint" />
            <mxPoint x="-32" y="-464" as="targetPoint" />
          </mxGeometry>
        </mxCell>
        <mxCell id="Xgi3c2Zr5CXY41PrPyP7-63" value="&lt;span style=&quot;font-weight: 700;&quot;&gt;ManageReceiptClass&lt;/span&gt;" style="swimlane;fontStyle=0;childLayout=stackLayout;horizontal=1;startSize=26;fillColor=#f8cecc;horizontalStack=0;resizeParent=1;resizeParentMax=0;resizeLast=0;collapsible=1;marginBottom=0;whiteSpace=wrap;html=1;strokeColor=#b85450;" parent="1" vertex="1">
          <mxGeometry x="-1453" y="-651" width="240" height="104" as="geometry" />
        </mxCell>
        <mxCell id="Xgi3c2Zr5CXY41PrPyP7-64" value="+ queryReceiptList()" style="text;strokeColor=light-dark(#000000,#512D2B);fillColor=default;align=left;verticalAlign=top;spacingLeft=4;spacingRight=4;overflow=hidden;rotatable=0;points=[[0,0.5],[1,0.5]];portConstraint=eastwest;whiteSpace=wrap;html=1;" parent="Xgi3c2Zr5CXY41PrPyP7-63" vertex="1">
          <mxGeometry y="26" width="240" height="26" as="geometry" />
        </mxCell>
        <mxCell id="Xgi3c2Zr5CXY41PrPyP7-65" value="+ updateReceiptList(): void" style="text;strokeColor=light-dark(#000000,#512D2B);fillColor=default;align=left;verticalAlign=top;spacingLeft=4;spacingRight=4;overflow=hidden;rotatable=0;points=[[0,0.5],[1,0.5]];portConstraint=eastwest;whiteSpace=wrap;html=1;" parent="Xgi3c2Zr5CXY41PrPyP7-63" vertex="1">
          <mxGeometry y="52" width="240" height="26" as="geometry" />
        </mxCell>
        <mxCell id="Xgi3c2Zr5CXY41PrPyP7-68" value="+ showReceiptList(): void" style="text;strokeColor=light-dark(#000000,#512D2B);fillColor=default;align=left;verticalAlign=top;spacingLeft=4;spacingRight=4;overflow=hidden;rotatable=0;points=[[0,0.5],[1,0.5]];portConstraint=eastwest;whiteSpace=wrap;html=1;" parent="Xgi3c2Zr5CXY41PrPyP7-63" vertex="1">
          <mxGeometry y="78" width="240" height="26" as="geometry" />
        </mxCell>
        <mxCell id="Xgi3c2Zr5CXY41PrPyP7-76" value="&lt;span style=&quot;font-weight: 700;&quot;&gt;ManageComChargesClass&lt;/span&gt;" style="swimlane;fontStyle=0;childLayout=stackLayout;horizontal=1;startSize=26;fillColor=light-dark(#F8CECC,#512D2B);horizontalStack=0;resizeParent=1;resizeParentMax=0;resizeLast=0;collapsible=1;marginBottom=0;whiteSpace=wrap;html=1;strokeColor=light-dark(#000000,#512D2B);" parent="1" vertex="1">
          <mxGeometry x="-1402" y="-925" width="240" height="104" as="geometry" />
        </mxCell>
        <mxCell id="Xgi3c2Zr5CXY41PrPyP7-77" value="+ getReceiptAmount()" style="text;strokeColor=light-dark(#000000,#512D2B);fillColor=default;align=left;verticalAlign=top;spacingLeft=4;spacingRight=4;overflow=hidden;rotatable=0;points=[[0,0.5],[1,0.5]];portConstraint=eastwest;whiteSpace=wrap;html=1;" parent="Xgi3c2Zr5CXY41PrPyP7-76" vertex="1">
          <mxGeometry y="26" width="240" height="26" as="geometry" />
        </mxCell>
        <mxCell id="Xgi3c2Zr5CXY41PrPyP7-79" value="+&amp;nbsp;&lt;span style=&quot;text-align: center; text-wrap-mode: nowrap;&quot;&gt;calcutateCommonCharges()&lt;/span&gt;" style="text;strokeColor=light-dark(#000000,#512D2B);fillColor=default;align=left;verticalAlign=top;spacingLeft=4;spacingRight=4;overflow=hidden;rotatable=0;points=[[0,0.5],[1,0.5]];portConstraint=eastwest;whiteSpace=wrap;html=1;" parent="Xgi3c2Zr5CXY41PrPyP7-76" vertex="1">
          <mxGeometry y="52" width="240" height="26" as="geometry" />
        </mxCell>
        <mxCell id="Xgi3c2Zr5CXY41PrPyP7-78" value="+displayResults()" style="text;strokeColor=light-dark(#000000,#512D2B);fillColor=default;align=left;verticalAlign=top;spacingLeft=4;spacingRight=4;overflow=hidden;rotatable=0;points=[[0,0.5],[1,0.5]];portConstraint=eastwest;whiteSpace=wrap;html=1;" parent="Xgi3c2Zr5CXY41PrPyP7-76" vertex="1">
          <mxGeometry y="78" width="240" height="26" as="geometry" />
        </mxCell>
        <mxCell id="A4ytLpyYW0x4aZFAdD2v-1" value="" style="endArrow=none;html=1;rounded=0;entryX=0;entryY=0.75;entryDx=0;entryDy=0;exitX=1;exitY=0;exitDx=0;exitDy=0;" parent="1" source="5aScD9VIwKOivwd3Amo--35" target="Xgi3c2Zr5CXY41PrPyP7-1" edge="1">
          <mxGeometry width="50" height="50" relative="1" as="geometry">
            <mxPoint x="-519" y="-290" as="sourcePoint" />
            <mxPoint x="-450" y="-290" as="targetPoint" />
          </mxGeometry>
        </mxCell>
        <mxCell id="A4ytLpyYW0x4aZFAdD2v-5" value="" style="endArrow=none;html=1;rounded=0;entryX=0;entryY=0.5;entryDx=0;entryDy=0;exitX=1;exitY=0.5;exitDx=0;exitDy=0;" parent="1" source="Xgi3c2Zr5CXY41PrPyP7-63" target="Xgi3c2Zr5CXY41PrPyP7-51" edge="1">
          <mxGeometry width="50" height="50" relative="1" as="geometry">
            <mxPoint x="-850" y="-88" as="sourcePoint" />
            <mxPoint x="-232" y="-482" as="targetPoint" />
          </mxGeometry>
        </mxCell>
        <mxCell id="A4ytLpyYW0x4aZFAdD2v-6" value="" style="endArrow=none;html=1;rounded=0;exitX=0.25;exitY=1;exitDx=0;exitDy=0;entryX=0.75;entryY=0;entryDx=0;entryDy=0;" parent="1" source="Xgi3c2Zr5CXY41PrPyP7-63" target="5aScD9VIwKOivwd3Amo--35" edge="1">
          <mxGeometry width="50" height="50" relative="1" as="geometry">
            <mxPoint x="-707" y="-97" as="sourcePoint" />
            <mxPoint x="-480" y="-350" as="targetPoint" />
          </mxGeometry>
        </mxCell>
        <mxCell id="A4ytLpyYW0x4aZFAdD2v-7" value="" style="endArrow=none;html=1;rounded=0;exitX=0.489;exitY=1.058;exitDx=0;exitDy=0;exitPerimeter=0;entryX=0.5;entryY=0;entryDx=0;entryDy=0;" parent="1" source="Xgi3c2Zr5CXY41PrPyP7-68" target="SSVQXBcXOp7XfPBqwCCu-11" edge="1">
          <mxGeometry width="50" height="50" relative="1" as="geometry">
            <mxPoint x="-588" y="-226" as="sourcePoint" />
            <mxPoint x="-864" y="-45" as="targetPoint" />
          </mxGeometry>
        </mxCell>
        <mxCell id="A4ytLpyYW0x4aZFAdD2v-8" value="" style="endArrow=none;html=1;rounded=0;exitX=0.25;exitY=1;exitDx=0;exitDy=0;entryX=0.5;entryY=0;entryDx=0;entryDy=0;" parent="1" source="Xgi3c2Zr5CXY41PrPyP7-76" target="Xgi3c2Zr5CXY41PrPyP7-63" edge="1">
          <mxGeometry width="50" height="50" relative="1" as="geometry">
            <mxPoint x="-613" y="-494" as="sourcePoint" />
            <mxPoint x="-705" y="-351" as="targetPoint" />
          </mxGeometry>
        </mxCell>
        <mxCell id="A4ytLpyYW0x4aZFAdD2v-9" value="" style="endArrow=none;html=1;rounded=0;exitX=1;exitY=0.5;exitDx=0;exitDy=0;entryX=0;entryY=0.5;entryDx=0;entryDy=0;" parent="1" source="Xgi3c2Zr5CXY41PrPyP7-74" target="Xgi3c2Zr5CXY41PrPyP7-76" edge="1">
          <mxGeometry width="50" height="50" relative="1" as="geometry">
            <mxPoint x="-953" y="-278" as="sourcePoint" />
            <mxPoint x="-1045" y="-135" as="targetPoint" />
          </mxGeometry>
        </mxCell>
        <mxCell id="A4ytLpyYW0x4aZFAdD2v-10" value="" style="endArrow=none;html=1;rounded=0;exitX=0.5;exitY=1;exitDx=0;exitDy=0;entryX=0.5;entryY=0;entryDx=0;entryDy=0;" parent="1" source="5aScD9VIwKOivwd3Amo--19" target="5aScD9VIwKOivwd3Amo--31" edge="1">
          <mxGeometry width="50" height="50" relative="1" as="geometry">
            <mxPoint x="-943" y="-268" as="sourcePoint" />
            <mxPoint x="-1035" y="-125" as="targetPoint" />
          </mxGeometry>
        </mxCell>
        <mxCell id="A4ytLpyYW0x4aZFAdD2v-11" value="" style="endArrow=none;html=1;rounded=0;exitX=0;exitY=1;exitDx=0;exitDy=0;entryX=0.75;entryY=0;entryDx=0;entryDy=0;" parent="1" source="Xgi3c2Zr5CXY41PrPyP7-76" target="5aScD9VIwKOivwd3Amo--31" edge="1">
          <mxGeometry width="50" height="50" relative="1" as="geometry">
            <mxPoint x="-933" y="-258" as="sourcePoint" />
            <mxPoint x="-1025" y="-115" as="targetPoint" />
          </mxGeometry>
        </mxCell>
        <mxCell id="A4ytLpyYW0x4aZFAdD2v-12" value="" style="endArrow=none;html=1;rounded=0;entryX=0;entryY=0;entryDx=0;entryDy=0;exitX=1;exitY=1;exitDx=0;exitDy=0;" parent="1" source="5aScD9VIwKOivwd3Amo--31" target="SSVQXBcXOp7XfPBqwCCu-6" edge="1">
          <mxGeometry width="50" height="50" relative="1" as="geometry">
            <mxPoint x="-1177" y="-444" as="sourcePoint" />
            <mxPoint x="-1015" y="-105" as="targetPoint" />
          </mxGeometry>
        </mxCell>
        <mxCell id="A4ytLpyYW0x4aZFAdD2v-13" value="&lt;span style=&quot;text-wrap-mode: nowrap;&quot;&gt;&lt;b&gt;ManageNotification&lt;/b&gt;&lt;/span&gt;" style="swimlane;fontStyle=0;childLayout=stackLayout;horizontal=1;startSize=26;fillColor=#f8cecc;horizontalStack=0;resizeParent=1;resizeParentMax=0;resizeLast=0;collapsible=1;marginBottom=0;whiteSpace=wrap;html=1;strokeColor=#b85450;" parent="1" vertex="1">
          <mxGeometry x="-1476" y="86" width="205" height="57" as="geometry" />
        </mxCell>
        <mxCell id="A4ytLpyYW0x4aZFAdD2v-16" value="&lt;span style=&quot;text-align: center; text-wrap-mode: nowrap;&quot;&gt;+displayNotifications()&lt;/span&gt;" style="text;strokeColor=light-dark(#000000,#512D2B);fillColor=default;align=left;verticalAlign=top;spacingLeft=4;spacingRight=4;overflow=hidden;rotatable=0;points=[[0,0.5],[1,0.5]];portConstraint=eastwest;whiteSpace=wrap;html=1;" parent="A4ytLpyYW0x4aZFAdD2v-13" vertex="1">
          <mxGeometry y="26" width="205" height="31" as="geometry" />
        </mxCell>
        <mxCell id="A4ytLpyYW0x4aZFAdD2v-14" value="" style="text;strokeColor=light-dark(#000000,#512D2B);fillColor=default;align=left;verticalAlign=top;spacingLeft=4;spacingRight=4;overflow=hidden;rotatable=0;points=[[0,0.5],[1,0.5]];portConstraint=eastwest;whiteSpace=wrap;html=1;" parent="A4ytLpyYW0x4aZFAdD2v-13" vertex="1">
          <mxGeometry y="57" width="205" as="geometry" />
        </mxCell>
        <mxCell id="A4ytLpyYW0x4aZFAdD2v-17" value="" style="endArrow=none;html=1;rounded=0;exitX=0;exitY=0.5;exitDx=0;exitDy=0;entryX=1;entryY=0.5;entryDx=0;entryDy=0;" parent="1" source="cASRyqBLn2ZBMr_rPm0i-9" target="A4ytLpyYW0x4aZFAdD2v-13" edge="1">
          <mxGeometry width="50" height="50" relative="1" as="geometry">
            <mxPoint x="-860" y="-142" as="sourcePoint" />
            <mxPoint x="-1049" y="5" as="targetPoint" />
          </mxGeometry>
        </mxCell>
        <mxCell id="A4ytLpyYW0x4aZFAdD2v-18" value="" style="endArrow=none;html=1;rounded=0;exitX=0.5;exitY=0;exitDx=0;exitDy=0;entryX=0.5;entryY=1;entryDx=0;entryDy=0;" parent="1" source="5aScD9VIwKOivwd3Amo--43" target="A4ytLpyYW0x4aZFAdD2v-13" edge="1">
          <mxGeometry width="50" height="50" relative="1" as="geometry">
            <mxPoint x="-1142" y="273" as="sourcePoint" />
            <mxPoint x="-1317" y="231" as="targetPoint" />
          </mxGeometry>
        </mxCell>
        <mxCell id="fFfavN8Qj9UDiZofzjUI-1" value="Mng_Poll_Scr" style="swimlane;whiteSpace=wrap;html=1;fillColor=#f8cecc;strokeColor=#b85450;startSize=23;" parent="1" vertex="1">
          <mxGeometry x="330" y="113" width="190" height="204.5" as="geometry" />
        </mxCell>
        <mxCell id="fFfavN8Qj9UDiZofzjUI-2" value="+ display(): void" style="text;strokeColor=light-dark(#000000,#512D2B);fillColor=default;align=left;verticalAlign=top;spacingLeft=4;spacingRight=4;overflow=hidden;rotatable=0;points=[[0,0.5],[1,0.5]];portConstraint=eastwest;whiteSpace=wrap;html=1;" parent="fFfavN8Qj9UDiZofzjUI-1" vertex="1">
          <mxGeometry y="23" width="190" height="26" as="geometry" />
        </mxCell>
        <mxCell id="fFfavN8Qj9UDiZofzjUI-5" value="&lt;span style=&quot;text-align: center; text-wrap-mode: nowrap;&quot;&gt;+ sendFormData(): void&lt;/span&gt;" style="text;strokeColor=light-dark(#000000,#512D2B);fillColor=default;align=left;verticalAlign=top;spacingLeft=4;spacingRight=4;overflow=hidden;rotatable=0;points=[[0,0.5],[1,0.5]];portConstraint=eastwest;whiteSpace=wrap;html=1;" parent="fFfavN8Qj9UDiZofzjUI-1" vertex="1">
          <mxGeometry y="49" width="190" height="26" as="geometry" />
        </mxCell>
        <mxCell id="fFfavN8Qj9UDiZofzjUI-6" value="&lt;span style=&quot;text-align: center; text-wrap-mode: nowrap;&quot;&gt;+ IncorrectFormMessage(): void&lt;/span&gt;" style="text;strokeColor=light-dark(#000000,#512D2B);fillColor=default;align=left;verticalAlign=top;spacingLeft=4;spacingRight=4;overflow=hidden;rotatable=0;points=[[0,0.5],[1,0.5]];portConstraint=eastwest;whiteSpace=wrap;html=1;" parent="fFfavN8Qj9UDiZofzjUI-1" vertex="1">
          <mxGeometry y="75" width="190" height="26" as="geometry" />
        </mxCell>
        <mxCell id="fFfavN8Qj9UDiZofzjUI-3" value="&lt;span style=&quot;text-align: center; text-wrap-mode: nowrap;&quot;&gt;+ CheckData()&lt;/span&gt;" style="text;strokeColor=light-dark(#000000,#512D2B);fillColor=default;align=left;verticalAlign=top;spacingLeft=4;spacingRight=4;overflow=hidden;rotatable=0;points=[[0,0.5],[1,0.5]];portConstraint=eastwest;whiteSpace=wrap;html=1;" parent="fFfavN8Qj9UDiZofzjUI-1" vertex="1">
          <mxGeometry y="101" width="190" height="26" as="geometry" />
        </mxCell>
        <mxCell id="5aScD9VIwKOivwd3Amo--24" value="+ Subject: string" style="text;strokeColor=light-dark(#000000,#512D2B);fillColor=default;align=left;verticalAlign=top;spacingLeft=4;spacingRight=4;overflow=hidden;rotatable=0;points=[[0,0.5],[1,0.5]];portConstraint=eastwest;whiteSpace=wrap;html=1;" parent="fFfavN8Qj9UDiZofzjUI-1" vertex="1">
          <mxGeometry y="127" width="190" height="26" as="geometry" />
        </mxCell>
        <mxCell id="5aScD9VIwKOivwd3Amo--74" value="+ duration: int" style="text;strokeColor=light-dark(#000000,#512D2B);fillColor=default;align=left;verticalAlign=top;spacingLeft=4;spacingRight=4;overflow=hidden;rotatable=0;points=[[0,0.5],[1,0.5]];portConstraint=eastwest;whiteSpace=wrap;html=1;" parent="fFfavN8Qj9UDiZofzjUI-1" vertex="1">
          <mxGeometry y="153" width="190" height="26" as="geometry" />
        </mxCell>
        <mxCell id="5aScD9VIwKOivwd3Amo--25" value="+ answers: string[]" style="text;strokeColor=light-dark(#000000,#512D2B);fillColor=default;align=left;verticalAlign=top;spacingLeft=4;spacingRight=4;overflow=hidden;rotatable=0;points=[[0,0.5],[1,0.5]];portConstraint=eastwest;whiteSpace=wrap;html=1;" parent="fFfavN8Qj9UDiZofzjUI-1" vertex="1">
          <mxGeometry y="179" width="190" height="26" as="geometry" />
        </mxCell>
        <mxCell id="fFfavN8Qj9UDiZofzjUI-8" value="ManagePollClass" style="swimlane;whiteSpace=wrap;html=1;fillColor=#f8cecc;strokeColor=#b85450;startSize=23;" parent="1" vertex="1">
          <mxGeometry x="222" y="-623" width="195" height="180" as="geometry" />
        </mxCell>
        <mxCell id="fFfavN8Qj9UDiZofzjUI-9" value="&lt;span style=&quot;text-align: center; text-wrap-mode: nowrap;&quot;&gt;+ queryPollList()&lt;/span&gt;" style="text;strokeColor=light-dark(#000000,#512D2B);fillColor=default;align=left;verticalAlign=top;spacingLeft=4;spacingRight=4;overflow=hidden;rotatable=0;points=[[0,0.5],[1,0.5]];portConstraint=eastwest;whiteSpace=wrap;html=1;" parent="fFfavN8Qj9UDiZofzjUI-8" vertex="1">
          <mxGeometry x="1" y="23" width="194" height="26" as="geometry" />
        </mxCell>
        <mxCell id="fFfavN8Qj9UDiZofzjUI-10" value="&lt;span style=&quot;text-align: center; text-wrap-mode: nowrap;&quot;&gt;+ displayPollList(): void&lt;/span&gt;" style="text;strokeColor=light-dark(#000000,#512D2B);fillColor=default;align=left;verticalAlign=top;spacingLeft=4;spacingRight=4;overflow=hidden;rotatable=0;points=[[0,0.5],[1,0.5]];portConstraint=eastwest;whiteSpace=wrap;html=1;" parent="fFfavN8Qj9UDiZofzjUI-8" vertex="1">
          <mxGeometry x="1" y="49" width="194" height="26" as="geometry" />
        </mxCell>
        <mxCell id="fFfavN8Qj9UDiZofzjUI-11" value="&lt;span style=&quot;font-size: 11px; text-align: center; text-wrap-mode: nowrap; background-color: rgb(255, 255, 255);&quot;&gt;+ UpdatePollList(): void&lt;/span&gt;" style="text;strokeColor=light-dark(#000000,#512D2B);fillColor=default;align=left;verticalAlign=top;spacingLeft=4;spacingRight=4;overflow=hidden;rotatable=0;points=[[0,0.5],[1,0.5]];portConstraint=eastwest;whiteSpace=wrap;html=1;" parent="fFfavN8Qj9UDiZofzjUI-8" vertex="1">
          <mxGeometry x="1" y="75" width="194" height="26" as="geometry" />
        </mxCell>
        <mxCell id="fFfavN8Qj9UDiZofzjUI-12" value="&lt;span style=&quot;text-align: center; text-wrap-mode: nowrap;&quot;&gt;+ calculatePercentage()&lt;/span&gt;" style="text;strokeColor=light-dark(#000000,#512D2B);fillColor=default;align=left;verticalAlign=top;spacingLeft=4;spacingRight=4;overflow=hidden;rotatable=0;points=[[0,0.5],[1,0.5]];portConstraint=eastwest;whiteSpace=wrap;html=1;" parent="fFfavN8Qj9UDiZofzjUI-8" vertex="1">
          <mxGeometry x="1" y="101" width="194" height="26" as="geometry" />
        </mxCell>
        <mxCell id="fFfavN8Qj9UDiZofzjUI-13" value="&lt;span style=&quot;text-align: center; text-wrap-mode: nowrap;&quot;&gt;+ displayResultsToTenant(): void&lt;/span&gt;" style="text;strokeColor=light-dark(#000000,#512D2B);fillColor=default;align=left;verticalAlign=top;spacingLeft=4;spacingRight=4;overflow=hidden;rotatable=0;points=[[0,0.5],[1,0.5]];portConstraint=eastwest;whiteSpace=wrap;html=1;" parent="fFfavN8Qj9UDiZofzjUI-8" vertex="1">
          <mxGeometry x="1" y="127" width="194" height="26" as="geometry" />
        </mxCell>
        <mxCell id="fFfavN8Qj9UDiZofzjUI-14" value="&lt;span style=&quot;text-align: center; text-wrap-mode: nowrap;&quot;&gt;+ displayResultsToManager(): void&lt;/span&gt;" style="text;strokeColor=light-dark(#000000,#512D2B);fillColor=default;align=left;verticalAlign=top;spacingLeft=4;spacingRight=4;overflow=hidden;rotatable=0;points=[[0,0.5],[1,0.5]];portConstraint=eastwest;whiteSpace=wrap;html=1;" parent="fFfavN8Qj9UDiZofzjUI-8" vertex="1">
          <mxGeometry x="1" y="153" width="194" height="26" as="geometry" />
        </mxCell>
        <mxCell id="fFfavN8Qj9UDiZofzjUI-15" value="" style="endArrow=none;html=1;rounded=0;entryX=0;entryY=0.25;entryDx=0;entryDy=0;exitX=0.5;exitY=1;exitDx=0;exitDy=0;" parent="1" source="Xgi3c2Zr5CXY41PrPyP7-1" target="fFfavN8Qj9UDiZofzjUI-1" edge="1">
          <mxGeometry width="50" height="50" relative="1" as="geometry">
            <mxPoint x="-360" y="-258" as="sourcePoint" />
            <mxPoint x="-172" y="-322" as="targetPoint" />
          </mxGeometry>
        </mxCell>
        <mxCell id="fFfavN8Qj9UDiZofzjUI-17" value="" style="endArrow=none;html=1;rounded=0;exitX=0.75;exitY=0;exitDx=0;exitDy=0;" parent="1" source="fFfavN8Qj9UDiZofzjUI-1" edge="1">
          <mxGeometry width="50" height="50" relative="1" as="geometry">
            <mxPoint x="-360" y="-258" as="sourcePoint" />
            <mxPoint x="407" y="-440" as="targetPoint" />
          </mxGeometry>
        </mxCell>
        <mxCell id="fFfavN8Qj9UDiZofzjUI-18" value="" style="endArrow=none;html=1;rounded=0;entryX=0.75;entryY=1;entryDx=0;entryDy=0;exitX=0.75;exitY=0;exitDx=0;exitDy=0;" parent="1" source="SSVQXBcXOp7XfPBqwCCu-5" target="fFfavN8Qj9UDiZofzjUI-8" edge="1">
          <mxGeometry width="50" height="50" relative="1" as="geometry">
            <mxPoint x="-10" y="223" as="sourcePoint" />
            <mxPoint x="285" y="34" as="targetPoint" />
          </mxGeometry>
        </mxCell>
        <mxCell id="fFfavN8Qj9UDiZofzjUI-20" value="" style="endArrow=none;html=1;rounded=0;entryX=0.5;entryY=1;entryDx=0;entryDy=0;exitX=1;exitY=0;exitDx=0;exitDy=0;" parent="1" source="5aScD9VIwKOivwd3Amo--39" target="fFfavN8Qj9UDiZofzjUI-8" edge="1">
          <mxGeometry width="50" height="50" relative="1" as="geometry">
            <mxPoint x="139" y="193" as="sourcePoint" />
            <mxPoint x="378" y="-433" as="targetPoint" />
          </mxGeometry>
        </mxCell>
        <mxCell id="fFfavN8Qj9UDiZofzjUI-21" value="" style="endArrow=none;html=1;rounded=0;entryX=0;entryY=1;entryDx=0;entryDy=0;exitX=1;exitY=1;exitDx=0;exitDy=0;" parent="1" source="5aScD9VIwKOivwd3Amo--43" target="5aScD9VIwKOivwd3Amo--39" edge="1">
          <mxGeometry width="50" height="50" relative="1" as="geometry">
            <mxPoint x="207" y="319" as="sourcePoint" />
            <mxPoint x="330" y="-433" as="targetPoint" />
          </mxGeometry>
        </mxCell>
        <mxCell id="fFfavN8Qj9UDiZofzjUI-22" value="Manage_&lt;span style=&quot;background-color: transparent; color: light-dark(rgb(0, 0, 0), rgb(255, 255, 255));&quot;&gt;Markt_Class&lt;/span&gt;" style="swimlane;whiteSpace=wrap;html=1;fillColor=#f8cecc;strokeColor=#b85450;startSize=23;" parent="1" vertex="1">
          <mxGeometry x="-398" y="-697" width="182" height="153" as="geometry" />
        </mxCell>
        <mxCell id="fFfavN8Qj9UDiZofzjUI-23" value="&lt;span style=&quot;text-align: center; text-wrap-mode: nowrap;&quot;&gt;+ SearchQuery()&lt;/span&gt;" style="text;strokeColor=light-dark(#000000,#512D2B);fillColor=default;align=left;verticalAlign=top;spacingLeft=4;spacingRight=4;overflow=hidden;rotatable=0;points=[[0,0.5],[1,0.5]];portConstraint=eastwest;whiteSpace=wrap;html=1;" parent="fFfavN8Qj9UDiZofzjUI-22" vertex="1">
          <mxGeometry y="23" width="182" height="26" as="geometry" />
        </mxCell>
        <mxCell id="fFfavN8Qj9UDiZofzjUI-24" value="&lt;span style=&quot;text-align: center; text-wrap-mode: nowrap;&quot;&gt;+ ShowResults()&lt;/span&gt;" style="text;strokeColor=light-dark(#000000,#512D2B);fillColor=default;align=left;verticalAlign=top;spacingLeft=4;spacingRight=4;overflow=hidden;rotatable=0;points=[[0,0.5],[1,0.5]];portConstraint=eastwest;whiteSpace=wrap;html=1;" parent="fFfavN8Qj9UDiZofzjUI-22" vertex="1">
          <mxGeometry y="49" width="182" height="26" as="geometry" />
        </mxCell>
        <mxCell id="fFfavN8Qj9UDiZofzjUI-27" value="&lt;span style=&quot;text-align: center; text-wrap-mode: nowrap;&quot;&gt;+ SearchTask()&lt;/span&gt;" style="text;strokeColor=light-dark(#000000,#512D2B);fillColor=default;align=left;verticalAlign=top;spacingLeft=4;spacingRight=4;overflow=hidden;rotatable=0;points=[[0,0.5],[1,0.5]];portConstraint=eastwest;whiteSpace=wrap;html=1;" parent="fFfavN8Qj9UDiZofzjUI-22" vertex="1">
          <mxGeometry y="75" width="182" height="26" as="geometry" />
        </mxCell>
        <mxCell id="fFfavN8Qj9UDiZofzjUI-32" value="&lt;span style=&quot;text-align: center; text-wrap-mode: nowrap;&quot;&gt;+ ShowDetails(): void&lt;/span&gt;" style="text;strokeColor=light-dark(#000000,#512D2B);fillColor=default;align=left;verticalAlign=top;spacingLeft=4;spacingRight=4;overflow=hidden;rotatable=0;points=[[0,0.5],[1,0.5]];portConstraint=eastwest;whiteSpace=wrap;html=1;" parent="fFfavN8Qj9UDiZofzjUI-22" vertex="1">
          <mxGeometry y="101" width="182" height="26" as="geometry" />
        </mxCell>
        <mxCell id="fFfavN8Qj9UDiZofzjUI-33" value="&lt;span style=&quot;text-align: center; text-wrap-mode: nowrap;&quot;&gt;+ UpdateData(): void&lt;/span&gt;" style="text;strokeColor=light-dark(#000000,#512D2B);fillColor=default;align=left;verticalAlign=top;spacingLeft=4;spacingRight=4;overflow=hidden;rotatable=0;points=[[0,0.5],[1,0.5]];portConstraint=eastwest;whiteSpace=wrap;html=1;" parent="fFfavN8Qj9UDiZofzjUI-22" vertex="1">
          <mxGeometry y="127" width="182" height="26" as="geometry" />
        </mxCell>
        <mxCell id="fFfavN8Qj9UDiZofzjUI-34" value="Mngr_&lt;span style=&quot;color: light-dark(rgb(0, 0, 0), rgb(255, 255, 255)); background-color: transparent;&quot;&gt;Marketplace_Scr&lt;/span&gt;" style="swimlane;whiteSpace=wrap;html=1;fillColor=#f8cecc;strokeColor=#b85450;startSize=23;" parent="1" vertex="1">
          <mxGeometry x="-175" y="-709" width="182" height="151" as="geometry" />
        </mxCell>
        <mxCell id="fFfavN8Qj9UDiZofzjUI-35" value="+ display(): void" style="text;strokeColor=light-dark(#000000,#512D2B);fillColor=default;align=left;verticalAlign=top;spacingLeft=4;spacingRight=4;overflow=hidden;rotatable=0;points=[[0,0.5],[1,0.5]];portConstraint=eastwest;whiteSpace=wrap;html=1;" parent="fFfavN8Qj9UDiZofzjUI-34" vertex="1">
          <mxGeometry y="23" width="182" height="26" as="geometry" />
        </mxCell>
        <mxCell id="fFfavN8Qj9UDiZofzjUI-36" value="&lt;span style=&quot;text-align: center; text-wrap-mode: nowrap;&quot;&gt;+ StartSearch()&lt;/span&gt;" style="text;strokeColor=light-dark(#000000,#512D2B);fillColor=default;align=left;verticalAlign=top;spacingLeft=4;spacingRight=4;overflow=hidden;rotatable=0;points=[[0,0.5],[1,0.5]];portConstraint=eastwest;whiteSpace=wrap;html=1;" parent="fFfavN8Qj9UDiZofzjUI-34" vertex="1">
          <mxGeometry y="49" width="182" height="26" as="geometry" />
        </mxCell>
        <mxCell id="fFfavN8Qj9UDiZofzjUI-37" value="&lt;span style=&quot;text-align: center; text-wrap-mode: nowrap;&quot;&gt;+ SearchButton(): void&lt;/span&gt;" style="text;strokeColor=light-dark(#000000,#512D2B);fillColor=default;align=left;verticalAlign=top;spacingLeft=4;spacingRight=4;overflow=hidden;rotatable=0;points=[[0,0.5],[1,0.5]];portConstraint=eastwest;whiteSpace=wrap;html=1;" parent="fFfavN8Qj9UDiZofzjUI-34" vertex="1">
          <mxGeometry y="75" width="182" height="26" as="geometry" />
        </mxCell>
        <mxCell id="fFfavN8Qj9UDiZofzjUI-38" value="&lt;div style=&quot;text-align: center;&quot;&gt;&lt;span style=&quot;background-color: transparent; color: light-dark(rgb(0, 0, 0), rgb(255, 255, 255)); text-wrap-mode: nowrap;&quot;&gt;+ TaskType()&lt;/span&gt;&lt;/div&gt;" style="text;strokeColor=light-dark(#000000,#512D2B);fillColor=default;align=left;verticalAlign=top;spacingLeft=4;spacingRight=4;overflow=hidden;rotatable=0;points=[[0,0.5],[1,0.5]];portConstraint=eastwest;whiteSpace=wrap;html=1;" parent="fFfavN8Qj9UDiZofzjUI-34" vertex="1">
          <mxGeometry y="100" width="182" height="26" as="geometry" />
        </mxCell>
        <mxCell id="fFfavN8Qj9UDiZofzjUI-39" value="&lt;div style=&quot;text-align: center;&quot;&gt;&lt;span style=&quot;background-color: transparent; color: light-dark(rgb(0, 0, 0), rgb(255, 255, 255)); text-wrap-mode: nowrap;&quot;&gt;+ ReturnFavorites()&lt;/span&gt;&lt;/div&gt;" style="text;strokeColor=light-dark(#000000,#512D2B);fillColor=default;align=left;verticalAlign=top;spacingLeft=4;spacingRight=4;overflow=hidden;rotatable=0;points=[[0,0.5],[1,0.5]];portConstraint=eastwest;whiteSpace=wrap;html=1;" parent="fFfavN8Qj9UDiZofzjUI-34" vertex="1">
          <mxGeometry y="126" width="182" height="26" as="geometry" />
        </mxCell>
        <mxCell id="fFfavN8Qj9UDiZofzjUI-43" value="Mngr_Sugg_Scr" style="swimlane;whiteSpace=wrap;html=1;fillColor=#f8cecc;strokeColor=#b85450;startSize=23;" parent="1" vertex="1">
          <mxGeometry x="-321" y="-813" width="182" height="47" as="geometry" />
        </mxCell>
        <mxCell id="fFfavN8Qj9UDiZofzjUI-44" value="+ display(): void" style="text;strokeColor=light-dark(#000000,#512D2B);fillColor=default;align=left;verticalAlign=top;spacingLeft=4;spacingRight=4;overflow=hidden;rotatable=0;points=[[0,0.5],[1,0.5]];portConstraint=eastwest;whiteSpace=wrap;html=1;" parent="fFfavN8Qj9UDiZofzjUI-43" vertex="1">
          <mxGeometry y="22" width="182" height="26" as="geometry" />
        </mxCell>
        <mxCell id="fFfavN8Qj9UDiZofzjUI-46" value="" style="endArrow=none;html=1;rounded=0;exitX=0.5;exitY=1;exitDx=0;exitDy=0;entryX=0.5;entryY=0;entryDx=0;entryDy=0;" parent="1" source="fFfavN8Qj9UDiZofzjUI-22" target="Xgi3c2Zr5CXY41PrPyP7-1" edge="1">
          <mxGeometry width="50" height="50" relative="1" as="geometry">
            <mxPoint x="-501" y="-566" as="sourcePoint" />
            <mxPoint x="-452" y="-494" as="targetPoint" />
          </mxGeometry>
        </mxCell>
        <mxCell id="fFfavN8Qj9UDiZofzjUI-47" value="" style="endArrow=none;html=1;rounded=0;exitX=1;exitY=0.5;exitDx=0;exitDy=0;entryX=0;entryY=0.5;entryDx=0;entryDy=0;" parent="1" source="fFfavN8Qj9UDiZofzjUI-277" target="fFfavN8Qj9UDiZofzjUI-22" edge="1">
          <mxGeometry width="50" height="50" relative="1" as="geometry">
            <mxPoint x="-562" y="-659.0000000000002" as="sourcePoint" />
            <mxPoint x="-452" y="-494" as="targetPoint" />
          </mxGeometry>
        </mxCell>
        <mxCell id="fFfavN8Qj9UDiZofzjUI-48" value="" style="endArrow=none;html=1;rounded=0;exitX=1;exitY=0.5;exitDx=0;exitDy=0;entryX=0;entryY=0.5;entryDx=0;entryDy=0;" parent="1" source="fFfavN8Qj9UDiZofzjUI-22" target="fFfavN8Qj9UDiZofzjUI-34" edge="1">
          <mxGeometry width="50" height="50" relative="1" as="geometry">
            <mxPoint x="-481" y="-660" as="sourcePoint" />
            <mxPoint x="-425" y="-616" as="targetPoint" />
          </mxGeometry>
        </mxCell>
        <mxCell id="fFfavN8Qj9UDiZofzjUI-49" value="" style="endArrow=none;html=1;rounded=0;exitX=0.5;exitY=1;exitDx=0;exitDy=0;entryX=0.5;entryY=0;entryDx=0;entryDy=0;" parent="1" source="fFfavN8Qj9UDiZofzjUI-43" target="fFfavN8Qj9UDiZofzjUI-22" edge="1">
          <mxGeometry width="50" height="50" relative="1" as="geometry">
            <mxPoint x="-334" y="-540" as="sourcePoint" />
            <mxPoint x="-361" y="-494" as="targetPoint" />
          </mxGeometry>
        </mxCell>
        <mxCell id="fFfavN8Qj9UDiZofzjUI-50" value="" style="endArrow=none;html=1;rounded=0;entryX=0;entryY=0;entryDx=0;entryDy=0;exitX=1;exitY=1;exitDx=0;exitDy=0;" parent="1" source="fFfavN8Qj9UDiZofzjUI-285" target="fFfavN8Qj9UDiZofzjUI-22" edge="1">
          <mxGeometry width="50" height="50" relative="1" as="geometry">
            <mxPoint x="-406" y="-725" as="sourcePoint" />
            <mxPoint x="-425" y="-616" as="targetPoint" />
          </mxGeometry>
        </mxCell>
        <mxCell id="fFfavN8Qj9UDiZofzjUI-52" value="Manage_Notif_Case" style="swimlane;whiteSpace=wrap;html=1;fillColor=#f8cecc;strokeColor=#b85450;startSize=23;" parent="1" vertex="1">
          <mxGeometry x="-1203" y="-547" width="182" height="100" as="geometry" />
        </mxCell>
        <mxCell id="fFfavN8Qj9UDiZofzjUI-53" value="&lt;span style=&quot;font-size: 11px; text-align: center; text-wrap-mode: nowrap; background-color: rgb(255, 255, 255);&quot;&gt;+ LoadList()&lt;/span&gt;" style="text;strokeColor=light-dark(#000000,#512D2B);fillColor=default;align=left;verticalAlign=top;spacingLeft=4;spacingRight=4;overflow=hidden;rotatable=0;points=[[0,0.5],[1,0.5]];portConstraint=eastwest;whiteSpace=wrap;html=1;" parent="fFfavN8Qj9UDiZofzjUI-52" vertex="1">
          <mxGeometry y="22" width="182" height="26" as="geometry" />
        </mxCell>
        <mxCell id="fFfavN8Qj9UDiZofzjUI-55" value="&lt;span style=&quot;font-size: 11px; text-align: center; text-wrap-mode: nowrap; background-color: rgb(255, 255, 255);&quot;&gt;+ ShowResults(): void&lt;/span&gt;" style="text;strokeColor=light-dark(#000000,#512D2B);fillColor=default;align=left;verticalAlign=top;spacingLeft=4;spacingRight=4;overflow=hidden;rotatable=0;points=[[0,0.5],[1,0.5]];portConstraint=eastwest;whiteSpace=wrap;html=1;" parent="fFfavN8Qj9UDiZofzjUI-52" vertex="1">
          <mxGeometry y="48" width="182" height="26" as="geometry" />
        </mxCell>
        <mxCell id="fFfavN8Qj9UDiZofzjUI-59" value="&lt;span style=&quot;font-size: 11px; text-align: center; text-wrap-mode: nowrap; background-color: rgb(255, 255, 255);&quot;&gt;+ NotifCreate()&lt;/span&gt;" style="text;strokeColor=light-dark(#000000,#512D2B);fillColor=default;align=left;verticalAlign=top;spacingLeft=4;spacingRight=4;overflow=hidden;rotatable=0;points=[[0,0.5],[1,0.5]];portConstraint=eastwest;whiteSpace=wrap;html=1;" parent="fFfavN8Qj9UDiZofzjUI-52" vertex="1">
          <mxGeometry y="74" width="182" height="26" as="geometry" />
        </mxCell>
        <mxCell id="fFfavN8Qj9UDiZofzjUI-62" value="&lt;span style=&quot;text-wrap-mode: nowrap;&quot;&gt;Notif _Create_Scr&lt;/span&gt;" style="swimlane;whiteSpace=wrap;html=1;fillColor=#f8cecc;strokeColor=#b85450;startSize=23;" parent="1" vertex="1">
          <mxGeometry x="-753" y="-388" width="182" height="74" as="geometry" />
        </mxCell>
        <mxCell id="fFfavN8Qj9UDiZofzjUI-63" value="+ display(): void" style="text;strokeColor=light-dark(#000000,#512D2B);fillColor=default;align=left;verticalAlign=top;spacingLeft=4;spacingRight=4;overflow=hidden;rotatable=0;points=[[0,0.5],[1,0.5]];portConstraint=eastwest;whiteSpace=wrap;html=1;" parent="fFfavN8Qj9UDiZofzjUI-62" vertex="1">
          <mxGeometry y="22" width="182" height="26" as="geometry" />
        </mxCell>
        <mxCell id="fFfavN8Qj9UDiZofzjUI-64" value="&lt;span style=&quot;font-size: 11px; text-align: center; text-wrap-mode: nowrap; background-color: rgb(255, 255, 255);&quot;&gt;+ CreateButton(): void&lt;/span&gt;" style="text;strokeColor=light-dark(#000000,#512D2B);fillColor=default;align=left;verticalAlign=top;spacingLeft=4;spacingRight=4;overflow=hidden;rotatable=0;points=[[0,0.5],[1,0.5]];portConstraint=eastwest;whiteSpace=wrap;html=1;" parent="fFfavN8Qj9UDiZofzjUI-62" vertex="1">
          <mxGeometry y="48" width="182" height="26" as="geometry" />
        </mxCell>
        <mxCell id="fFfavN8Qj9UDiZofzjUI-65" value="" style="endArrow=none;html=1;rounded=0;exitX=0;exitY=0.25;exitDx=0;exitDy=0;entryX=0.75;entryY=1;entryDx=0;entryDy=0;" parent="1" source="Xgi3c2Zr5CXY41PrPyP7-1" target="fFfavN8Qj9UDiZofzjUI-52" edge="1">
          <mxGeometry width="50" height="50" relative="1" as="geometry">
            <mxPoint x="-286" y="-619" as="sourcePoint" />
            <mxPoint x="-945" y="-535" as="targetPoint" />
          </mxGeometry>
        </mxCell>
        <mxCell id="fFfavN8Qj9UDiZofzjUI-66" value="" style="endArrow=none;html=1;rounded=0;entryX=1;entryY=1;entryDx=0;entryDy=0;exitX=0.75;exitY=0;exitDx=0;exitDy=0;" parent="1" source="SSVQXBcXOp7XfPBqwCCu-6" target="fFfavN8Qj9UDiZofzjUI-52" edge="1">
          <mxGeometry width="50" height="50" relative="1" as="geometry">
            <mxPoint x="-803" y="76" as="sourcePoint" />
            <mxPoint x="-932" y="-625" as="targetPoint" />
          </mxGeometry>
        </mxCell>
        <mxCell id="fFfavN8Qj9UDiZofzjUI-67" value="" style="endArrow=none;html=1;rounded=0;entryX=0.5;entryY=0;entryDx=0;entryDy=0;exitX=0.5;exitY=1;exitDx=0;exitDy=0;" parent="1" source="fFfavN8Qj9UDiZofzjUI-52" target="5aScD9VIwKOivwd3Amo--27" edge="1">
          <mxGeometry width="50" height="50" relative="1" as="geometry">
            <mxPoint x="-160" y="178" as="sourcePoint" />
            <mxPoint x="-638" y="-116" as="targetPoint" />
          </mxGeometry>
        </mxCell>
        <mxCell id="fFfavN8Qj9UDiZofzjUI-69" value="" style="endArrow=none;html=1;rounded=0;exitX=0;exitY=0.25;exitDx=0;exitDy=0;entryX=0.5;entryY=1;entryDx=0;entryDy=0;" parent="1" source="fFfavN8Qj9UDiZofzjUI-62" target="Xgi3c2Zr5CXY41PrPyP7-76" edge="1">
          <mxGeometry width="50" height="50" relative="1" as="geometry">
            <mxPoint x="-1076" y="-632" as="sourcePoint" />
            <mxPoint x="-1054" y="-586" as="targetPoint" />
          </mxGeometry>
        </mxCell>
        <mxCell id="fFfavN8Qj9UDiZofzjUI-70" value="" style="endArrow=none;html=1;rounded=0;entryX=0.75;entryY=0;entryDx=0;entryDy=0;exitX=0.25;exitY=1;exitDx=0;exitDy=0;" parent="1" source="fFfavN8Qj9UDiZofzjUI-52" target="5aScD9VIwKOivwd3Amo--43" edge="1">
          <mxGeometry width="50" height="50" relative="1" as="geometry">
            <mxPoint x="-921" y="-515" as="sourcePoint" />
            <mxPoint x="-1081" y="239" as="targetPoint" />
          </mxGeometry>
        </mxCell>
        <mxCell id="fFfavN8Qj9UDiZofzjUI-71" value="" style="endArrow=none;html=1;rounded=0;entryX=0.5;entryY=1;entryDx=0;entryDy=0;exitX=0.75;exitY=0;exitDx=0;exitDy=0;" parent="1" source="5aScD9VIwKOivwd3Amo--27" target="fFfavN8Qj9UDiZofzjUI-62" edge="1">
          <mxGeometry width="50" height="50" relative="1" as="geometry">
            <mxPoint x="-800" y="115" as="sourcePoint" />
            <mxPoint x="-753" y="-525" as="targetPoint" />
          </mxGeometry>
        </mxCell>
        <mxCell id="fFfavN8Qj9UDiZofzjUI-74" value="Tenant_Home_Scr" style="swimlane;whiteSpace=wrap;html=1;startSize=23;fillColor=#f8cecc;strokeColor=#b85450;" parent="1" vertex="1">
          <mxGeometry x="-509" y="131" width="170" height="272" as="geometry">
            <mxRectangle x="200" y="320" width="120" height="30" as="alternateBounds" />
          </mxGeometry>
        </mxCell>
        <mxCell id="fFfavN8Qj9UDiZofzjUI-75" value="+ display(): void" style="text;strokeColor=light-dark(#000000,#512D2B);fillColor=default;align=left;verticalAlign=top;spacingLeft=4;spacingRight=4;overflow=hidden;rotatable=0;points=[[0,0.5],[1,0.5]];portConstraint=eastwest;whiteSpace=wrap;html=1;" parent="fFfavN8Qj9UDiZofzjUI-74" vertex="1">
          <mxGeometry y="20" width="170" height="26" as="geometry" />
        </mxCell>
        <mxCell id="fFfavN8Qj9UDiZofzjUI-76" value="&lt;span style=&quot;text-align: center; text-wrap-mode: nowrap;&quot;&gt;+ ComplaintButton(): void&lt;/span&gt;" style="text;strokeColor=light-dark(#000000,#512D2B);fillColor=default;align=left;verticalAlign=top;spacingLeft=4;spacingRight=4;overflow=hidden;rotatable=0;points=[[0,0.5],[1,0.5]];portConstraint=eastwest;whiteSpace=wrap;html=1;" parent="fFfavN8Qj9UDiZofzjUI-74" vertex="1">
          <mxGeometry y="46" width="170" height="26" as="geometry" />
        </mxCell>
        <mxCell id="fFfavN8Qj9UDiZofzjUI-166" value="&lt;span style=&quot;text-align: center; text-wrap-mode: nowrap;&quot;&gt;+ FinanceButton(): void&lt;/span&gt;" style="text;strokeColor=light-dark(#000000,#512D2B);fillColor=default;align=left;verticalAlign=top;spacingLeft=4;spacingRight=4;overflow=hidden;rotatable=0;points=[[0,0.5],[1,0.5]];portConstraint=eastwest;whiteSpace=wrap;html=1;" parent="fFfavN8Qj9UDiZofzjUI-74" vertex="1">
          <mxGeometry y="70" width="170" height="26" as="geometry" />
        </mxCell>
        <mxCell id="fFfavN8Qj9UDiZofzjUI-168" value="&lt;span style=&quot;text-align: center; text-wrap-mode: nowrap;&quot;&gt;+ loadDebtlist()&lt;/span&gt;" style="text;strokeColor=light-dark(#000000,#512D2B);fillColor=default;align=left;verticalAlign=top;spacingLeft=4;spacingRight=4;overflow=hidden;rotatable=0;points=[[0,0.5],[1,0.5]];portConstraint=eastwest;whiteSpace=wrap;html=1;" parent="fFfavN8Qj9UDiZofzjUI-74" vertex="1">
          <mxGeometry y="94" width="170" height="26" as="geometry" />
        </mxCell>
        <mxCell id="fFfavN8Qj9UDiZofzjUI-207" value="&lt;span style=&quot;font-size: 11px; text-align: center; text-wrap-mode: nowrap; background-color: rgb(255, 255, 255);&quot;&gt;+ LoadRsvtList()&lt;/span&gt;" style="text;strokeColor=light-dark(#000000,#512D2B);fillColor=default;align=left;verticalAlign=top;spacingLeft=4;spacingRight=4;overflow=hidden;rotatable=0;points=[[0,0.5],[1,0.5]];portConstraint=eastwest;whiteSpace=wrap;html=1;" parent="fFfavN8Qj9UDiZofzjUI-74" vertex="1">
          <mxGeometry y="146" width="170" height="26" as="geometry" />
        </mxCell>
        <mxCell id="fFfavN8Qj9UDiZofzjUI-241" value="&lt;span style=&quot;text-align: center; text-wrap-mode: nowrap;&quot;&gt;+ LostFoundButton(): void&lt;/span&gt;" style="text;strokeColor=light-dark(#000000,#512D2B);fillColor=default;align=left;verticalAlign=top;spacingLeft=4;spacingRight=4;overflow=hidden;rotatable=0;points=[[0,0.5],[1,0.5]];portConstraint=eastwest;whiteSpace=wrap;html=1;" parent="fFfavN8Qj9UDiZofzjUI-74" vertex="1">
          <mxGeometry y="172" width="170" height="26" as="geometry" />
        </mxCell>
        <mxCell id="fFfavN8Qj9UDiZofzjUI-243" value="&lt;span style=&quot;text-align: center; text-wrap-mode: nowrap;&quot;&gt;+ LoadLostFoundlist()&lt;/span&gt;" style="text;strokeColor=light-dark(#000000,#512D2B);fillColor=default;align=left;verticalAlign=top;spacingLeft=4;spacingRight=4;overflow=hidden;rotatable=0;points=[[0,0.5],[1,0.5]];portConstraint=eastwest;whiteSpace=wrap;html=1;" parent="fFfavN8Qj9UDiZofzjUI-74" vertex="1">
          <mxGeometry y="195" width="170" height="26" as="geometry" />
        </mxCell>
        <mxCell id="fFfavN8Qj9UDiZofzjUI-244" value="&lt;span style=&quot;text-align: center; text-wrap-mode: nowrap;&quot;&gt;+ NotificationButton(): void&lt;/span&gt;" style="text;strokeColor=light-dark(#000000,#512D2B);fillColor=default;align=left;verticalAlign=top;spacingLeft=4;spacingRight=4;overflow=hidden;rotatable=0;points=[[0,0.5],[1,0.5]];portConstraint=eastwest;whiteSpace=wrap;html=1;" parent="fFfavN8Qj9UDiZofzjUI-74" vertex="1">
          <mxGeometry y="221" width="170" height="26" as="geometry" />
        </mxCell>
        <mxCell id="fFfavN8Qj9UDiZofzjUI-245" value="&lt;span style=&quot;text-align: center; text-wrap-mode: nowrap;&quot;&gt;+ LoadNotifList()&lt;/span&gt;" style="text;strokeColor=light-dark(#000000,#512D2B);fillColor=default;align=left;verticalAlign=top;spacingLeft=4;spacingRight=4;overflow=hidden;rotatable=0;points=[[0,0.5],[1,0.5]];portConstraint=eastwest;whiteSpace=wrap;html=1;" parent="fFfavN8Qj9UDiZofzjUI-74" vertex="1">
          <mxGeometry y="247" width="170" height="26" as="geometry" />
        </mxCell>
        <mxCell id="fFfavN8Qj9UDiZofzjUI-80" value="Tenant_Complaint_Scr" style="swimlane;whiteSpace=wrap;html=1;startSize=23;fillColor=#f8cecc;strokeColor=#b85450;" parent="1" vertex="1">
          <mxGeometry x="-695" y="286" width="170" height="150" as="geometry">
            <mxRectangle x="200" y="320" width="120" height="30" as="alternateBounds" />
          </mxGeometry>
        </mxCell>
        <mxCell id="fFfavN8Qj9UDiZofzjUI-81" value="+ display(): void" style="text;strokeColor=light-dark(#000000,#512D2B);fillColor=default;align=left;verticalAlign=top;spacingLeft=4;spacingRight=4;overflow=hidden;rotatable=0;points=[[0,0.5],[1,0.5]];portConstraint=eastwest;whiteSpace=wrap;html=1;" parent="fFfavN8Qj9UDiZofzjUI-80" vertex="1">
          <mxGeometry y="20" width="170" height="26" as="geometry" />
        </mxCell>
        <mxCell id="fFfavN8Qj9UDiZofzjUI-82" value="&lt;span style=&quot;text-align: center; text-wrap-mode: nowrap;&quot;&gt;+ FillForm(): void&lt;/span&gt;" style="text;strokeColor=light-dark(#000000,#512D2B);fillColor=default;align=left;verticalAlign=top;spacingLeft=4;spacingRight=4;overflow=hidden;rotatable=0;points=[[0,0.5],[1,0.5]];portConstraint=eastwest;whiteSpace=wrap;html=1;" parent="fFfavN8Qj9UDiZofzjUI-80" vertex="1">
          <mxGeometry y="46" width="170" height="26" as="geometry" />
        </mxCell>
        <mxCell id="fFfavN8Qj9UDiZofzjUI-83" value="&lt;span style=&quot;text-align: center; text-wrap-mode: nowrap;&quot;&gt;+ CheckData()&lt;/span&gt;" style="text;strokeColor=light-dark(#000000,#512D2B);fillColor=default;align=left;verticalAlign=top;spacingLeft=4;spacingRight=4;overflow=hidden;rotatable=0;points=[[0,0.5],[1,0.5]];portConstraint=eastwest;whiteSpace=wrap;html=1;" parent="fFfavN8Qj9UDiZofzjUI-80" vertex="1">
          <mxGeometry y="72" width="170" height="26" as="geometry" />
        </mxCell>
        <mxCell id="fFfavN8Qj9UDiZofzjUI-84" value="&lt;span style=&quot;text-align: center; text-wrap-mode: nowrap;&quot;&gt;+ AddComplaint(): void&lt;/span&gt;" style="text;strokeColor=light-dark(#000000,#512D2B);fillColor=default;align=left;verticalAlign=top;spacingLeft=4;spacingRight=4;overflow=hidden;rotatable=0;points=[[0,0.5],[1,0.5]];portConstraint=eastwest;whiteSpace=wrap;html=1;" parent="fFfavN8Qj9UDiZofzjUI-80" vertex="1">
          <mxGeometry y="98" width="170" height="26" as="geometry" />
        </mxCell>
        <mxCell id="fFfavN8Qj9UDiZofzjUI-86" value="&lt;span style=&quot;text-align: center; text-wrap-mode: nowrap;&quot;&gt;+ Error_Message(): void&lt;/span&gt;" style="text;strokeColor=light-dark(#000000,#512D2B);fillColor=default;align=left;verticalAlign=top;spacingLeft=4;spacingRight=4;overflow=hidden;rotatable=0;points=[[0,0.5],[1,0.5]];portConstraint=eastwest;whiteSpace=wrap;html=1;" parent="fFfavN8Qj9UDiZofzjUI-80" vertex="1">
          <mxGeometry y="124" width="170" height="26" as="geometry" />
        </mxCell>
        <mxCell id="fFfavN8Qj9UDiZofzjUI-89" value="Manage_&lt;span style=&quot;background-color: transparent; color: light-dark(rgb(0, 0, 0), rgb(255, 255, 255));&quot;&gt;Compl_Class&lt;/span&gt;" style="swimlane;whiteSpace=wrap;html=1;fillColor=#f8cecc;strokeColor=#b85450;startSize=23;" parent="1" vertex="1">
          <mxGeometry x="-404" y="500" width="182" height="153" as="geometry" />
        </mxCell>
        <mxCell id="fFfavN8Qj9UDiZofzjUI-90" value="&lt;span style=&quot;text-align: center; text-wrap-mode: nowrap;&quot;&gt;+ UpdateData(): void&lt;/span&gt;" style="text;strokeColor=light-dark(#000000,#512D2B);fillColor=default;align=left;verticalAlign=top;spacingLeft=4;spacingRight=4;overflow=hidden;rotatable=0;points=[[0,0.5],[1,0.5]];portConstraint=eastwest;whiteSpace=wrap;html=1;" parent="fFfavN8Qj9UDiZofzjUI-89" vertex="1">
          <mxGeometry y="23" width="182" height="26" as="geometry" />
        </mxCell>
        <mxCell id="fFfavN8Qj9UDiZofzjUI-91" value="&lt;span style=&quot;font-size: 11px; text-align: center; text-wrap-mode: nowrap; background-color: rgb(255, 255, 255);&quot;&gt;+ NotifCreate()&lt;/span&gt;" style="text;strokeColor=light-dark(#000000,#512D2B);fillColor=default;align=left;verticalAlign=top;spacingLeft=4;spacingRight=4;overflow=hidden;rotatable=0;points=[[0,0.5],[1,0.5]];portConstraint=eastwest;whiteSpace=wrap;html=1;" parent="fFfavN8Qj9UDiZofzjUI-89" vertex="1">
          <mxGeometry y="49" width="182" height="26" as="geometry" />
        </mxCell>
        <mxCell id="fFfavN8Qj9UDiZofzjUI-92" value="&lt;span style=&quot;text-align: center; text-wrap-mode: nowrap;&quot;&gt;+ SearchComplaints()&lt;/span&gt;" style="text;strokeColor=light-dark(#000000,#512D2B);fillColor=default;align=left;verticalAlign=top;spacingLeft=4;spacingRight=4;overflow=hidden;rotatable=0;points=[[0,0.5],[1,0.5]];portConstraint=eastwest;whiteSpace=wrap;html=1;" parent="fFfavN8Qj9UDiZofzjUI-89" vertex="1">
          <mxGeometry y="75" width="182" height="26" as="geometry" />
        </mxCell>
        <mxCell id="fFfavN8Qj9UDiZofzjUI-93" value="&lt;span style=&quot;text-align: center; text-wrap-mode: nowrap;&quot;&gt;+ ShowResults(): void&lt;/span&gt;" style="text;strokeColor=light-dark(#000000,#512D2B);fillColor=default;align=left;verticalAlign=top;spacingLeft=4;spacingRight=4;overflow=hidden;rotatable=0;points=[[0,0.5],[1,0.5]];portConstraint=eastwest;whiteSpace=wrap;html=1;" parent="fFfavN8Qj9UDiZofzjUI-89" vertex="1">
          <mxGeometry y="101" width="182" height="26" as="geometry" />
        </mxCell>
        <mxCell id="fFfavN8Qj9UDiZofzjUI-94" value="&lt;span style=&quot;text-align: center; text-wrap-mode: nowrap;&quot;&gt;+ SearchDetails()&lt;/span&gt;" style="text;strokeColor=light-dark(#000000,#512D2B);fillColor=default;align=left;verticalAlign=top;spacingLeft=4;spacingRight=4;overflow=hidden;rotatable=0;points=[[0,0.5],[1,0.5]];portConstraint=eastwest;whiteSpace=wrap;html=1;" parent="fFfavN8Qj9UDiZofzjUI-89" vertex="1">
          <mxGeometry y="127" width="182" height="26" as="geometry" />
        </mxCell>
        <mxCell id="fFfavN8Qj9UDiZofzjUI-61" value="&lt;span style=&quot;font-size: 11px; text-align: center; text-wrap-mode: nowrap; background-color: rgb(255, 255, 255);&quot;&gt;+ NewNotifButton(): void&lt;/span&gt;" style="text;strokeColor=light-dark(#000000,#512D2B);fillColor=default;align=left;verticalAlign=top;spacingLeft=4;spacingRight=4;overflow=hidden;rotatable=0;points=[[0,0.5],[1,0.5]];portConstraint=eastwest;whiteSpace=wrap;html=1;" parent="1" vertex="1">
          <mxGeometry x="-1178" y="279" width="174" height="28" as="geometry" />
        </mxCell>
        <mxCell id="fFfavN8Qj9UDiZofzjUI-96" value="&lt;span style=&quot;text-align: center; text-wrap-mode: nowrap;&quot;&gt;+ DisplayAnswerForm(): void&lt;/span&gt;" style="text;strokeColor=light-dark(#000000,#512D2B);fillColor=default;align=left;verticalAlign=top;spacingLeft=4;spacingRight=4;overflow=hidden;rotatable=0;points=[[0,0.5],[1,0.5]];portConstraint=eastwest;whiteSpace=wrap;html=1;" parent="1" vertex="1">
          <mxGeometry x="-1178" y="307" width="174" height="28" as="geometry" />
        </mxCell>
        <mxCell id="fFfavN8Qj9UDiZofzjUI-97" value="&lt;span style=&quot;text-align: center; text-wrap-mode: nowrap;&quot;&gt;+ StartSearch()&lt;/span&gt;" style="text;strokeColor=light-dark(#000000,#512D2B);fillColor=default;align=left;verticalAlign=top;spacingLeft=4;spacingRight=4;overflow=hidden;rotatable=0;points=[[0,0.5],[1,0.5]];portConstraint=eastwest;whiteSpace=wrap;html=1;" parent="1" vertex="1">
          <mxGeometry x="-1178" y="334" width="174" height="28" as="geometry" />
        </mxCell>
        <mxCell id="fFfavN8Qj9UDiZofzjUI-98" value="&lt;span style=&quot;font-size: 11px; text-align: center; text-wrap-mode: nowrap; background-color: rgb(255, 255, 255);&quot;&gt;+ CreateNotif()&lt;/span&gt;" style="text;strokeColor=light-dark(#000000,#512D2B);fillColor=default;align=left;verticalAlign=top;spacingLeft=4;spacingRight=4;overflow=hidden;rotatable=0;points=[[0,0.5],[1,0.5]];portConstraint=eastwest;whiteSpace=wrap;html=1;" parent="1" vertex="1">
          <mxGeometry x="-1178" y="362" width="174" height="30" as="geometry" />
        </mxCell>
        <mxCell id="fFfavN8Qj9UDiZofzjUI-100" value="" style="endArrow=none;html=1;rounded=0;exitX=0.25;exitY=0;exitDx=0;exitDy=0;entryX=0;entryY=0.5;entryDx=0;entryDy=0;" parent="1" source="fFfavN8Qj9UDiZofzjUI-80" target="fFfavN8Qj9UDiZofzjUI-75" edge="1">
          <mxGeometry width="50" height="50" relative="1" as="geometry">
            <mxPoint x="-759" y="250" as="sourcePoint" />
            <mxPoint x="-160" y="223" as="targetPoint" />
          </mxGeometry>
        </mxCell>
        <mxCell id="fFfavN8Qj9UDiZofzjUI-101" value="" style="endArrow=none;html=1;rounded=0;exitX=0.5;exitY=0;exitDx=0;exitDy=0;entryX=0.5;entryY=1;entryDx=0;entryDy=0;" parent="1" source="fFfavN8Qj9UDiZofzjUI-89" target="fFfavN8Qj9UDiZofzjUI-74" edge="1">
          <mxGeometry width="50" height="50" relative="1" as="geometry">
            <mxPoint x="-478" y="294" as="sourcePoint" />
            <mxPoint x="-415" y="290" as="targetPoint" />
          </mxGeometry>
        </mxCell>
        <mxCell id="fFfavN8Qj9UDiZofzjUI-106" value="" style="endArrow=none;html=1;rounded=0;exitX=0.75;exitY=0;exitDx=0;exitDy=0;entryX=0.25;entryY=1;entryDx=0;entryDy=0;" parent="1" source="fFfavN8Qj9UDiZofzjUI-89" target="SSVQXBcXOp7XfPBqwCCu-4" edge="1">
          <mxGeometry width="50" height="50" relative="1" as="geometry">
            <mxPoint x="-327" y="458" as="sourcePoint" />
            <mxPoint x="-457" y="216" as="targetPoint" />
          </mxGeometry>
        </mxCell>
        <mxCell id="fFfavN8Qj9UDiZofzjUI-107" value="" style="endArrow=none;html=1;rounded=0;exitX=0;exitY=0.5;exitDx=0;exitDy=0;entryX=1;entryY=1;entryDx=0;entryDy=0;" parent="1" source="fFfavN8Qj9UDiZofzjUI-89" target="fFfavN8Qj9UDiZofzjUI-80" edge="1">
          <mxGeometry width="50" height="50" relative="1" as="geometry">
            <mxPoint x="-605" y="256" as="sourcePoint" />
            <mxPoint x="-542" y="178" as="targetPoint" />
          </mxGeometry>
        </mxCell>
        <mxCell id="fFfavN8Qj9UDiZofzjUI-108" value="" style="endArrow=none;html=1;rounded=0;exitX=0;exitY=1;exitDx=0;exitDy=0;entryX=0.75;entryY=1;entryDx=0;entryDy=0;" parent="1" source="fFfavN8Qj9UDiZofzjUI-89" target="SSVQXBcXOp7XfPBqwCCu-6" edge="1">
          <mxGeometry width="50" height="50" relative="1" as="geometry">
            <mxPoint x="-418" y="535" as="sourcePoint" />
            <mxPoint x="-478" y="406" as="targetPoint" />
          </mxGeometry>
        </mxCell>
        <mxCell id="fFfavN8Qj9UDiZofzjUI-109" value="" style="endArrow=none;html=1;rounded=0;exitX=0;exitY=0.75;exitDx=0;exitDy=0;entryX=1;entryY=0.5;entryDx=0;entryDy=0;" parent="1" source="fFfavN8Qj9UDiZofzjUI-89" target="fFfavN8Qj9UDiZofzjUI-98" edge="1">
          <mxGeometry width="50" height="50" relative="1" as="geometry">
            <mxPoint x="-418" y="611" as="sourcePoint" />
            <mxPoint x="-759" y="384" as="targetPoint" />
          </mxGeometry>
        </mxCell>
        <mxCell id="fFfavN8Qj9UDiZofzjUI-111" value="" style="endArrow=none;html=1;rounded=0;entryX=0;entryY=1;entryDx=0;entryDy=0;exitX=1;exitY=0;exitDx=0;exitDy=0;" parent="1" source="5aScD9VIwKOivwd3Amo--27" target="Xgi3c2Zr5CXY41PrPyP7-1" edge="1">
          <mxGeometry width="50" height="50" relative="1" as="geometry">
            <mxPoint x="-1229" y="-204" as="sourcePoint" />
            <mxPoint x="-881" y="118" as="targetPoint" />
          </mxGeometry>
        </mxCell>
        <mxCell id="fFfavN8Qj9UDiZofzjUI-113" value="&lt;span style=&quot;text-align: center; text-wrap-mode: nowrap;&quot;&gt;+ ComplaintsButton(): void&lt;/span&gt;" style="text;strokeColor=light-dark(#000000,#512D2B);fillColor=default;align=left;verticalAlign=top;spacingLeft=4;spacingRight=4;overflow=hidden;rotatable=0;points=[[0,0.5],[1,0.5]];portConstraint=eastwest;whiteSpace=wrap;html=1;" parent="1" vertex="1">
          <mxGeometry x="-1178" y="389" width="174" height="30" as="geometry" />
        </mxCell>
        <mxCell id="fFfavN8Qj9UDiZofzjUI-116" value="+&amp;nbsp;&lt;span style=&quot;text-align: center; text-wrap-mode: nowrap;&quot;&gt;ChooseComplaint()&lt;/span&gt;" style="text;strokeColor=light-dark(#000000,#512D2B);fillColor=default;align=left;verticalAlign=top;spacingLeft=4;spacingRight=4;overflow=hidden;rotatable=0;points=[[0,0.5],[1,0.5]];portConstraint=eastwest;whiteSpace=wrap;html=1;" parent="1" vertex="1">
          <mxGeometry x="-1178" y="419" width="174" height="30" as="geometry" />
        </mxCell>
        <mxCell id="fFfavN8Qj9UDiZofzjUI-118" value="&lt;span style=&quot;text-align: center; text-wrap-mode: nowrap;&quot;&gt;+ AnswerButton(): void&lt;/span&gt;" style="text;strokeColor=light-dark(#000000,#512D2B);fillColor=default;align=left;verticalAlign=top;spacingLeft=4;spacingRight=4;overflow=hidden;rotatable=0;points=[[0,0.5],[1,0.5]];portConstraint=eastwest;whiteSpace=wrap;html=1;" parent="1" vertex="1">
          <mxGeometry x="-1178" y="449" width="174" height="30" as="geometry" />
        </mxCell>
        <mxCell id="fFfavN8Qj9UDiZofzjUI-128" value="Maint_Scr" style="swimlane;whiteSpace=wrap;html=1;fillColor=#f8cecc;strokeColor=#b85450;startSize=23;" parent="1" vertex="1">
          <mxGeometry x="-792" y="-821" width="182" height="73.5" as="geometry" />
        </mxCell>
        <mxCell id="fFfavN8Qj9UDiZofzjUI-129" value="+ display(): void" style="text;strokeColor=light-dark(#000000,#512D2B);fillColor=default;align=left;verticalAlign=top;spacingLeft=4;spacingRight=4;overflow=hidden;rotatable=0;points=[[0,0.5],[1,0.5]];portConstraint=eastwest;whiteSpace=wrap;html=1;" parent="fFfavN8Qj9UDiZofzjUI-128" vertex="1">
          <mxGeometry y="22" width="182" height="26" as="geometry" />
        </mxCell>
        <mxCell id="fFfavN8Qj9UDiZofzjUI-130" value="+ NewMainButton(): void" style="text;strokeColor=light-dark(#000000,#512D2B);fillColor=default;align=left;verticalAlign=top;spacingLeft=4;spacingRight=4;overflow=hidden;rotatable=0;points=[[0,0.5],[1,0.5]];portConstraint=eastwest;whiteSpace=wrap;html=1;" parent="fFfavN8Qj9UDiZofzjUI-128" vertex="1">
          <mxGeometry y="47.5" width="182" height="26" as="geometry" />
        </mxCell>
        <mxCell id="fFfavN8Qj9UDiZofzjUI-131" value="Add_Maint_Scr" style="swimlane;whiteSpace=wrap;html=1;fillColor=#f8cecc;strokeColor=#b85450;startSize=23;" parent="1" vertex="1">
          <mxGeometry x="-498" y="-1038" width="182" height="152" as="geometry" />
        </mxCell>
        <mxCell id="fFfavN8Qj9UDiZofzjUI-132" value="+ display(): void" style="text;strokeColor=light-dark(#000000,#512D2B);fillColor=default;align=left;verticalAlign=top;spacingLeft=4;spacingRight=4;overflow=hidden;rotatable=0;points=[[0,0.5],[1,0.5]];portConstraint=eastwest;whiteSpace=wrap;html=1;" parent="fFfavN8Qj9UDiZofzjUI-131" vertex="1">
          <mxGeometry y="22" width="182" height="26" as="geometry" />
        </mxCell>
        <mxCell id="fFfavN8Qj9UDiZofzjUI-133" value="+ FillForm(): void" style="text;strokeColor=light-dark(#000000,#512D2B);fillColor=default;align=left;verticalAlign=top;spacingLeft=4;spacingRight=4;overflow=hidden;rotatable=0;points=[[0,0.5],[1,0.5]];portConstraint=eastwest;whiteSpace=wrap;html=1;" parent="fFfavN8Qj9UDiZofzjUI-131" vertex="1">
          <mxGeometry y="47.5" width="182" height="26" as="geometry" />
        </mxCell>
        <mxCell id="fFfavN8Qj9UDiZofzjUI-134" value="+ CheckForm()" style="text;strokeColor=light-dark(#000000,#512D2B);fillColor=default;align=left;verticalAlign=top;spacingLeft=4;spacingRight=4;overflow=hidden;rotatable=0;points=[[0,0.5],[1,0.5]];portConstraint=eastwest;whiteSpace=wrap;html=1;" parent="fFfavN8Qj9UDiZofzjUI-131" vertex="1">
          <mxGeometry y="73.5" width="182" height="26" as="geometry" />
        </mxCell>
        <mxCell id="fFfavN8Qj9UDiZofzjUI-135" value="+ SendMaintInfo(): void" style="text;strokeColor=light-dark(#000000,#512D2B);fillColor=default;align=left;verticalAlign=top;spacingLeft=4;spacingRight=4;overflow=hidden;rotatable=0;points=[[0,0.5],[1,0.5]];portConstraint=eastwest;whiteSpace=wrap;html=1;" parent="fFfavN8Qj9UDiZofzjUI-131" vertex="1">
          <mxGeometry y="99.5" width="182" height="26" as="geometry" />
        </mxCell>
        <mxCell id="PTB1B2n5PinUBWVDkKBF-1" value="&lt;span style=&quot;font-size: 11px; text-align: center; text-wrap-mode: nowrap; background-color: rgb(255, 255, 255);&quot;&gt;+ ErrorMessage(): void&lt;/span&gt;" style="text;strokeColor=light-dark(#000000,#512D2B);fillColor=default;align=left;verticalAlign=top;spacingLeft=4;spacingRight=4;overflow=hidden;rotatable=0;points=[[0,0.5],[1,0.5]];portConstraint=eastwest;whiteSpace=wrap;html=1;" parent="fFfavN8Qj9UDiZofzjUI-131" vertex="1">
          <mxGeometry y="125.5" width="182" height="26" as="geometry" />
        </mxCell>
        <mxCell id="fFfavN8Qj9UDiZofzjUI-136" value="Manage_7" style="swimlane;whiteSpace=wrap;html=1;fillColor=#f8cecc;strokeColor=#b85450;startSize=23;" parent="1" vertex="1">
          <mxGeometry x="-852" y="-1000" width="182" height="149" as="geometry" />
        </mxCell>
        <mxCell id="fFfavN8Qj9UDiZofzjUI-137" value="+ QueryMaintenance()" style="text;strokeColor=light-dark(#000000,#512D2B);fillColor=default;align=left;verticalAlign=top;spacingLeft=4;spacingRight=4;overflow=hidden;rotatable=0;points=[[0,0.5],[1,0.5]];portConstraint=eastwest;whiteSpace=wrap;html=1;" parent="fFfavN8Qj9UDiZofzjUI-136" vertex="1">
          <mxGeometry y="22" width="182" height="26" as="geometry" />
        </mxCell>
        <mxCell id="fFfavN8Qj9UDiZofzjUI-138" value="+ ShowResults(): void" style="text;strokeColor=light-dark(#000000,#512D2B);fillColor=default;align=left;verticalAlign=top;spacingLeft=4;spacingRight=4;overflow=hidden;rotatable=0;points=[[0,0.5],[1,0.5]];portConstraint=eastwest;whiteSpace=wrap;html=1;" parent="fFfavN8Qj9UDiZofzjUI-136" vertex="1">
          <mxGeometry y="47.5" width="182" height="26" as="geometry" />
        </mxCell>
        <mxCell id="fFfavN8Qj9UDiZofzjUI-139" value="+ AddMaintenance()" style="text;strokeColor=light-dark(#000000,#512D2B);fillColor=default;align=left;verticalAlign=top;spacingLeft=4;spacingRight=4;overflow=hidden;rotatable=0;points=[[0,0.5],[1,0.5]];portConstraint=eastwest;whiteSpace=wrap;html=1;" parent="fFfavN8Qj9UDiZofzjUI-136" vertex="1">
          <mxGeometry y="73.5" width="182" height="26" as="geometry" />
        </mxCell>
        <mxCell id="fFfavN8Qj9UDiZofzjUI-140" value="+ QueryNotification()" style="text;strokeColor=light-dark(#000000,#512D2B);fillColor=default;align=left;verticalAlign=top;spacingLeft=4;spacingRight=4;overflow=hidden;rotatable=0;points=[[0,0.5],[1,0.5]];portConstraint=eastwest;whiteSpace=wrap;html=1;" parent="fFfavN8Qj9UDiZofzjUI-136" vertex="1">
          <mxGeometry y="99.5" width="182" height="26" as="geometry" />
        </mxCell>
        <mxCell id="Sa4O2JjXbT8sClhyJL3X-2" value="+ createNotif()" style="text;strokeColor=light-dark(#000000,#512D2B);fillColor=default;align=left;verticalAlign=top;spacingLeft=4;spacingRight=4;overflow=hidden;rotatable=0;points=[[0,0.5],[1,0.5]];portConstraint=eastwest;whiteSpace=wrap;html=1;" parent="fFfavN8Qj9UDiZofzjUI-136" vertex="1">
          <mxGeometry y="125.5" width="182" height="26" as="geometry" />
        </mxCell>
        <mxCell id="fFfavN8Qj9UDiZofzjUI-142" value="" style="endArrow=none;html=1;rounded=0;exitX=1;exitY=1;exitDx=0;exitDy=0;entryX=0.25;entryY=0;entryDx=0;entryDy=0;" parent="1" source="fFfavN8Qj9UDiZofzjUI-136" target="Xgi3c2Zr5CXY41PrPyP7-1" edge="1">
          <mxGeometry width="50" height="50" relative="1" as="geometry">
            <mxPoint x="-537" y="-626" as="sourcePoint" />
            <mxPoint x="-388" y="-610" as="targetPoint" />
          </mxGeometry>
        </mxCell>
        <mxCell id="fFfavN8Qj9UDiZofzjUI-143" value="" style="endArrow=none;html=1;rounded=0;exitX=0.5;exitY=1;exitDx=0;exitDy=0;entryX=0.5;entryY=0;entryDx=0;entryDy=0;" parent="1" source="fFfavN8Qj9UDiZofzjUI-136" target="fFfavN8Qj9UDiZofzjUI-128" edge="1">
          <mxGeometry width="50" height="50" relative="1" as="geometry">
            <mxPoint x="-1136" y="-632" as="sourcePoint" />
            <mxPoint x="-1117" y="-477" as="targetPoint" />
          </mxGeometry>
        </mxCell>
        <mxCell id="fFfavN8Qj9UDiZofzjUI-144" value="" style="endArrow=none;html=1;rounded=0;exitX=0.25;exitY=1;exitDx=0;exitDy=0;entryX=1;entryY=0.5;entryDx=0;entryDy=0;" parent="1" source="fFfavN8Qj9UDiZofzjUI-131" target="fFfavN8Qj9UDiZofzjUI-129" edge="1">
          <mxGeometry width="50" height="50" relative="1" as="geometry">
            <mxPoint x="-714" y="-854" as="sourcePoint" />
            <mxPoint x="-801" y="-812" as="targetPoint" />
          </mxGeometry>
        </mxCell>
        <mxCell id="fFfavN8Qj9UDiZofzjUI-145" value="" style="endArrow=none;html=1;rounded=0;exitX=1;exitY=0.5;exitDx=0;exitDy=0;entryX=0;entryY=0.5;entryDx=0;entryDy=0;" parent="1" source="fFfavN8Qj9UDiZofzjUI-138" target="fFfavN8Qj9UDiZofzjUI-131" edge="1">
          <mxGeometry width="50" height="50" relative="1" as="geometry">
            <mxPoint x="-714" y="-854" as="sourcePoint" />
            <mxPoint x="-801" y="-812" as="targetPoint" />
          </mxGeometry>
        </mxCell>
        <mxCell id="fFfavN8Qj9UDiZofzjUI-148" value="" style="endArrow=none;html=1;rounded=0;exitX=0.25;exitY=1;exitDx=0;exitDy=0;entryX=0.25;entryY=0;entryDx=0;entryDy=0;" parent="1" source="fFfavN8Qj9UDiZofzjUI-136" target="SSVQXBcXOp7XfPBqwCCu-6" edge="1">
          <mxGeometry width="50" height="50" relative="1" as="geometry">
            <mxPoint x="-796" y="-866" as="sourcePoint" />
            <mxPoint x="-718" y="-760" as="targetPoint" />
          </mxGeometry>
        </mxCell>
        <mxCell id="fFfavN8Qj9UDiZofzjUI-150" value="" style="endArrow=none;html=1;rounded=0;exitX=0;exitY=0.5;exitDx=0;exitDy=0;entryX=1;entryY=0.5;entryDx=0;entryDy=0;" parent="1" source="fFfavN8Qj9UDiZofzjUI-136" target="fFfavN8Qj9UDiZofzjUI-266" edge="1">
          <mxGeometry width="50" height="50" relative="1" as="geometry">
            <mxPoint x="-660" y="-929" as="sourcePoint" />
            <mxPoint x="-942" y="-932.0000000000001" as="targetPoint" />
          </mxGeometry>
        </mxCell>
        <mxCell id="fFfavN8Qj9UDiZofzjUI-152" value="" style="endArrow=none;html=1;rounded=0;exitX=0;exitY=1;exitDx=0;exitDy=0;entryX=1;entryY=0;entryDx=0;entryDy=0;" parent="1" source="fFfavN8Qj9UDiZofzjUI-136" target="5aScD9VIwKOivwd3Amo--43" edge="1">
          <mxGeometry width="50" height="50" relative="1" as="geometry">
            <mxPoint x="-796" y="-866" as="sourcePoint" />
            <mxPoint x="-833" y="144" as="targetPoint" />
          </mxGeometry>
        </mxCell>
        <mxCell id="fFfavN8Qj9UDiZofzjUI-153" value="Manage_Debt_Scr" style="swimlane;whiteSpace=wrap;html=1;startSize=23;fillColor=#f8cecc;strokeColor=#b85450;" parent="1" vertex="1">
          <mxGeometry x="-804" y="691" width="170" height="97" as="geometry">
            <mxRectangle x="200" y="320" width="120" height="30" as="alternateBounds" />
          </mxGeometry>
        </mxCell>
        <mxCell id="fFfavN8Qj9UDiZofzjUI-154" value="&lt;span style=&quot;text-align: center; text-wrap-mode: nowrap;&quot;&gt;+ LoadList()&lt;/span&gt;" style="text;strokeColor=light-dark(#000000,#512D2B);fillColor=default;align=left;verticalAlign=top;spacingLeft=4;spacingRight=4;overflow=hidden;rotatable=0;points=[[0,0.5],[1,0.5]];portConstraint=eastwest;whiteSpace=wrap;html=1;" parent="fFfavN8Qj9UDiZofzjUI-153" vertex="1">
          <mxGeometry y="20" width="170" height="26" as="geometry" />
        </mxCell>
        <mxCell id="fFfavN8Qj9UDiZofzjUI-155" value="+ ShowResults(): void" style="text;strokeColor=light-dark(#000000,#512D2B);fillColor=default;align=left;verticalAlign=top;spacingLeft=4;spacingRight=4;overflow=hidden;rotatable=0;points=[[0,0.5],[1,0.5]];portConstraint=eastwest;whiteSpace=wrap;html=1;" parent="fFfavN8Qj9UDiZofzjUI-153" vertex="1">
          <mxGeometry y="46" width="170" height="26" as="geometry" />
        </mxCell>
        <mxCell id="fFfavN8Qj9UDiZofzjUI-172" value="&lt;span style=&quot;text-align: center; text-wrap-mode: nowrap;&quot;&gt;+ UpdateList(): void&lt;/span&gt;" style="text;strokeColor=light-dark(#000000,#512D2B);fillColor=default;align=left;verticalAlign=top;spacingLeft=4;spacingRight=4;overflow=hidden;rotatable=0;points=[[0,0.5],[1,0.5]];portConstraint=eastwest;whiteSpace=wrap;html=1;" parent="fFfavN8Qj9UDiZofzjUI-153" vertex="1">
          <mxGeometry y="72" width="170" height="26" as="geometry" />
        </mxCell>
        <mxCell id="fFfavN8Qj9UDiZofzjUI-156" value="Tnt_Payment_Scr" style="swimlane;whiteSpace=wrap;html=1;startSize=23;fillColor=#f8cecc;strokeColor=#b85450;" parent="1" vertex="1">
          <mxGeometry x="-974" y="592" width="170" height="71" as="geometry">
            <mxRectangle x="200" y="320" width="120" height="30" as="alternateBounds" />
          </mxGeometry>
        </mxCell>
        <mxCell id="fFfavN8Qj9UDiZofzjUI-157" value="+ display(): void" style="text;strokeColor=light-dark(#000000,#512D2B);fillColor=default;align=left;verticalAlign=top;spacingLeft=4;spacingRight=4;overflow=hidden;rotatable=0;points=[[0,0.5],[1,0.5]];portConstraint=eastwest;whiteSpace=wrap;html=1;" parent="fFfavN8Qj9UDiZofzjUI-156" vertex="1">
          <mxGeometry y="20" width="170" height="26" as="geometry" />
        </mxCell>
        <mxCell id="fFfavN8Qj9UDiZofzjUI-158" value="&lt;span style=&quot;text-align: center; text-wrap-mode: nowrap;&quot;&gt;+ SelectPayment()&lt;/span&gt;" style="text;strokeColor=light-dark(#000000,#512D2B);fillColor=default;align=left;verticalAlign=top;spacingLeft=4;spacingRight=4;overflow=hidden;rotatable=0;points=[[0,0.5],[1,0.5]];portConstraint=eastwest;whiteSpace=wrap;html=1;" parent="fFfavN8Qj9UDiZofzjUI-156" vertex="1">
          <mxGeometry y="46" width="170" height="26" as="geometry" />
        </mxCell>
        <mxCell id="fFfavN8Qj9UDiZofzjUI-160" value="Tnt_PaymentComp_Scr" style="swimlane;whiteSpace=wrap;html=1;startSize=23;fillColor=#f8cecc;strokeColor=#b85450;" parent="1" vertex="1">
          <mxGeometry x="-1086" y="774" width="170" height="201" as="geometry">
            <mxRectangle x="200" y="320" width="120" height="30" as="alternateBounds" />
          </mxGeometry>
        </mxCell>
        <mxCell id="fFfavN8Qj9UDiZofzjUI-161" value="+ display(): void" style="text;strokeColor=light-dark(#000000,#512D2B);fillColor=default;align=left;verticalAlign=top;spacingLeft=4;spacingRight=4;overflow=hidden;rotatable=0;points=[[0,0.5],[1,0.5]];portConstraint=eastwest;whiteSpace=wrap;html=1;" parent="fFfavN8Qj9UDiZofzjUI-160" vertex="1">
          <mxGeometry y="20" width="170" height="26" as="geometry" />
        </mxCell>
        <mxCell id="fFfavN8Qj9UDiZofzjUI-162" value="&lt;span style=&quot;text-align: center; text-wrap-mode: nowrap;&quot;&gt;+ FillForm(): void&lt;/span&gt;" style="text;strokeColor=light-dark(#000000,#512D2B);fillColor=default;align=left;verticalAlign=top;spacingLeft=4;spacingRight=4;overflow=hidden;rotatable=0;points=[[0,0.5],[1,0.5]];portConstraint=eastwest;whiteSpace=wrap;html=1;" parent="fFfavN8Qj9UDiZofzjUI-160" vertex="1">
          <mxGeometry y="46" width="170" height="26" as="geometry" />
        </mxCell>
        <mxCell id="fFfavN8Qj9UDiZofzjUI-169" value="&lt;span style=&quot;text-align: center; text-wrap-mode: nowrap;&quot;&gt;+ SubmitButton(): void&lt;/span&gt;" style="text;strokeColor=light-dark(#000000,#512D2B);fillColor=default;align=left;verticalAlign=top;spacingLeft=4;spacingRight=4;overflow=hidden;rotatable=0;points=[[0,0.5],[1,0.5]];portConstraint=eastwest;whiteSpace=wrap;html=1;" parent="fFfavN8Qj9UDiZofzjUI-160" vertex="1">
          <mxGeometry y="72" width="170" height="26" as="geometry" />
        </mxCell>
        <mxCell id="fFfavN8Qj9UDiZofzjUI-170" value="&lt;span style=&quot;text-align: center; text-wrap-mode: nowrap;&quot;&gt;+ CheckForm()&lt;/span&gt;" style="text;strokeColor=light-dark(#000000,#512D2B);fillColor=default;align=left;verticalAlign=top;spacingLeft=4;spacingRight=4;overflow=hidden;rotatable=0;points=[[0,0.5],[1,0.5]];portConstraint=eastwest;whiteSpace=wrap;html=1;" parent="fFfavN8Qj9UDiZofzjUI-160" vertex="1">
          <mxGeometry y="98" width="170" height="26" as="geometry" />
        </mxCell>
        <mxCell id="fFfavN8Qj9UDiZofzjUI-171" value="&lt;span style=&quot;text-align: center; text-wrap-mode: nowrap;&quot;&gt;+ AddData(): void&lt;/span&gt;" style="text;strokeColor=light-dark(#000000,#512D2B);fillColor=default;align=left;verticalAlign=top;spacingLeft=4;spacingRight=4;overflow=hidden;rotatable=0;points=[[0,0.5],[1,0.5]];portConstraint=eastwest;whiteSpace=wrap;html=1;" parent="fFfavN8Qj9UDiZofzjUI-160" vertex="1">
          <mxGeometry y="124" width="170" height="26" as="geometry" />
        </mxCell>
        <mxCell id="fFfavN8Qj9UDiZofzjUI-173" value="&lt;span style=&quot;text-align: center; text-wrap-mode: nowrap;&quot;&gt;+ ConfMessage(): void&lt;/span&gt;" style="text;strokeColor=light-dark(#000000,#512D2B);fillColor=default;align=left;verticalAlign=top;spacingLeft=4;spacingRight=4;overflow=hidden;rotatable=0;points=[[0,0.5],[1,0.5]];portConstraint=eastwest;whiteSpace=wrap;html=1;" parent="fFfavN8Qj9UDiZofzjUI-160" vertex="1">
          <mxGeometry y="150" width="170" height="26" as="geometry" />
        </mxCell>
        <mxCell id="fFfavN8Qj9UDiZofzjUI-179" value="&lt;span style=&quot;text-align: center; text-wrap-mode: nowrap;&quot;&gt;+ ErrorMessage(): void&lt;/span&gt;" style="text;strokeColor=light-dark(#000000,#512D2B);fillColor=default;align=left;verticalAlign=top;spacingLeft=4;spacingRight=4;overflow=hidden;rotatable=0;points=[[0,0.5],[1,0.5]];portConstraint=eastwest;whiteSpace=wrap;html=1;" parent="fFfavN8Qj9UDiZofzjUI-160" vertex="1">
          <mxGeometry y="176" width="170" height="26" as="geometry" />
        </mxCell>
        <mxCell id="fFfavN8Qj9UDiZofzjUI-174" value="&lt;span style=&quot;text-wrap-mode: nowrap;&quot;&gt;Manage_Notif_Finan&lt;/span&gt;" style="swimlane;whiteSpace=wrap;html=1;startSize=23;fillColor=#f8cecc;strokeColor=#b85450;" parent="1" vertex="1">
          <mxGeometry x="-1086" y="-125" width="205" height="107" as="geometry">
            <mxRectangle x="200" y="320" width="120" height="30" as="alternateBounds" />
          </mxGeometry>
        </mxCell>
        <mxCell id="fFfavN8Qj9UDiZofzjUI-164" value="&lt;span style=&quot;text-align: center; text-wrap-mode: nowrap;&quot;&gt;+ CreateNotif()&lt;/span&gt;" style="text;strokeColor=light-dark(#000000,#512D2B);fillColor=default;align=left;verticalAlign=top;spacingLeft=4;spacingRight=4;overflow=hidden;rotatable=0;points=[[0,0.5],[1,0.5]];portConstraint=eastwest;whiteSpace=wrap;html=1;" parent="fFfavN8Qj9UDiZofzjUI-174" vertex="1">
          <mxGeometry y="23" width="205" height="28" as="geometry" />
        </mxCell>
        <mxCell id="fFfavN8Qj9UDiZofzjUI-177" value="&lt;span style=&quot;text-align: center; text-wrap-mode: nowrap;&quot;&gt;+ LoadNotifications()&lt;/span&gt;" style="text;strokeColor=light-dark(#000000,#512D2B);fillColor=default;align=left;verticalAlign=top;spacingLeft=4;spacingRight=4;overflow=hidden;rotatable=0;points=[[0,0.5],[1,0.5]];portConstraint=eastwest;whiteSpace=wrap;html=1;" parent="fFfavN8Qj9UDiZofzjUI-174" vertex="1">
          <mxGeometry y="51" width="205" height="28" as="geometry" />
        </mxCell>
        <mxCell id="fFfavN8Qj9UDiZofzjUI-178" value="+ ShowResults(): void" style="text;strokeColor=light-dark(#000000,#512D2B);fillColor=default;align=left;verticalAlign=top;spacingLeft=4;spacingRight=4;overflow=hidden;rotatable=0;points=[[0,0.5],[1,0.5]];portConstraint=eastwest;whiteSpace=wrap;html=1;" parent="fFfavN8Qj9UDiZofzjUI-174" vertex="1">
          <mxGeometry y="79" width="205" height="28" as="geometry" />
        </mxCell>
        <mxCell id="fFfavN8Qj9UDiZofzjUI-180" value="" style="endArrow=none;html=1;rounded=0;exitX=1;exitY=0;exitDx=0;exitDy=0;entryX=0.75;entryY=1;entryDx=0;entryDy=0;" parent="1" source="fFfavN8Qj9UDiZofzjUI-153" target="fFfavN8Qj9UDiZofzjUI-74" edge="1">
          <mxGeometry width="50" height="50" relative="1" as="geometry">
            <mxPoint x="-394" y="587" as="sourcePoint" />
            <mxPoint x="-464" y="467" as="targetPoint" />
          </mxGeometry>
        </mxCell>
        <mxCell id="fFfavN8Qj9UDiZofzjUI-182" value="" style="endArrow=none;html=1;rounded=0;entryX=0;entryY=0;entryDx=0;entryDy=0;exitX=1;exitY=0.5;exitDx=0;exitDy=0;" parent="1" source="fFfavN8Qj9UDiZofzjUI-153" target="fFfavN8Qj9UDiZofzjUI-290" edge="1">
          <mxGeometry width="50" height="50" relative="1" as="geometry">
            <mxPoint x="-1280" y="630" as="sourcePoint" />
            <mxPoint x="-429" y="798" as="targetPoint" />
          </mxGeometry>
        </mxCell>
        <mxCell id="fFfavN8Qj9UDiZofzjUI-183" value="" style="endArrow=none;html=1;rounded=0;entryX=0;entryY=0.5;entryDx=0;entryDy=0;exitX=1;exitY=0.5;exitDx=0;exitDy=0;" parent="1" source="fFfavN8Qj9UDiZofzjUI-162" target="fFfavN8Qj9UDiZofzjUI-154" edge="1">
          <mxGeometry width="50" height="50" relative="1" as="geometry">
            <mxPoint x="-439" y="740" as="sourcePoint" />
            <mxPoint x="-356" y="788" as="targetPoint" />
          </mxGeometry>
        </mxCell>
        <mxCell id="fFfavN8Qj9UDiZofzjUI-184" value="" style="endArrow=none;html=1;rounded=0;entryX=1;entryY=0.5;entryDx=0;entryDy=0;exitX=0.25;exitY=0;exitDx=0;exitDy=0;" parent="1" source="fFfavN8Qj9UDiZofzjUI-153" target="fFfavN8Qj9UDiZofzjUI-156" edge="1">
          <mxGeometry width="50" height="50" relative="1" as="geometry">
            <mxPoint x="-439" y="740" as="sourcePoint" />
            <mxPoint x="-356" y="788" as="targetPoint" />
          </mxGeometry>
        </mxCell>
        <mxCell id="fFfavN8Qj9UDiZofzjUI-185" value="" style="endArrow=none;html=1;rounded=0;entryX=0.5;entryY=1;entryDx=0;entryDy=0;exitX=0.5;exitY=0;exitDx=0;exitDy=0;" parent="1" source="fFfavN8Qj9UDiZofzjUI-160" target="fFfavN8Qj9UDiZofzjUI-156" edge="1">
          <mxGeometry width="50" height="50" relative="1" as="geometry">
            <mxPoint x="-707" y="813" as="sourcePoint" />
            <mxPoint x="-609" y="724" as="targetPoint" />
          </mxGeometry>
        </mxCell>
        <mxCell id="fFfavN8Qj9UDiZofzjUI-186" value="" style="endArrow=none;html=1;rounded=0;entryX=0.5;entryY=0;entryDx=0;entryDy=0;exitX=0.5;exitY=1;exitDx=0;exitDy=0;" parent="1" source="fFfavN8Qj9UDiZofzjUI-174" target="SSVQXBcXOp7XfPBqwCCu-6" edge="1">
          <mxGeometry width="50" height="50" relative="1" as="geometry">
            <mxPoint x="-792" y="754" as="sourcePoint" />
            <mxPoint x="-789" y="677" as="targetPoint" />
          </mxGeometry>
        </mxCell>
        <mxCell id="fFfavN8Qj9UDiZofzjUI-187" value="" style="endArrow=none;html=1;rounded=0;entryX=0;entryY=0;entryDx=0;entryDy=0;exitX=0.25;exitY=1;exitDx=0;exitDy=0;" parent="1" source="fFfavN8Qj9UDiZofzjUI-174" target="5aScD9VIwKOivwd3Amo--27" edge="1">
          <mxGeometry width="50" height="50" relative="1" as="geometry">
            <mxPoint x="-993" y="699" as="sourcePoint" />
            <mxPoint x="-833" y="413" as="targetPoint" />
          </mxGeometry>
        </mxCell>
        <mxCell id="fFfavN8Qj9UDiZofzjUI-189" value="" style="endArrow=none;html=1;rounded=0;entryX=0.25;entryY=1;entryDx=0;entryDy=0;exitX=1;exitY=0;exitDx=0;exitDy=0;" parent="1" source="fFfavN8Qj9UDiZofzjUI-174" target="Xgi3c2Zr5CXY41PrPyP7-1" edge="1">
          <mxGeometry width="50" height="50" relative="1" as="geometry">
            <mxPoint x="-1487" y="-56" as="sourcePoint" />
            <mxPoint x="-452" y="-321" as="targetPoint" />
          </mxGeometry>
        </mxCell>
        <mxCell id="fFfavN8Qj9UDiZofzjUI-190" value="ManageReservClass" style="swimlane;whiteSpace=wrap;html=1;fillColor=#f8cecc;strokeColor=#b85450;startSize=23;" parent="1" vertex="1">
          <mxGeometry x="-131" y="526" width="182" height="203" as="geometry" />
        </mxCell>
        <mxCell id="fFfavN8Qj9UDiZofzjUI-191" value="&lt;span style=&quot;font-size: 11px; text-align: center; text-wrap-mode: nowrap; background-color: rgb(255, 255, 255);&quot;&gt;+ LoadList()&lt;/span&gt;" style="text;strokeColor=light-dark(#000000,#512D2B);fillColor=default;align=left;verticalAlign=top;spacingLeft=4;spacingRight=4;overflow=hidden;rotatable=0;points=[[0,0.5],[1,0.5]];portConstraint=eastwest;whiteSpace=wrap;html=1;" parent="fFfavN8Qj9UDiZofzjUI-190" vertex="1">
          <mxGeometry y="23" width="182" height="26" as="geometry" />
        </mxCell>
        <mxCell id="fFfavN8Qj9UDiZofzjUI-192" value="&lt;span style=&quot;font-size: 11px; text-align: center; text-wrap-mode: nowrap; background-color: rgb(255, 255, 255);&quot;&gt;+ ShowResults()&lt;/span&gt;" style="text;strokeColor=light-dark(#000000,#512D2B);fillColor=default;align=left;verticalAlign=top;spacingLeft=4;spacingRight=4;overflow=hidden;rotatable=0;points=[[0,0.5],[1,0.5]];portConstraint=eastwest;whiteSpace=wrap;html=1;" parent="fFfavN8Qj9UDiZofzjUI-190" vertex="1">
          <mxGeometry y="49" width="182" height="26" as="geometry" />
        </mxCell>
        <mxCell id="fFfavN8Qj9UDiZofzjUI-193" value="&lt;span style=&quot;font-size: 11px; text-align: center; text-wrap-mode: nowrap; background-color: rgb(255, 255, 255);&quot;&gt;+ AvailCheck()&lt;/span&gt;" style="text;strokeColor=light-dark(#000000,#512D2B);fillColor=default;align=left;verticalAlign=top;spacingLeft=4;spacingRight=4;overflow=hidden;rotatable=0;points=[[0,0.5],[1,0.5]];portConstraint=eastwest;whiteSpace=wrap;html=1;" parent="fFfavN8Qj9UDiZofzjUI-190" vertex="1">
          <mxGeometry y="75" width="182" height="26" as="geometry" />
        </mxCell>
        <mxCell id="fFfavN8Qj9UDiZofzjUI-194" value="&lt;span style=&quot;font-size: 11px; text-align: center; text-wrap-mode: nowrap; background-color: rgb(255, 255, 255);&quot;&gt;+ PointCheck()&lt;/span&gt;" style="text;strokeColor=light-dark(#000000,#512D2B);fillColor=default;align=left;verticalAlign=top;spacingLeft=4;spacingRight=4;overflow=hidden;rotatable=0;points=[[0,0.5],[1,0.5]];portConstraint=eastwest;whiteSpace=wrap;html=1;" parent="fFfavN8Qj9UDiZofzjUI-190" vertex="1">
          <mxGeometry y="101" width="182" height="26" as="geometry" />
        </mxCell>
        <mxCell id="fFfavN8Qj9UDiZofzjUI-195" value="&lt;span style=&quot;font-size: 11px; text-align: center; text-wrap-mode: nowrap; background-color: rgb(255, 255, 255);&quot;&gt;+ CreateRsvr()&lt;/span&gt;" style="text;strokeColor=light-dark(#000000,#512D2B);fillColor=default;align=left;verticalAlign=top;spacingLeft=4;spacingRight=4;overflow=hidden;rotatable=0;points=[[0,0.5],[1,0.5]];portConstraint=eastwest;whiteSpace=wrap;html=1;" parent="fFfavN8Qj9UDiZofzjUI-190" vertex="1">
          <mxGeometry y="127" width="182" height="26" as="geometry" />
        </mxCell>
        <mxCell id="fFfavN8Qj9UDiZofzjUI-208" value="&lt;span style=&quot;font-size: 11px; text-align: center; text-wrap-mode: nowrap; background-color: rgb(255, 255, 255);&quot;&gt;+ RemovePoints()&lt;/span&gt;" style="text;strokeColor=light-dark(#000000,#512D2B);fillColor=default;align=left;verticalAlign=top;spacingLeft=4;spacingRight=4;overflow=hidden;rotatable=0;points=[[0,0.5],[1,0.5]];portConstraint=eastwest;whiteSpace=wrap;html=1;" parent="fFfavN8Qj9UDiZofzjUI-190" vertex="1">
          <mxGeometry y="153" width="182" height="26" as="geometry" />
        </mxCell>
        <mxCell id="fFfavN8Qj9UDiZofzjUI-209" value="&lt;span style=&quot;font-size: 11px; text-align: center; text-wrap-mode: nowrap; background-color: rgb(255, 255, 255);&quot;&gt;+ ShowError():void&lt;/span&gt;" style="text;strokeColor=light-dark(#000000,#512D2B);fillColor=default;align=left;verticalAlign=top;spacingLeft=4;spacingRight=4;overflow=hidden;rotatable=0;points=[[0,0.5],[1,0.5]];portConstraint=eastwest;whiteSpace=wrap;html=1;" parent="fFfavN8Qj9UDiZofzjUI-190" vertex="1">
          <mxGeometry y="179" width="182" height="26" as="geometry" />
        </mxCell>
        <mxCell id="fFfavN8Qj9UDiZofzjUI-196" value="Rsvt_Scr" style="swimlane;whiteSpace=wrap;html=1;startSize=23;fillColor=#f8cecc;strokeColor=#b85450;" parent="1" vertex="1">
          <mxGeometry x="-375" y="684" width="170" height="97" as="geometry">
            <mxRectangle x="200" y="320" width="120" height="30" as="alternateBounds" />
          </mxGeometry>
        </mxCell>
        <mxCell id="fFfavN8Qj9UDiZofzjUI-197" value="+ display(): void" style="text;strokeColor=light-dark(#000000,#512D2B);fillColor=default;align=left;verticalAlign=top;spacingLeft=4;spacingRight=4;overflow=hidden;rotatable=0;points=[[0,0.5],[1,0.5]];portConstraint=eastwest;whiteSpace=wrap;html=1;" parent="fFfavN8Qj9UDiZofzjUI-196" vertex="1">
          <mxGeometry y="20" width="170" height="26" as="geometry" />
        </mxCell>
        <mxCell id="fFfavN8Qj9UDiZofzjUI-198" value="&lt;span style=&quot;font-size: 11px; text-align: center; text-wrap-mode: nowrap; background-color: rgb(255, 255, 255);&quot;&gt;+ ErrorMessage(): void&lt;/span&gt;" style="text;strokeColor=light-dark(#000000,#512D2B);fillColor=default;align=left;verticalAlign=top;spacingLeft=4;spacingRight=4;overflow=hidden;rotatable=0;points=[[0,0.5],[1,0.5]];portConstraint=eastwest;whiteSpace=wrap;html=1;" parent="fFfavN8Qj9UDiZofzjUI-196" vertex="1">
          <mxGeometry y="46" width="170" height="26" as="geometry" />
        </mxCell>
        <mxCell id="fFfavN8Qj9UDiZofzjUI-218" value="&lt;span style=&quot;font-size: 11px; text-align: center; text-wrap-mode: nowrap; background-color: rgb(255, 255, 255);&quot;&gt;+ SubmitButton(): void&lt;/span&gt;" style="text;strokeColor=light-dark(#000000,#512D2B);fillColor=default;align=left;verticalAlign=top;spacingLeft=4;spacingRight=4;overflow=hidden;rotatable=0;points=[[0,0.5],[1,0.5]];portConstraint=eastwest;whiteSpace=wrap;html=1;" parent="fFfavN8Qj9UDiZofzjUI-196" vertex="1">
          <mxGeometry y="71" width="170" height="26" as="geometry" />
        </mxCell>
        <mxCell id="fFfavN8Qj9UDiZofzjUI-200" value="Check_Rsvt_Scr" style="swimlane;whiteSpace=wrap;html=1;startSize=23;fillColor=#f8cecc;strokeColor=#b85450;" parent="1" vertex="1">
          <mxGeometry x="-261" y="803" width="170" height="46" as="geometry">
            <mxRectangle x="200" y="320" width="120" height="30" as="alternateBounds" />
          </mxGeometry>
        </mxCell>
        <mxCell id="fFfavN8Qj9UDiZofzjUI-201" value="+ display(): void" style="text;strokeColor=light-dark(#000000,#512D2B);fillColor=default;align=left;verticalAlign=top;spacingLeft=4;spacingRight=4;overflow=hidden;rotatable=0;points=[[0,0.5],[1,0.5]];portConstraint=eastwest;whiteSpace=wrap;html=1;" parent="fFfavN8Qj9UDiZofzjUI-200" vertex="1">
          <mxGeometry y="20" width="170" height="26" as="geometry" />
        </mxCell>
        <mxCell id="fFfavN8Qj9UDiZofzjUI-206" value="" style="endArrow=none;html=1;rounded=0;exitX=1;exitY=0.5;exitDx=0;exitDy=0;entryX=0;entryY=0.5;entryDx=0;entryDy=0;" parent="1" source="SSVQXBcXOp7XfPBqwCCu-6" target="fFfavN8Qj9UDiZofzjUI-168" edge="1">
          <mxGeometry width="50" height="50" relative="1" as="geometry">
            <mxPoint x="-720" y="269" as="sourcePoint" />
            <mxPoint x="-170" y="258" as="targetPoint" />
          </mxGeometry>
        </mxCell>
        <mxCell id="fFfavN8Qj9UDiZofzjUI-205" value="&lt;span style=&quot;font-size: 11px; text-align: center; text-wrap-mode: nowrap; background-color: rgb(255, 255, 255);&quot;&gt;+ ReserveButton(): void&lt;/span&gt;" style="text;strokeColor=light-dark(#000000,#512D2B);fillColor=default;align=left;verticalAlign=top;spacingLeft=4;spacingRight=4;overflow=hidden;rotatable=0;points=[[0,0.5],[1,0.5]];portConstraint=eastwest;whiteSpace=wrap;html=1;" parent="1" vertex="1">
          <mxGeometry x="-509" y="251" width="170" height="26" as="geometry" />
        </mxCell>
        <mxCell id="fFfavN8Qj9UDiZofzjUI-210" value="" style="endArrow=none;html=1;rounded=0;entryX=0.25;entryY=0;entryDx=0;entryDy=0;exitX=1;exitY=1;exitDx=0;exitDy=0;" parent="1" source="fFfavN8Qj9UDiZofzjUI-74" target="fFfavN8Qj9UDiZofzjUI-190" edge="1">
          <mxGeometry width="50" height="50" relative="1" as="geometry">
            <mxPoint x="155" y="345" as="sourcePoint" />
            <mxPoint x="107" y="273" as="targetPoint" />
          </mxGeometry>
        </mxCell>
        <mxCell id="fFfavN8Qj9UDiZofzjUI-211" value="" style="endArrow=none;html=1;rounded=0;entryX=0.75;entryY=0;entryDx=0;entryDy=0;exitX=0.75;exitY=1;exitDx=0;exitDy=0;" parent="1" source="fFfavN8Qj9UDiZofzjUI-190" target="fFfavN8Qj9UDiZofzjUI-295" edge="1">
          <mxGeometry width="50" height="50" relative="1" as="geometry">
            <mxPoint x="-3" y="762" as="sourcePoint" />
            <mxPoint x="-86.26999999999998" y="954.3799999999997" as="targetPoint" />
          </mxGeometry>
        </mxCell>
        <mxCell id="fFfavN8Qj9UDiZofzjUI-212" value="" style="endArrow=none;html=1;rounded=0;entryX=1;entryY=0.5;entryDx=0;entryDy=0;exitX=0;exitY=0.5;exitDx=0;exitDy=0;" parent="1" source="fFfavN8Qj9UDiZofzjUI-190" target="fFfavN8Qj9UDiZofzjUI-196" edge="1">
          <mxGeometry width="50" height="50" relative="1" as="geometry">
            <mxPoint x="-214" y="780" as="sourcePoint" />
            <mxPoint x="-131" y="829" as="targetPoint" />
          </mxGeometry>
        </mxCell>
        <mxCell id="fFfavN8Qj9UDiZofzjUI-215" value="" style="endArrow=none;html=1;rounded=0;entryX=0;entryY=0;entryDx=0;entryDy=0;exitX=0;exitY=1;exitDx=0;exitDy=0;" parent="1" source="SSVQXBcXOp7XfPBqwCCu-7" target="fFfavN8Qj9UDiZofzjUI-190" edge="1">
          <mxGeometry width="50" height="50" relative="1" as="geometry">
            <mxPoint x="-329" y="313" as="sourcePoint" />
            <mxPoint x="-75" y="536" as="targetPoint" />
          </mxGeometry>
        </mxCell>
        <mxCell id="fFfavN8Qj9UDiZofzjUI-217" value="" style="endArrow=none;html=1;rounded=0;entryX=0.75;entryY=0;entryDx=0;entryDy=0;exitX=0.25;exitY=1;exitDx=0;exitDy=0;" parent="1" source="fFfavN8Qj9UDiZofzjUI-190" target="fFfavN8Qj9UDiZofzjUI-200" edge="1">
          <mxGeometry width="50" height="50" relative="1" as="geometry">
            <mxPoint x="-121" y="638" as="sourcePoint" />
            <mxPoint x="-195" y="730" as="targetPoint" />
          </mxGeometry>
        </mxCell>
        <mxCell id="fFfavN8Qj9UDiZofzjUI-219" value="Manage_Lost_Found" style="swimlane;whiteSpace=wrap;html=1;fillColor=#f8cecc;strokeColor=#b85450;startSize=23;" parent="1" vertex="1">
          <mxGeometry x="92" y="503" width="182" height="100" as="geometry" />
        </mxCell>
        <mxCell id="fFfavN8Qj9UDiZofzjUI-220" value="&lt;span style=&quot;font-size: 11px; text-align: center; text-wrap-mode: nowrap; background-color: rgb(255, 255, 255);&quot;&gt;+ LoadList()&lt;/span&gt;" style="text;strokeColor=light-dark(#000000,#512D2B);fillColor=default;align=left;verticalAlign=top;spacingLeft=4;spacingRight=4;overflow=hidden;rotatable=0;points=[[0,0.5],[1,0.5]];portConstraint=eastwest;whiteSpace=wrap;html=1;" parent="fFfavN8Qj9UDiZofzjUI-219" vertex="1">
          <mxGeometry y="23" width="182" height="26" as="geometry" />
        </mxCell>
        <mxCell id="fFfavN8Qj9UDiZofzjUI-221" value="&lt;span style=&quot;font-size: 11px; text-align: center; text-wrap-mode: nowrap; background-color: rgb(255, 255, 255);&quot;&gt;+ ShowResults()&lt;/span&gt;" style="text;strokeColor=light-dark(#000000,#512D2B);fillColor=default;align=left;verticalAlign=top;spacingLeft=4;spacingRight=4;overflow=hidden;rotatable=0;points=[[0,0.5],[1,0.5]];portConstraint=eastwest;whiteSpace=wrap;html=1;" parent="fFfavN8Qj9UDiZofzjUI-219" vertex="1">
          <mxGeometry y="49" width="182" height="26" as="geometry" />
        </mxCell>
        <mxCell id="fFfavN8Qj9UDiZofzjUI-222" value="&lt;span style=&quot;text-align: center; text-wrap-mode: nowrap;&quot;&gt;+ UpdateList(): void&lt;/span&gt;" style="text;strokeColor=light-dark(#000000,#512D2B);fillColor=default;align=left;verticalAlign=top;spacingLeft=4;spacingRight=4;overflow=hidden;rotatable=0;points=[[0,0.5],[1,0.5]];portConstraint=eastwest;whiteSpace=wrap;html=1;" parent="fFfavN8Qj9UDiZofzjUI-219" vertex="1">
          <mxGeometry y="75" width="182" height="26" as="geometry" />
        </mxCell>
        <mxCell id="fFfavN8Qj9UDiZofzjUI-227" value="Tnt_LostFound_Scr" style="swimlane;whiteSpace=wrap;html=1;startSize=23;fillColor=#f8cecc;strokeColor=#b85450;" parent="1" vertex="1">
          <mxGeometry x="160" y="768" width="170" height="73" as="geometry">
            <mxRectangle x="200" y="320" width="120" height="30" as="alternateBounds" />
          </mxGeometry>
        </mxCell>
        <mxCell id="fFfavN8Qj9UDiZofzjUI-228" value="+ display(): void" style="text;strokeColor=light-dark(#000000,#512D2B);fillColor=default;align=left;verticalAlign=top;spacingLeft=4;spacingRight=4;overflow=hidden;rotatable=0;points=[[0,0.5],[1,0.5]];portConstraint=eastwest;whiteSpace=wrap;html=1;" parent="fFfavN8Qj9UDiZofzjUI-227" vertex="1">
          <mxGeometry y="20" width="170" height="26" as="geometry" />
        </mxCell>
        <mxCell id="fFfavN8Qj9UDiZofzjUI-248" value="&lt;span style=&quot;text-align: center; text-wrap-mode: nowrap;&quot;&gt;+ NewEntryButton(): void&lt;/span&gt;" style="text;strokeColor=light-dark(#000000,#512D2B);fillColor=default;align=left;verticalAlign=top;spacingLeft=4;spacingRight=4;overflow=hidden;rotatable=0;points=[[0,0.5],[1,0.5]];portConstraint=eastwest;whiteSpace=wrap;html=1;" parent="fFfavN8Qj9UDiZofzjUI-227" vertex="1">
          <mxGeometry y="47" width="170" height="26" as="geometry" />
        </mxCell>
        <mxCell id="fFfavN8Qj9UDiZofzjUI-232" value="Tnt_LostFound_Entry_Scr" style="swimlane;whiteSpace=wrap;html=1;startSize=23;fillColor=#f8cecc;strokeColor=#b85450;" parent="1" vertex="1">
          <mxGeometry x="4" y="992" width="170" height="173" as="geometry">
            <mxRectangle x="200" y="320" width="120" height="30" as="alternateBounds" />
          </mxGeometry>
        </mxCell>
        <mxCell id="fFfavN8Qj9UDiZofzjUI-233" value="+ display(): void" style="text;strokeColor=light-dark(#000000,#512D2B);fillColor=default;align=left;verticalAlign=top;spacingLeft=4;spacingRight=4;overflow=hidden;rotatable=0;points=[[0,0.5],[1,0.5]];portConstraint=eastwest;whiteSpace=wrap;html=1;" parent="fFfavN8Qj9UDiZofzjUI-232" vertex="1">
          <mxGeometry y="20" width="170" height="26" as="geometry" />
        </mxCell>
        <mxCell id="fFfavN8Qj9UDiZofzjUI-234" value="&lt;span style=&quot;text-align: center; text-wrap-mode: nowrap;&quot;&gt;+ FillForm(): void&lt;/span&gt;" style="text;strokeColor=light-dark(#000000,#512D2B);fillColor=default;align=left;verticalAlign=top;spacingLeft=4;spacingRight=4;overflow=hidden;rotatable=0;points=[[0,0.5],[1,0.5]];portConstraint=eastwest;whiteSpace=wrap;html=1;" parent="fFfavN8Qj9UDiZofzjUI-232" vertex="1">
          <mxGeometry y="46" width="170" height="26" as="geometry" />
        </mxCell>
        <mxCell id="fFfavN8Qj9UDiZofzjUI-235" value="&lt;span style=&quot;text-align: center; text-wrap-mode: nowrap;&quot;&gt;+ SubmitButton(): void&lt;/span&gt;" style="text;strokeColor=light-dark(#000000,#512D2B);fillColor=default;align=left;verticalAlign=top;spacingLeft=4;spacingRight=4;overflow=hidden;rotatable=0;points=[[0,0.5],[1,0.5]];portConstraint=eastwest;whiteSpace=wrap;html=1;" parent="fFfavN8Qj9UDiZofzjUI-232" vertex="1">
          <mxGeometry y="72" width="170" height="26" as="geometry" />
        </mxCell>
        <mxCell id="fFfavN8Qj9UDiZofzjUI-246" value="&lt;span style=&quot;text-align: center; text-wrap-mode: nowrap;&quot;&gt;+ AddData(): void&lt;/span&gt;" style="text;strokeColor=light-dark(#000000,#512D2B);fillColor=default;align=left;verticalAlign=top;spacingLeft=4;spacingRight=4;overflow=hidden;rotatable=0;points=[[0,0.5],[1,0.5]];portConstraint=eastwest;whiteSpace=wrap;html=1;" parent="fFfavN8Qj9UDiZofzjUI-232" vertex="1">
          <mxGeometry y="98" width="170" height="26" as="geometry" />
        </mxCell>
        <mxCell id="fFfavN8Qj9UDiZofzjUI-247" value="&lt;span style=&quot;text-align: center; text-wrap-mode: nowrap;&quot;&gt;+ CheckForm()&lt;/span&gt;" style="text;strokeColor=light-dark(#000000,#512D2B);fillColor=default;align=left;verticalAlign=top;spacingLeft=4;spacingRight=4;overflow=hidden;rotatable=0;points=[[0,0.5],[1,0.5]];portConstraint=eastwest;whiteSpace=wrap;html=1;" parent="fFfavN8Qj9UDiZofzjUI-232" vertex="1">
          <mxGeometry y="122" width="170" height="26" as="geometry" />
        </mxCell>
        <mxCell id="fFfavN8Qj9UDiZofzjUI-255" value="&lt;span style=&quot;text-align: center; text-wrap-mode: nowrap;&quot;&gt;+ ErrorMessage(): void&lt;/span&gt;" style="text;strokeColor=light-dark(#000000,#512D2B);fillColor=default;align=left;verticalAlign=top;spacingLeft=4;spacingRight=4;overflow=hidden;rotatable=0;points=[[0,0.5],[1,0.5]];portConstraint=eastwest;whiteSpace=wrap;html=1;" parent="fFfavN8Qj9UDiZofzjUI-232" vertex="1">
          <mxGeometry y="148" width="170" height="26" as="geometry" />
        </mxCell>
        <mxCell id="fFfavN8Qj9UDiZofzjUI-236" value="&lt;span style=&quot;text-wrap-mode: nowrap;&quot;&gt;Manage_Notif_LostFound&lt;/span&gt;" style="swimlane;whiteSpace=wrap;html=1;startSize=23;fillColor=#f8cecc;strokeColor=#b85450;" parent="1" vertex="1">
          <mxGeometry x="-647" y="846" width="205" height="107" as="geometry">
            <mxRectangle x="200" y="320" width="120" height="30" as="alternateBounds" />
          </mxGeometry>
        </mxCell>
        <mxCell id="fFfavN8Qj9UDiZofzjUI-237" value="&lt;span style=&quot;text-align: center; text-wrap-mode: nowrap;&quot;&gt;+ CreateNotif()&lt;/span&gt;" style="text;strokeColor=light-dark(#000000,#512D2B);fillColor=default;align=left;verticalAlign=top;spacingLeft=4;spacingRight=4;overflow=hidden;rotatable=0;points=[[0,0.5],[1,0.5]];portConstraint=eastwest;whiteSpace=wrap;html=1;" parent="fFfavN8Qj9UDiZofzjUI-236" vertex="1">
          <mxGeometry y="23" width="205" height="28" as="geometry" />
        </mxCell>
        <mxCell id="fFfavN8Qj9UDiZofzjUI-238" value="&lt;span style=&quot;text-align: center; text-wrap-mode: nowrap;&quot;&gt;+ LoadNotifications()&lt;/span&gt;" style="text;strokeColor=light-dark(#000000,#512D2B);fillColor=default;align=left;verticalAlign=top;spacingLeft=4;spacingRight=4;overflow=hidden;rotatable=0;points=[[0,0.5],[1,0.5]];portConstraint=eastwest;whiteSpace=wrap;html=1;" parent="fFfavN8Qj9UDiZofzjUI-236" vertex="1">
          <mxGeometry y="51" width="205" height="28" as="geometry" />
        </mxCell>
        <mxCell id="fFfavN8Qj9UDiZofzjUI-239" value="+ ShowResults(): void" style="text;strokeColor=light-dark(#000000,#512D2B);fillColor=default;align=left;verticalAlign=top;spacingLeft=4;spacingRight=4;overflow=hidden;rotatable=0;points=[[0,0.5],[1,0.5]];portConstraint=eastwest;whiteSpace=wrap;html=1;" parent="fFfavN8Qj9UDiZofzjUI-236" vertex="1">
          <mxGeometry y="79" width="205" height="28" as="geometry" />
        </mxCell>
        <mxCell id="fFfavN8Qj9UDiZofzjUI-256" value="" style="endArrow=none;html=1;rounded=0;entryX=0;entryY=0;entryDx=0;entryDy=0;exitX=1;exitY=0.5;exitDx=0;exitDy=0;" parent="1" source="fFfavN8Qj9UDiZofzjUI-243" target="fFfavN8Qj9UDiZofzjUI-219" edge="1">
          <mxGeometry width="50" height="50" relative="1" as="geometry">
            <mxPoint x="-329" y="413" as="sourcePoint" />
            <mxPoint x="-75" y="536" as="targetPoint" />
          </mxGeometry>
        </mxCell>
        <mxCell id="fFfavN8Qj9UDiZofzjUI-258" value="" style="endArrow=none;html=1;rounded=0;entryX=0.25;entryY=1;entryDx=0;entryDy=0;exitX=0.5;exitY=0;exitDx=0;exitDy=0;" parent="1" source="fFfavN8Qj9UDiZofzjUI-236" target="fFfavN8Qj9UDiZofzjUI-74" edge="1">
          <mxGeometry width="50" height="50" relative="1" as="geometry">
            <mxPoint x="-624" y="750" as="sourcePoint" />
            <mxPoint x="-419" y="808" as="targetPoint" />
          </mxGeometry>
        </mxCell>
        <mxCell id="fFfavN8Qj9UDiZofzjUI-259" value="" style="endArrow=none;html=1;rounded=0;entryX=0.5;entryY=0;entryDx=0;entryDy=0;exitX=0.5;exitY=1;exitDx=0;exitDy=0;" parent="1" source="fFfavN8Qj9UDiZofzjUI-219" target="fFfavN8Qj9UDiZofzjUI-300" edge="1">
          <mxGeometry width="50" height="50" relative="1" as="geometry">
            <mxPoint x="16" y="739" as="sourcePoint" />
            <mxPoint x="32" y="865" as="targetPoint" />
          </mxGeometry>
        </mxCell>
        <mxCell id="fFfavN8Qj9UDiZofzjUI-260" value="" style="endArrow=none;html=1;rounded=0;entryX=0.5;entryY=0;entryDx=0;entryDy=0;exitX=0.75;exitY=1;exitDx=0;exitDy=0;" parent="1" source="fFfavN8Qj9UDiZofzjUI-219" target="fFfavN8Qj9UDiZofzjUI-227" edge="1">
          <mxGeometry width="50" height="50" relative="1" as="geometry">
            <mxPoint x="193" y="613" as="sourcePoint" />
            <mxPoint x="79" y="880" as="targetPoint" />
          </mxGeometry>
        </mxCell>
        <mxCell id="fFfavN8Qj9UDiZofzjUI-262" value="" style="endArrow=none;html=1;rounded=0;entryX=0.75;entryY=0;entryDx=0;entryDy=0;exitX=0.25;exitY=1;exitDx=0;exitDy=0;" parent="1" source="fFfavN8Qj9UDiZofzjUI-219" target="fFfavN8Qj9UDiZofzjUI-232" edge="1">
          <mxGeometry width="50" height="50" relative="1" as="geometry">
            <mxPoint x="193" y="613" as="sourcePoint" />
            <mxPoint x="42" y="875" as="targetPoint" />
          </mxGeometry>
        </mxCell>
        <mxCell id="fFfavN8Qj9UDiZofzjUI-263" value="" style="endArrow=none;html=1;rounded=0;entryX=0.5;entryY=1;entryDx=0;entryDy=0;exitX=1;exitY=0;exitDx=0;exitDy=0;" parent="1" source="fFfavN8Qj9UDiZofzjUI-232" target="fFfavN8Qj9UDiZofzjUI-227" edge="1">
          <mxGeometry width="50" height="50" relative="1" as="geometry">
            <mxPoint x="238" y="613" as="sourcePoint" />
            <mxPoint x="255" y="778" as="targetPoint" />
          </mxGeometry>
        </mxCell>
        <mxCell id="fFfavN8Qj9UDiZofzjUI-264" value="" style="endArrow=none;html=1;rounded=0;entryX=0.75;entryY=1;entryDx=0;entryDy=0;exitX=0;exitY=0;exitDx=0;exitDy=0;" parent="1" source="fFfavN8Qj9UDiZofzjUI-236" target="5aScD9VIwKOivwd3Amo--43" edge="1">
          <mxGeometry width="50" height="50" relative="1" as="geometry">
            <mxPoint x="-906" y="843" as="sourcePoint" />
            <mxPoint x="-794" y="734" as="targetPoint" />
          </mxGeometry>
        </mxCell>
        <mxCell id="fFfavN8Qj9UDiZofzjUI-265" value="" style="endArrow=none;html=1;rounded=0;exitX=0.75;exitY=0;exitDx=0;exitDy=0;entryX=1;entryY=1;entryDx=0;entryDy=0;" parent="1" source="fFfavN8Qj9UDiZofzjUI-236" target="SSVQXBcXOp7XfPBqwCCu-6" edge="1">
          <mxGeometry width="50" height="50" relative="1" as="geometry">
            <mxPoint x="-624" y="701" as="sourcePoint" />
            <mxPoint x="-371" y="413" as="targetPoint" />
          </mxGeometry>
        </mxCell>
        <mxCell id="fFfavN8Qj9UDiZofzjUI-266" value="Maintenance" style="swimlane;whiteSpace=wrap;html=1;fillColor=#f8cecc;strokeColor=#b85450;" parent="1" vertex="1">
          <mxGeometry x="-1099" y="-1019" width="164" height="162" as="geometry" />
        </mxCell>
        <mxCell id="fFfavN8Qj9UDiZofzjUI-267" value="# Maintenance_id: int" style="text;strokeColor=light-dark(#000000,#512D2B);fillColor=default;align=left;verticalAlign=top;spacingLeft=4;spacingRight=4;overflow=hidden;rotatable=0;points=[[0,0.5],[1,0.5]];portConstraint=eastwest;whiteSpace=wrap;html=1;" parent="fFfavN8Qj9UDiZofzjUI-266" vertex="1">
          <mxGeometry y="23" width="164" height="30" as="geometry" />
        </mxCell>
        <mxCell id="fFfavN8Qj9UDiZofzjUI-268" value="# Maintenance_list:&lt;br&gt;&lt;div&gt;&lt;span style=&quot;background-color: transparent; color: light-dark(rgb(0, 0, 0), rgb(255, 255, 255));&quot;&gt;Maintenance&lt;/span&gt;[]&lt;/div&gt;" style="text;strokeColor=light-dark(#000000,#512D2B);fillColor=default;align=left;verticalAlign=top;spacingLeft=4;spacingRight=4;overflow=hidden;rotatable=0;points=[[0,0.5],[1,0.5]];portConstraint=eastwest;whiteSpace=wrap;html=1;" parent="fFfavN8Qj9UDiZofzjUI-266" vertex="1">
          <mxGeometry y="84" width="164" height="36" as="geometry" />
        </mxCell>
        <mxCell id="fFfavN8Qj9UDiZofzjUI-269" value="# Maintenance_desc: string[]" style="text;strokeColor=light-dark(#000000,#512D2B);fillColor=default;align=left;verticalAlign=top;spacingLeft=4;spacingRight=4;overflow=hidden;rotatable=0;points=[[0,0.5],[1,0.5]];portConstraint=eastwest;whiteSpace=wrap;html=1;" parent="fFfavN8Qj9UDiZofzjUI-266" vertex="1">
          <mxGeometry y="50" width="164" height="38" as="geometry" />
        </mxCell>
        <mxCell id="fFfavN8Qj9UDiZofzjUI-270" value="# addMainifToList()" style="text;strokeColor=light-dark(#000000,#512D2B);fillColor=default;align=left;verticalAlign=top;spacingLeft=4;spacingRight=4;overflow=hidden;rotatable=0;points=[[0,0.5],[1,0.5]];portConstraint=eastwest;whiteSpace=wrap;html=1;" parent="fFfavN8Qj9UDiZofzjUI-266" vertex="1">
          <mxGeometry y="120" width="164" height="42" as="geometry" />
        </mxCell>
        <mxCell id="fFfavN8Qj9UDiZofzjUI-274" value="Task" style="swimlane;whiteSpace=wrap;html=1;fillColor=#f8cecc;strokeColor=#b85450;" parent="1" vertex="1">
          <mxGeometry x="-789" y="-732" width="164" height="142" as="geometry" />
        </mxCell>
        <mxCell id="fFfavN8Qj9UDiZofzjUI-275" value="#&amp;nbsp;&lt;span style=&quot;text-align: center;&quot;&gt;Task&lt;/span&gt;_id: int" style="text;strokeColor=light-dark(#000000,#512D2B);fillColor=default;align=left;verticalAlign=top;spacingLeft=4;spacingRight=4;overflow=hidden;rotatable=0;points=[[0,0.5],[1,0.5]];portConstraint=eastwest;whiteSpace=wrap;html=1;" parent="fFfavN8Qj9UDiZofzjUI-274" vertex="1">
          <mxGeometry y="23" width="164" height="30" as="geometry" />
        </mxCell>
        <mxCell id="fFfavN8Qj9UDiZofzjUI-276" value="#&amp;nbsp;&lt;span style=&quot;text-align: center;&quot;&gt;Task&lt;/span&gt;_list:&amp;nbsp;&lt;span style=&quot;background-color: transparent; color: light-dark(rgb(0, 0, 0), rgb(255, 255, 255)); text-align: center;&quot;&gt;Task&lt;/span&gt;&lt;span style=&quot;background-color: transparent; color: light-dark(rgb(0, 0, 0), rgb(255, 255, 255));&quot;&gt;[]&lt;/span&gt;" style="text;strokeColor=light-dark(#000000,#512D2B);fillColor=default;align=left;verticalAlign=top;spacingLeft=4;spacingRight=4;overflow=hidden;rotatable=0;points=[[0,0.5],[1,0.5]];portConstraint=eastwest;whiteSpace=wrap;html=1;" parent="fFfavN8Qj9UDiZofzjUI-274" vertex="1">
          <mxGeometry y="81" width="164" height="30" as="geometry" />
        </mxCell>
        <mxCell id="fFfavN8Qj9UDiZofzjUI-277" value="#&amp;nbsp;&lt;span style=&quot;text-align: center;&quot;&gt;Task&lt;/span&gt;_desc: string[]" style="text;strokeColor=light-dark(#000000,#512D2B);fillColor=default;align=left;verticalAlign=top;spacingLeft=4;spacingRight=4;overflow=hidden;rotatable=0;points=[[0,0.5],[1,0.5]];portConstraint=eastwest;whiteSpace=wrap;html=1;" parent="fFfavN8Qj9UDiZofzjUI-274" vertex="1">
          <mxGeometry y="50" width="164" height="31" as="geometry" />
        </mxCell>
        <mxCell id="fFfavN8Qj9UDiZofzjUI-278" value="# addTaskifToList()" style="text;strokeColor=light-dark(#000000,#512D2B);fillColor=default;align=left;verticalAlign=top;spacingLeft=4;spacingRight=4;overflow=hidden;rotatable=0;points=[[0,0.5],[1,0.5]];portConstraint=eastwest;whiteSpace=wrap;html=1;" parent="fFfavN8Qj9UDiZofzjUI-274" vertex="1">
          <mxGeometry y="111" width="164" height="33" as="geometry" />
        </mxCell>
        <mxCell id="fFfavN8Qj9UDiZofzjUI-285" value="Favorites" style="swimlane;whiteSpace=wrap;html=1;fillColor=#f8cecc;strokeColor=#b85450;" parent="1" vertex="1">
          <mxGeometry x="-494" y="-842.25" width="164" height="116" as="geometry" />
        </mxCell>
        <mxCell id="fFfavN8Qj9UDiZofzjUI-286" value="&lt;div style=&quot;text-align: center;&quot;&gt;&lt;span style=&quot;background-color: transparent; color: light-dark(rgb(0, 0, 0), rgb(255, 255, 255));&quot;&gt;# Favorites&lt;/span&gt;&lt;span style=&quot;background-color: transparent; color: light-dark(rgb(0, 0, 0), rgb(255, 255, 255));&quot;&gt;_id: int&lt;/span&gt;&lt;/div&gt;" style="text;strokeColor=light-dark(#000000,#512D2B);fillColor=default;align=left;verticalAlign=top;spacingLeft=4;spacingRight=4;overflow=hidden;rotatable=0;points=[[0,0.5],[1,0.5]];portConstraint=eastwest;whiteSpace=wrap;html=1;" parent="fFfavN8Qj9UDiZofzjUI-285" vertex="1">
          <mxGeometry y="23" width="164" height="30" as="geometry" />
        </mxCell>
        <mxCell id="fFfavN8Qj9UDiZofzjUI-289" value="# addToList()" style="text;strokeColor=light-dark(#000000,#512D2B);fillColor=default;align=left;verticalAlign=top;spacingLeft=4;spacingRight=4;overflow=hidden;rotatable=0;points=[[0,0.5],[1,0.5]];portConstraint=eastwest;whiteSpace=wrap;html=1;" parent="fFfavN8Qj9UDiZofzjUI-285" vertex="1">
          <mxGeometry y="83" width="164" height="33" as="geometry" />
        </mxCell>
        <mxCell id="fFfavN8Qj9UDiZofzjUI-287" value="#&amp;nbsp;&lt;span style=&quot;text-align: center;&quot;&gt;Favorites&lt;/span&gt;_list:&amp;nbsp;&lt;span style=&quot;background-color: transparent; color: light-dark(rgb(0, 0, 0), rgb(255, 255, 255)); text-align: center;&quot;&gt;Task&lt;/span&gt;&lt;span style=&quot;background-color: transparent; color: light-dark(rgb(0, 0, 0), rgb(255, 255, 255));&quot;&gt;[]&lt;/span&gt;" style="text;strokeColor=light-dark(#000000,#512D2B);fillColor=default;align=left;verticalAlign=top;spacingLeft=4;spacingRight=4;overflow=hidden;rotatable=0;points=[[0,0.5],[1,0.5]];portConstraint=eastwest;whiteSpace=wrap;html=1;" parent="fFfavN8Qj9UDiZofzjUI-285" vertex="1">
          <mxGeometry y="53" width="164" height="30" as="geometry" />
        </mxCell>
        <mxCell id="fFfavN8Qj9UDiZofzjUI-290" value="Debts" style="swimlane;whiteSpace=wrap;html=1;fillColor=#f8cecc;strokeColor=#b85450;" parent="1" vertex="1">
          <mxGeometry x="-433" y="793" width="164" height="138" as="geometry" />
        </mxCell>
        <mxCell id="fFfavN8Qj9UDiZofzjUI-291" value="# Debts_id: int" style="text;strokeColor=light-dark(#000000,#512D2B);fillColor=default;align=left;verticalAlign=top;spacingLeft=4;spacingRight=4;overflow=hidden;rotatable=0;points=[[0,0.5],[1,0.5]];portConstraint=eastwest;whiteSpace=wrap;html=1;" parent="fFfavN8Qj9UDiZofzjUI-290" vertex="1">
          <mxGeometry y="23" width="164" height="30" as="geometry" />
        </mxCell>
        <mxCell id="fFfavN8Qj9UDiZofzjUI-292" value="# Debts_list:&amp;nbsp;&lt;span style=&quot;background-color: transparent; color: light-dark(rgb(0, 0, 0), rgb(255, 255, 255));&quot;&gt;Debts&lt;/span&gt;&lt;span style=&quot;background-color: transparent; color: light-dark(rgb(0, 0, 0), rgb(255, 255, 255));&quot;&gt;[]&lt;/span&gt;" style="text;strokeColor=light-dark(#000000,#512D2B);fillColor=default;align=left;verticalAlign=top;spacingLeft=4;spacingRight=4;overflow=hidden;rotatable=0;points=[[0,0.5],[1,0.5]];portConstraint=eastwest;whiteSpace=wrap;html=1;" parent="fFfavN8Qj9UDiZofzjUI-290" vertex="1">
          <mxGeometry y="78" width="164" height="30" as="geometry" />
        </mxCell>
        <mxCell id="fFfavN8Qj9UDiZofzjUI-293" value="# Debts_desc: string[]" style="text;strokeColor=light-dark(#000000,#512D2B);fillColor=default;align=left;verticalAlign=top;spacingLeft=4;spacingRight=4;overflow=hidden;rotatable=0;points=[[0,0.5],[1,0.5]];portConstraint=eastwest;whiteSpace=wrap;html=1;" parent="fFfavN8Qj9UDiZofzjUI-290" vertex="1">
          <mxGeometry y="50" width="164" height="28" as="geometry" />
        </mxCell>
        <mxCell id="fFfavN8Qj9UDiZofzjUI-294" value="# removeDebtFromList()" style="text;strokeColor=light-dark(#000000,#512D2B);fillColor=default;align=left;verticalAlign=top;spacingLeft=4;spacingRight=4;overflow=hidden;rotatable=0;points=[[0,0.5],[1,0.5]];portConstraint=eastwest;whiteSpace=wrap;html=1;" parent="fFfavN8Qj9UDiZofzjUI-290" vertex="1">
          <mxGeometry y="108" width="164" height="30" as="geometry" />
        </mxCell>
        <mxCell id="fFfavN8Qj9UDiZofzjUI-295" value="Reservation" style="swimlane;whiteSpace=wrap;html=1;fillColor=#f8cecc;strokeColor=#b85450;" parent="1" vertex="1">
          <mxGeometry x="-275" y="945" width="164" height="146" as="geometry" />
        </mxCell>
        <mxCell id="fFfavN8Qj9UDiZofzjUI-296" value="# Reservation_id: int" style="text;strokeColor=light-dark(#000000,#512D2B);fillColor=default;align=left;verticalAlign=top;spacingLeft=4;spacingRight=4;overflow=hidden;rotatable=0;points=[[0,0.5],[1,0.5]];portConstraint=eastwest;whiteSpace=wrap;html=1;" parent="fFfavN8Qj9UDiZofzjUI-295" vertex="1">
          <mxGeometry y="23" width="164" height="30" as="geometry" />
        </mxCell>
        <mxCell id="fFfavN8Qj9UDiZofzjUI-297" value="# Reservation_list:&amp;nbsp;&lt;br&gt;&lt;div&gt;&lt;span style=&quot;background-color: transparent; color: light-dark(rgb(0, 0, 0), rgb(255, 255, 255));&quot;&gt;Reservation&lt;/span&gt;&lt;span style=&quot;background-color: transparent; color: light-dark(rgb(0, 0, 0), rgb(255, 255, 255));&quot;&gt;[]&lt;/span&gt;&lt;/div&gt;" style="text;strokeColor=light-dark(#000000,#512D2B);fillColor=default;align=left;verticalAlign=top;spacingLeft=4;spacingRight=4;overflow=hidden;rotatable=0;points=[[0,0.5],[1,0.5]];portConstraint=eastwest;whiteSpace=wrap;html=1;" parent="fFfavN8Qj9UDiZofzjUI-295" vertex="1">
          <mxGeometry y="78" width="164" height="42" as="geometry" />
        </mxCell>
        <mxCell id="fFfavN8Qj9UDiZofzjUI-298" value="# Reservation_desc: string[]" style="text;strokeColor=light-dark(#000000,#512D2B);fillColor=default;align=left;verticalAlign=top;spacingLeft=4;spacingRight=4;overflow=hidden;rotatable=0;points=[[0,0.5],[1,0.5]];portConstraint=eastwest;whiteSpace=wrap;html=1;" parent="fFfavN8Qj9UDiZofzjUI-295" vertex="1">
          <mxGeometry y="50" width="164" height="28" as="geometry" />
        </mxCell>
        <mxCell id="fFfavN8Qj9UDiZofzjUI-299" value="# addResToList()" style="text;strokeColor=light-dark(#000000,#512D2B);fillColor=default;align=left;verticalAlign=top;spacingLeft=4;spacingRight=4;overflow=hidden;rotatable=0;points=[[0,0.5],[1,0.5]];portConstraint=eastwest;whiteSpace=wrap;html=1;" parent="fFfavN8Qj9UDiZofzjUI-295" vertex="1">
          <mxGeometry y="116" width="164" height="30" as="geometry" />
        </mxCell>
        <mxCell id="fFfavN8Qj9UDiZofzjUI-300" value="LostFound" style="swimlane;whiteSpace=wrap;html=1;fillColor=#f8cecc;strokeColor=#b85450;" parent="1" vertex="1">
          <mxGeometry x="-69" y="838" width="164" height="146" as="geometry" />
        </mxCell>
        <mxCell id="fFfavN8Qj9UDiZofzjUI-301" value="# LostFound_id: int" style="text;strokeColor=light-dark(#000000,#512D2B);fillColor=default;align=left;verticalAlign=top;spacingLeft=4;spacingRight=4;overflow=hidden;rotatable=0;points=[[0,0.5],[1,0.5]];portConstraint=eastwest;whiteSpace=wrap;html=1;" parent="fFfavN8Qj9UDiZofzjUI-300" vertex="1">
          <mxGeometry y="23" width="164" height="30" as="geometry" />
        </mxCell>
        <mxCell id="fFfavN8Qj9UDiZofzjUI-302" value="# LostFound_list:&amp;nbsp;&lt;br&gt;&lt;div&gt;&lt;span style=&quot;background-color: transparent; color: light-dark(rgb(0, 0, 0), rgb(255, 255, 255));&quot;&gt;LostFound&lt;/span&gt;&lt;span style=&quot;background-color: transparent; color: light-dark(rgb(0, 0, 0), rgb(255, 255, 255));&quot;&gt;[]&lt;/span&gt;&lt;/div&gt;" style="text;strokeColor=light-dark(#000000,#512D2B);fillColor=default;align=left;verticalAlign=top;spacingLeft=4;spacingRight=4;overflow=hidden;rotatable=0;points=[[0,0.5],[1,0.5]];portConstraint=eastwest;whiteSpace=wrap;html=1;" parent="fFfavN8Qj9UDiZofzjUI-300" vertex="1">
          <mxGeometry y="78" width="164" height="42" as="geometry" />
        </mxCell>
        <mxCell id="fFfavN8Qj9UDiZofzjUI-303" value="# LostFound_desc: string[]" style="text;strokeColor=light-dark(#000000,#512D2B);fillColor=default;align=left;verticalAlign=top;spacingLeft=4;spacingRight=4;overflow=hidden;rotatable=0;points=[[0,0.5],[1,0.5]];portConstraint=eastwest;whiteSpace=wrap;html=1;" parent="fFfavN8Qj9UDiZofzjUI-300" vertex="1">
          <mxGeometry y="50" width="164" height="28" as="geometry" />
        </mxCell>
        <mxCell id="fFfavN8Qj9UDiZofzjUI-304" value="# addLostFoundToList()" style="text;strokeColor=light-dark(#000000,#512D2B);fillColor=default;align=left;verticalAlign=top;spacingLeft=4;spacingRight=4;overflow=hidden;rotatable=0;points=[[0,0.5],[1,0.5]];portConstraint=eastwest;whiteSpace=wrap;html=1;" parent="fFfavN8Qj9UDiZofzjUI-300" vertex="1">
          <mxGeometry y="116" width="164" height="30" as="geometry" />
        </mxCell>
        <mxCell id="Sa4O2JjXbT8sClhyJL3X-1" value="" style="endArrow=none;html=1;rounded=0;exitX=1;exitY=1;exitDx=0;exitDy=0;entryX=0;entryY=0;entryDx=0;entryDy=0;" parent="1" source="fFfavN8Qj9UDiZofzjUI-128" target="Xgi3c2Zr5CXY41PrPyP7-1" edge="1">
          <mxGeometry width="50" height="50" relative="1" as="geometry">
            <mxPoint x="-660" y="-866" as="sourcePoint" />
            <mxPoint x="-406" y="-494" as="targetPoint" />
          </mxGeometry>
        </mxCell>
      </root>
    </mxGraphModel>
  </diagram>
</mxfile>
